<?xml version="1.0" encoding="UTF-8" standalone="no"?>
<svg
   xmlns:dc="http://purl.org/dc/elements/1.1/"
   xmlns:cc="http://creativecommons.org/ns#"
   xmlns:rdf="http://www.w3.org/1999/02/22-rdf-syntax-ns#"
   xmlns:svg="http://www.w3.org/2000/svg"
   xmlns="http://www.w3.org/2000/svg"
   version="1.1"
   id="svg9689"
   viewBox="0 0 186.18382 196.51915"
   height="55.46207mm"
   width="52.545212mm">
  <defs
     id="defs9691" />
  <metadata
     id="metadata9694">
    <rdf:RDF>
      <cc:Work
         rdf:about="">
        <dc:format>image/svg+xml</dc:format>
        <dc:type
           rdf:resource="http://purl.org/dc/dcmitype/StillImage" />
        <dc:title></dc:title>
      </cc:Work>
    </rdf:RDF>
  </metadata>
  <g
     transform="translate(-244.05094,-302.67406)"
     id="layer1">
    <path
       id="path1166"
       style="fill:#ffffb0;fill-opacity:1;fill-rule:nonzero;stroke:#800000;stroke-width:0.10033082;stroke-linecap:round;stroke-linejoin:miter;stroke-miterlimit:10;stroke-dasharray:none;stroke-opacity:1"
       d="m 319.81303,330.64402 19.7665,0 0,89.97408 -19.7665,0 0,-89.97408 z" />
    <path
       id="path1168"
       style="fill:none;stroke:#000000;stroke-width:1.0033083;stroke-linecap:round;stroke-linejoin:miter;stroke-miterlimit:10;stroke-dasharray:none;stroke-opacity:1"
       d="m 319.81303,340.6746 -20.0675,0" />
    <text
       y="338.57315"
       x="307.12253"
       id="text1170"
       style="font-variant:normal;font-weight:normal;font-size:8.98494148px;font-family:'Times New Roman';-inkscape-font-specification:'Times New';writing-mode:lr-tb;fill:#000000;fill-opacity:1;fill-rule:nonzero;stroke:none">
      <tspan
         id="tspan1172"
         y="338.57315"
         x="307.12253">1</tspan>
    </text>
    <path
       id="path1174"
       style="fill:none;stroke:#000000;stroke-width:1.0033083;stroke-linecap:round;stroke-linejoin:miter;stroke-miterlimit:10;stroke-dasharray:none;stroke-opacity:1"
       d="m 339.88069,340.6746 20.0675,0" />
    <text
       y="338.57315"
       x="347.87018"
       id="text1176"
       style="font-variant:normal;font-weight:normal;font-size:8.98494148px;font-family:'Times New Roman';-inkscape-font-specification:'Times New';writing-mode:lr-tb;fill:#000000;fill-opacity:1;fill-rule:nonzero;stroke:none">
      <tspan
         id="tspan1178"
         y="338.57315"
         x="347.87018">2</tspan>
    </text>
    <path
       id="path1180"
       style="fill:none;stroke:#000000;stroke-width:1.0033083;stroke-linecap:round;stroke-linejoin:miter;stroke-miterlimit:10;stroke-dasharray:none;stroke-opacity:1"
       d="m 319.81303,350.70518 -20.0675,0" />
    <text
       y="348.75626"
       x="307.12253"
       id="text1182"
       style="font-variant:normal;font-weight:normal;font-size:8.98494148px;font-family:'Times New Roman';-inkscape-font-specification:'Times New';writing-mode:lr-tb;fill:#000000;fill-opacity:1;fill-rule:nonzero;stroke:none">
      <tspan
         id="tspan1184"
         y="348.75626"
         x="307.12253">3</tspan>
    </text>
    <path
       id="path1186"
       style="fill:none;stroke:#000000;stroke-width:1.0033083;stroke-linecap:round;stroke-linejoin:miter;stroke-miterlimit:10;stroke-dasharray:none;stroke-opacity:1"
       d="m 339.88069,350.70518 20.0675,0" />
    <text
       y="348.75626"
       x="347.87018"
       id="text1188"
       style="font-variant:normal;font-weight:normal;font-size:8.98494148px;font-family:'Times New Roman';-inkscape-font-specification:'Times New';writing-mode:lr-tb;fill:#000000;fill-opacity:1;fill-rule:nonzero;stroke:none">
      <tspan
         id="tspan1190"
         y="348.75626"
         x="347.87018">4</tspan>
    </text>
    <path
       id="path1192"
       style="fill:none;stroke:#000000;stroke-width:1.0033083;stroke-linecap:round;stroke-linejoin:miter;stroke-miterlimit:10;stroke-dasharray:none;stroke-opacity:1"
       d="m 319.81303,360.73576 -20.0675,0" />
    <text
       y="358.63962"
       x="307.12253"
       id="text1194"
       style="font-variant:normal;font-weight:normal;font-size:8.98494148px;font-family:'Times New Roman';-inkscape-font-specification:'Times New';writing-mode:lr-tb;fill:#000000;fill-opacity:1;fill-rule:nonzero;stroke:none">
      <tspan
         id="tspan1196"
         y="358.63962"
         x="307.12253">5</tspan>
    </text>
    <path
       id="path1198"
       style="fill:none;stroke:#000000;stroke-width:1.0033083;stroke-linecap:round;stroke-linejoin:miter;stroke-miterlimit:10;stroke-dasharray:none;stroke-opacity:1"
       d="m 339.88069,360.73576 20.0675,0" />
    <text
       y="358.63962"
       x="347.87018"
       id="text1200"
       style="font-variant:normal;font-weight:normal;font-size:8.98494148px;font-family:'Times New Roman';-inkscape-font-specification:'Times New';writing-mode:lr-tb;fill:#000000;fill-opacity:1;fill-rule:nonzero;stroke:none">
      <tspan
         id="tspan1202"
         y="358.63962"
         x="347.87018">6</tspan>
    </text>
    <path
       id="path1204"
       style="fill:none;stroke:#000000;stroke-width:1.0033083;stroke-linecap:round;stroke-linejoin:miter;stroke-miterlimit:10;stroke-dasharray:none;stroke-opacity:1"
       d="m 319.81303,370.76618 -20.0675,0" />
    <text
       y="368.82272"
       x="307.12253"
       id="text1206"
       style="font-variant:normal;font-weight:normal;font-size:8.98494148px;font-family:'Times New Roman';-inkscape-font-specification:'Times New';writing-mode:lr-tb;fill:#000000;fill-opacity:1;fill-rule:nonzero;stroke:none">
      <tspan
         id="tspan1208"
         y="368.82272"
         x="307.12253">7</tspan>
    </text>
    <path
       id="path1210"
       style="fill:none;stroke:#000000;stroke-width:1.0033083;stroke-linecap:round;stroke-linejoin:miter;stroke-miterlimit:10;stroke-dasharray:none;stroke-opacity:1"
       d="m 339.88069,370.76618 20.0675,0" />
    <text
       y="368.82272"
       x="347.87018"
       id="text1212"
       style="font-variant:normal;font-weight:normal;font-size:8.98494148px;font-family:'Times New Roman';-inkscape-font-specification:'Times New';writing-mode:lr-tb;fill:#000000;fill-opacity:1;fill-rule:nonzero;stroke:none">
      <tspan
         id="tspan1214"
         y="368.82272"
         x="347.87018">8</tspan>
    </text>
    <path
       id="path1216"
       style="fill:none;stroke:#000000;stroke-width:1.0033083;stroke-linecap:round;stroke-linejoin:miter;stroke-miterlimit:10;stroke-dasharray:none;stroke-opacity:1"
       d="m 319.81303,380.79676 -20.0675,0" />
    <text
       y="378.7063"
       x="307.12253"
       id="text1218"
       style="font-variant:normal;font-weight:normal;font-size:8.98494148px;font-family:'Times New Roman';-inkscape-font-specification:'Times New';writing-mode:lr-tb;fill:#000000;fill-opacity:1;fill-rule:nonzero;stroke:none">
      <tspan
         id="tspan1220"
         y="378.7063"
         x="307.12253">9</tspan>
    </text>
    <path
       id="path1222"
       style="fill:none;stroke:#000000;stroke-width:1.0033083;stroke-linecap:round;stroke-linejoin:miter;stroke-miterlimit:10;stroke-dasharray:none;stroke-opacity:1"
       d="m 339.88069,380.79676 20.0675,0" />
    <text
       y="378.7063"
       x="347.87018"
       id="text1224"
       style="font-variant:normal;font-weight:normal;font-size:8.98494148px;font-family:'Times New Roman';-inkscape-font-specification:'Times New';writing-mode:lr-tb;fill:#000000;fill-opacity:1;fill-rule:nonzero;stroke:none">
      <tspan
         id="tspan1226"
         y="378.7063"
         x="347.87018 352.36264">10</tspan>
    </text>
    <path
       id="path1228"
       style="fill:none;stroke:#000000;stroke-width:1.0033083;stroke-linecap:round;stroke-linejoin:miter;stroke-miterlimit:10;stroke-dasharray:none;stroke-opacity:1"
       d="m 319.81303,390.82735 -20.0675,0" />
    <text
       y="388.88922"
       x="302.6283"
       id="text1230"
       style="font-variant:normal;font-weight:normal;font-size:8.98494148px;font-family:'Times New Roman';-inkscape-font-specification:'Times New';writing-mode:lr-tb;fill:#000000;fill-opacity:1;fill-rule:nonzero;stroke:none">
      <tspan
         id="tspan1232"
         y="388.88922"
         x="302.6283 307.12076">11</tspan>
    </text>
    <path
       id="path1234"
       style="fill:none;stroke:#000000;stroke-width:1.0033083;stroke-linecap:round;stroke-linejoin:miter;stroke-miterlimit:10;stroke-dasharray:none;stroke-opacity:1"
       d="m 339.88069,390.82735 20.0675,0" />
    <text
       y="388.88922"
       x="347.87018"
       id="text1236"
       style="font-variant:normal;font-weight:normal;font-size:8.98494148px;font-family:'Times New Roman';-inkscape-font-specification:'Times New';writing-mode:lr-tb;fill:#000000;fill-opacity:1;fill-rule:nonzero;stroke:none">
      <tspan
         id="tspan1238"
         y="388.88922"
         x="347.87018 352.36264">12</tspan>
    </text>
    <path
       id="path1240"
       style="fill:none;stroke:#000000;stroke-width:1.0033083;stroke-linecap:round;stroke-linejoin:miter;stroke-miterlimit:10;stroke-dasharray:none;stroke-opacity:1"
       d="m 319.81303,400.85793 -20.0675,0" />
    <text
       y="398.7728"
       x="302.6283"
       id="text1242"
       style="font-variant:normal;font-weight:normal;font-size:8.98494148px;font-family:'Times New Roman';-inkscape-font-specification:'Times New';writing-mode:lr-tb;fill:#000000;fill-opacity:1;fill-rule:nonzero;stroke:none">
      <tspan
         id="tspan1244"
         y="398.7728"
         x="302.6283 307.12076">13</tspan>
    </text>
    <path
       id="path1246"
       style="fill:none;stroke:#000000;stroke-width:1.0033083;stroke-linecap:round;stroke-linejoin:miter;stroke-miterlimit:10;stroke-dasharray:none;stroke-opacity:1"
       d="m 339.88069,400.85793 20.0675,0" />
    <text
       y="398.7728"
       x="347.87018"
       id="text1248"
       style="font-variant:normal;font-weight:normal;font-size:8.98494148px;font-family:'Times New Roman';-inkscape-font-specification:'Times New';writing-mode:lr-tb;fill:#000000;fill-opacity:1;fill-rule:nonzero;stroke:none">
      <tspan
         id="tspan1250"
         y="398.7728"
         x="347.87018 352.36264">14</tspan>
    </text>
    <path
       id="path1252"
       style="fill:none;stroke:#000000;stroke-width:1.0033083;stroke-linecap:round;stroke-linejoin:miter;stroke-miterlimit:10;stroke-dasharray:none;stroke-opacity:1"
       d="m 319.81303,410.88851 -20.0675,0" />
    <text
       y="408.95575"
       x="302.6283"
       id="text1254"
       style="font-variant:normal;font-weight:normal;font-size:8.98494148px;font-family:'Times New Roman';-inkscape-font-specification:'Times New';writing-mode:lr-tb;fill:#000000;fill-opacity:1;fill-rule:nonzero;stroke:none">
      <tspan
         id="tspan1256"
         y="408.95575"
         x="302.6283 307.12076">15</tspan>
    </text>
    <path
       id="path1258"
       style="fill:none;stroke:#000000;stroke-width:1.0033083;stroke-linecap:round;stroke-linejoin:miter;stroke-miterlimit:10;stroke-dasharray:none;stroke-opacity:1"
       d="m 339.88069,410.88851 20.0675,0" />
    <text
       y="408.95575"
       x="347.87018"
       id="text1260"
       style="font-variant:normal;font-weight:normal;font-size:8.98494148px;font-family:'Times New Roman';-inkscape-font-specification:'Times New';writing-mode:lr-tb;fill:#000000;fill-opacity:1;fill-rule:nonzero;stroke:none">
      <tspan
         id="tspan1262"
         y="408.95575"
         x="347.87018 352.36264">16</tspan>
    </text>
    <text
       y="429.0224"
       x="329.89328"
       id="text1264"
       style="font-variant:normal;font-weight:normal;font-size:8.98494148px;font-family:'Times New Roman';-inkscape-font-specification:'Times New';writing-mode:lr-tb;fill:#000080;fill-opacity:1;fill-rule:nonzero;stroke:none">
      <tspan
         id="tspan1266"
         y="429.0224"
         x="329.89328 333.48724">J2</tspan>
    </text>
    <path
       id="path1268"
       style="fill:none;stroke:#800000;stroke-width:1.0033083;stroke-linecap:round;stroke-linejoin:miter;stroke-miterlimit:10;stroke-dasharray:none;stroke-opacity:1"
       d="m 284.6949,310.58285 10.03375,0" />
    <text
       y="308.62308"
       x="260.38269"
       id="text1270"
       style="font-variant:normal;font-weight:normal;font-size:8.98494148px;font-family:'Times New Roman';-inkscape-font-specification:'Times New';writing-mode:lr-tb;fill:#800000;fill-opacity:1;fill-rule:nonzero;stroke:none">
      <tspan
         id="tspan1272"
         y="308.62308"
         x="260.38269 264.92636 271.46381 276.00391 281.04803 286.43903 293.02768 299.61633 306.20499 312.24734">5V_STANDBY</tspan>
    </text>
    <path
       id="path1274"
       style="fill:none;stroke:#800000;stroke-width:1.0033083;stroke-linecap:round;stroke-linejoin:miter;stroke-miterlimit:10;stroke-dasharray:none;stroke-opacity:1"
       d="m 289.71178,320.61343 0,-10.03058" />
    <path
       id="path1276"
       style="fill:none;stroke:#800000;stroke-width:1.0033083;stroke-linecap:round;stroke-linejoin:miter;stroke-miterlimit:10;stroke-dasharray:none;stroke-opacity:1"
       d="m 264.62741,340.6746 10.03374,0" />
    <text
       y="338.57315"
       x="261.88083"
       id="text1278"
       style="font-variant:normal;font-weight:normal;font-size:8.98494148px;font-family:'Times New Roman';-inkscape-font-specification:'Times New';writing-mode:lr-tb;fill:#800000;fill-opacity:1;fill-rule:nonzero;stroke:none">
      <tspan
         id="tspan1280"
         y="338.57315"
         x="261.88083 266.4245 272.96194">3V3</tspan>
    </text>
    <path
       id="path1282"
       style="fill:none;stroke:#800000;stroke-width:1.0033083;stroke-linecap:round;stroke-linejoin:miter;stroke-miterlimit:10;stroke-dasharray:none;stroke-opacity:1"
       d="m 269.64428,350.70518 0,-10.03058" />
    <path
       id="path1284"
       style="fill:none;stroke:#800000;stroke-width:1.0033083;stroke-linecap:round;stroke-linejoin:miter;stroke-miterlimit:10;stroke-dasharray:none;stroke-opacity:1"
       d="m 385.03273,340.6746 10.03375,0" />
    <text
       y="338.57315"
       x="382.32581"
       id="text1286"
       style="font-variant:normal;font-weight:normal;font-size:8.98494148px;font-family:'Times New Roman';-inkscape-font-specification:'Times New';writing-mode:lr-tb;fill:#800000;fill-opacity:1;fill-rule:nonzero;stroke:none">
      <tspan
         id="tspan1288"
         y="338.57315"
         x="382.32581 386.86948 393.40692">3V3</tspan>
    </text>
    <path
       id="path1290"
       style="fill:none;stroke:#800000;stroke-width:1.0033083;stroke-linecap:round;stroke-linejoin:miter;stroke-miterlimit:10;stroke-dasharray:none;stroke-opacity:1"
       d="m 390.0496,350.70518 0,-10.03058" />
    <path
       id="path1292"
       style="fill:none;stroke:#800000;stroke-width:1.0033083;stroke-linecap:round;stroke-linejoin:miter;stroke-miterlimit:10;stroke-dasharray:none;stroke-opacity:1"
       d="m 324.83007,451.01067 10.03375,0" />
    <text
       y="449.08887"
       x="322.1033"
       id="text1294"
       style="font-variant:normal;font-weight:normal;font-size:8.98494148px;font-family:'Times New Roman';-inkscape-font-specification:'Times New';writing-mode:lr-tb;fill:#800000;fill-opacity:1;fill-rule:nonzero;stroke:none">
      <tspan
         id="tspan1296"
         y="449.08887"
         x="322.1033 326.62991 331.15652">12V</tspan>
    </text>
    <path
       id="path1298"
       style="fill:none;stroke:#800000;stroke-width:1.0033083;stroke-linecap:round;stroke-linejoin:miter;stroke-miterlimit:10;stroke-dasharray:none;stroke-opacity:1"
       d="m 329.84694,461.04126 0,-10.03059" />
    <path
       id="path1300"
       style="fill:#000080;fill-opacity:1;fill-rule:nonzero;stroke:#000080;stroke-width:0.10033082;stroke-linecap:round;stroke-linejoin:miter;stroke-miterlimit:10;stroke-dasharray:none;stroke-opacity:1"
       d="m 331.55257,460.89076 c 0,1.02497 -0.83098,1.85579 -1.85612,1.85579 -1.02531,0 -1.85629,-0.83082 -1.85629,-1.85579 0,-1.02481 0.83098,-1.85562 1.85629,-1.85562 1.02514,0 1.85612,0.83081 1.85612,1.85562" />
    <path
       id="path1302"
       style="fill:none;stroke:#800000;stroke-width:1.0033083;stroke-linecap:round;stroke-linejoin:miter;stroke-miterlimit:10;stroke-dasharray:none;stroke-opacity:1"
       d="m 319.81303,481.10242 20.06766,0" />
    <path
       id="path1304"
       style="fill:none;stroke:#800000;stroke-width:1.0033083;stroke-linecap:round;stroke-linejoin:miter;stroke-miterlimit:10;stroke-dasharray:none;stroke-opacity:1"
       d="M 319.81303,481.10242 329.84694,491.133" />
    <path
       id="path1306"
       style="fill:none;stroke:#800000;stroke-width:1.0033083;stroke-linecap:round;stroke-linejoin:miter;stroke-miterlimit:10;stroke-dasharray:none;stroke-opacity:1"
       d="M 339.88069,481.10242 329.84694,491.133" />
    <text
       y="499.10547"
       x="320.00601"
       id="text1308"
       style="font-variant:normal;font-weight:normal;font-size:8.98494148px;font-family:'Times New Roman';-inkscape-font-specification:'Times New';writing-mode:lr-tb;fill:#800000;fill-opacity:1;fill-rule:nonzero;stroke:none">
      <tspan
         id="tspan1310"
         y="499.10547"
         x="320.00601 326.5947 333.18335">GND</tspan>
    </text>
    <path
       id="path1312"
       style="fill:none;stroke:#800000;stroke-width:1.0033083;stroke-linecap:round;stroke-linejoin:miter;stroke-miterlimit:10;stroke-dasharray:none;stroke-opacity:1"
       d="m 329.84694,471.07184 0,10.03058" />
    <path
       id="path1314"
       style="fill:#000080;fill-opacity:1;fill-rule:nonzero;stroke:#000080;stroke-width:0.10033082;stroke-linecap:round;stroke-linejoin:miter;stroke-miterlimit:10;stroke-dasharray:none;stroke-opacity:1"
       d="m 331.55257,470.92134 c 0,1.02481 -0.83098,1.85562 -1.85612,1.85562 -1.02531,0 -1.85629,-0.83081 -1.85629,-1.85562 0,-1.0248 0.83098,-1.85562 1.85629,-1.85562 1.02514,0 1.85612,0.83082 1.85612,1.85562" />
    <path
       id="path1316"
       style="fill:none;stroke:#800000;stroke-width:1.0033083;stroke-linecap:round;stroke-linejoin:miter;stroke-miterlimit:10;stroke-dasharray:none;stroke-opacity:1"
       d="m 244.55974,340.6746 10.03375,0" />
    <text
       y="338.57315"
       x="243.90393"
       id="text1318"
       style="font-variant:normal;font-weight:normal;font-size:8.98494148px;font-family:'Times New Roman';-inkscape-font-specification:'Times New';writing-mode:lr-tb;fill:#800000;fill-opacity:1;fill-rule:nonzero;stroke:none">
      <tspan
         id="tspan1320"
         y="338.57315"
         x="243.90393 248.4476">5V</tspan>
    </text>
    <path
       id="path1322"
       style="fill:none;stroke:#800000;stroke-width:1.0033083;stroke-linecap:round;stroke-linejoin:miter;stroke-miterlimit:10;stroke-dasharray:none;stroke-opacity:1"
       d="m 249.57662,350.70518 0,-10.03058" />
    <path
       id="path1324"
       style="fill:none;stroke:#800000;stroke-width:1.0033083;stroke-linecap:round;stroke-linejoin:miter;stroke-miterlimit:10;stroke-dasharray:none;stroke-opacity:1"
       d="m 405.10023,340.6746 10.03374,0" />
    <text
       y="338.57315"
       x="404.49741"
       id="text1326"
       style="font-variant:normal;font-weight:normal;font-size:8.98494148px;font-family:'Times New Roman';-inkscape-font-specification:'Times New';writing-mode:lr-tb;fill:#800000;fill-opacity:1;fill-rule:nonzero;stroke:none">
      <tspan
         id="tspan1328"
         y="338.57315"
         x="404.49741 409.04111">5V</tspan>
    </text>
    <path
       id="path1330"
       style="fill:none;stroke:#800000;stroke-width:1.0033083;stroke-linecap:round;stroke-linejoin:miter;stroke-miterlimit:10;stroke-dasharray:none;stroke-opacity:1"
       d="m 410.1171,350.70518 0,-10.03058" />
    <path
       id="path1332"
       style="fill:#ffff80;fill-opacity:1;fill-rule:evenodd;stroke:#800000;stroke-width:0.10033082;stroke-linecap:round;stroke-linejoin:miter;stroke-miterlimit:10;stroke-dasharray:none;stroke-opacity:1"
       d="m 369.98194,315.59823 0,-10.03059 60.20266,0 0,10.03059 -60.20266,0 z" />
    <text
       y="313.7146"
       x="372.43854"
       id="text1334"
       style="font-variant:normal;font-weight:normal;font-size:8.98494148px;font-family:'Times New Roman';-inkscape-font-specification:'Times New';writing-mode:lr-tb;fill:#800000;fill-opacity:1;fill-rule:nonzero;stroke:none">
      <tspan
         id="tspan1336"
         y="313.7146"
         x="372.43854 376.96515 381.49176 388.01215 392.55225 397.59637 402.98737 409.57602 414.66779">12V_SENSE</tspan>
    </text>
    <path
       id="path1630"
       style="fill:none;stroke:#ff0000;stroke-width:0.10033082;stroke-linecap:round;stroke-linejoin:miter;stroke-miterlimit:10;stroke-dasharray:none;stroke-opacity:1"
       d="m 365.96854,314.59508 8.02696,-8.02446" />
    <path
       id="path1632"
       style="fill:none;stroke:#ff0000;stroke-width:0.10033082;stroke-linecap:round;stroke-linejoin:miter;stroke-miterlimit:10;stroke-dasharray:none;stroke-opacity:1"
       d="m 365.96854,306.57062 8.02696,8.02446" />
    <path
       id="path1634"
       style="fill:none;stroke:#ff0000;stroke-width:0.10033082;stroke-linecap:round;stroke-linejoin:miter;stroke-miterlimit:10;stroke-dasharray:none;stroke-opacity:1"
       d="m 285.69821,324.62567 8.02713,-8.02447" />
    <path
       id="path1636"
       style="fill:none;stroke:#ff0000;stroke-width:0.10033082;stroke-linecap:round;stroke-linejoin:miter;stroke-miterlimit:10;stroke-dasharray:none;stroke-opacity:1"
       d="m 285.69821,316.6012 8.02713,8.02447" />
    <path
       id="path1962"
       style="fill:none;stroke:#000080;stroke-width:1.0033083;stroke-linecap:round;stroke-linejoin:miter;stroke-miterlimit:10;stroke-dasharray:none;stroke-opacity:1"
       d="m 289.71178,320.61343 0,20.06117 10.03375,0" />
    <path
       id="path1964"
       style="fill:none;stroke:#000080;stroke-width:1.0033083;stroke-linecap:round;stroke-linejoin:miter;stroke-miterlimit:10;stroke-dasharray:none;stroke-opacity:1"
       d="m 269.64428,350.70518 30.10125,0" />
    <path
       id="path1966"
       style="fill:none;stroke:#000080;stroke-width:1.0033083;stroke-linecap:round;stroke-linejoin:miter;stroke-miterlimit:10;stroke-dasharray:none;stroke-opacity:1"
       d="m 359.94819,350.70518 30.10141,0" />
    <path
       id="path1968"
       style="fill:none;stroke:#000080;stroke-width:1.0033083;stroke-linecap:round;stroke-linejoin:miter;stroke-miterlimit:10;stroke-dasharray:none;stroke-opacity:1"
       d="m 299.74553,410.88851 -10.03375,0" />
    <path
       id="path1970"
       style="fill:#000080;fill-opacity:1;fill-rule:nonzero;stroke:#000080;stroke-width:0.10033082;stroke-linecap:round;stroke-linejoin:miter;stroke-miterlimit:10;stroke-dasharray:none;stroke-opacity:1"
       d="m 291.41757,410.73801 c 0,1.02481 -0.83115,1.85562 -1.85629,1.85562 -1.02514,0 -1.85628,-0.83081 -1.85628,-1.85562 0,-1.0248 0.83114,-1.85562 1.85628,-1.85562 1.02514,0 1.85629,0.83082 1.85629,1.85562" />
    <path
       id="path1972"
       style="fill:none;stroke:#000080;stroke-width:1.0033083;stroke-linecap:round;stroke-linejoin:miter;stroke-miterlimit:10;stroke-dasharray:none;stroke-opacity:1"
       d="m 359.94819,410.88851 10.03375,0" />
    <path
       id="path1974"
       style="fill:#000080;fill-opacity:1;fill-rule:nonzero;stroke:#000080;stroke-width:0.10033082;stroke-linecap:round;stroke-linejoin:miter;stroke-miterlimit:10;stroke-dasharray:none;stroke-opacity:1"
       d="m 371.68773,410.73801 c 0,1.02481 -0.83115,1.85562 -1.85629,1.85562 -1.02514,0 -1.85629,-0.83081 -1.85629,-1.85562 0,-1.0248 0.83115,-1.85562 1.85629,-1.85562 1.02514,0 1.85629,0.83082 1.85629,1.85562" />
    <path
       id="path1976"
       style="fill:none;stroke:#000080;stroke-width:1.0033083;stroke-linecap:round;stroke-linejoin:miter;stroke-miterlimit:10;stroke-dasharray:none;stroke-opacity:1"
       d="m 299.74553,390.82735 -30.10125,0" />
    <path
       id="path1978"
       style="fill:#000080;fill-opacity:1;fill-rule:nonzero;stroke:#000080;stroke-width:0.10033082;stroke-linecap:round;stroke-linejoin:miter;stroke-miterlimit:10;stroke-dasharray:none;stroke-opacity:1"
       d="m 271.3499,390.67685 c 0,1.02497 -0.83098,1.85579 -1.85612,1.85579 -1.0253,0 -1.85628,-0.83082 -1.85628,-1.85579 0,-1.02481 0.83098,-1.85562 1.85628,-1.85562 1.02514,0 1.85612,0.83081 1.85612,1.85562" />
    <path
       id="path1980"
       style="fill:none;stroke:#000080;stroke-width:1.0033083;stroke-linecap:round;stroke-linejoin:miter;stroke-miterlimit:10;stroke-dasharray:none;stroke-opacity:1"
       d="m 359.94819,390.82735 30.10141,0" />
    <path
       id="path1982"
       style="fill:#000080;fill-opacity:1;fill-rule:nonzero;stroke:#000080;stroke-width:0.10033082;stroke-linecap:round;stroke-linejoin:miter;stroke-miterlimit:10;stroke-dasharray:none;stroke-opacity:1"
       d="m 391.75523,390.67685 c 0,1.02497 -0.83098,1.85579 -1.85612,1.85579 -1.02531,0 -1.85629,-0.83082 -1.85629,-1.85579 0,-1.02481 0.83098,-1.85562 1.85629,-1.85562 1.02514,0 1.85612,0.83081 1.85612,1.85562" />
    <path
       id="path1984"
       style="fill:none;stroke:#000080;stroke-width:1.0033083;stroke-linecap:round;stroke-linejoin:miter;stroke-miterlimit:10;stroke-dasharray:none;stroke-opacity:1"
       d="m 299.74553,370.76618 -50.16891,0 0,-20.061" />
    <path
       id="path1986"
       style="fill:none;stroke:#000080;stroke-width:1.0033083;stroke-linecap:round;stroke-linejoin:miter;stroke-miterlimit:10;stroke-dasharray:none;stroke-opacity:1"
       d="m 359.94819,370.76618 50.16891,0 0,-20.061" />
    <path
       id="path1988"
       style="fill:none;stroke:#000080;stroke-width:1.0033083;stroke-linecap:round;stroke-linejoin:miter;stroke-miterlimit:10;stroke-dasharray:none;stroke-opacity:1"
       d="m 299.74553,360.73576 -30.10125,0 0,20.061" />
    <path
       id="path1990"
       style="fill:#000080;fill-opacity:1;fill-rule:nonzero;stroke:#000080;stroke-width:0.10033082;stroke-linecap:round;stroke-linejoin:miter;stroke-miterlimit:10;stroke-dasharray:none;stroke-opacity:1"
       d="m 271.3499,380.64643 c 0,1.02481 -0.83098,1.85562 -1.85612,1.85562 -1.0253,0 -1.85628,-0.83081 -1.85628,-1.85562 0,-1.02497 0.83098,-1.85578 1.85628,-1.85578 1.02514,0 1.85612,0.83081 1.85612,1.85578" />
    <path
       id="path1992"
       style="fill:none;stroke:#000080;stroke-width:1.0033083;stroke-linecap:round;stroke-linejoin:miter;stroke-miterlimit:10;stroke-dasharray:none;stroke-opacity:1"
       d="m 359.94819,360.73576 30.10141,0 0,20.061" />
    <path
       id="path1994"
       style="fill:#000080;fill-opacity:1;fill-rule:nonzero;stroke:#000080;stroke-width:0.10033082;stroke-linecap:round;stroke-linejoin:miter;stroke-miterlimit:10;stroke-dasharray:none;stroke-opacity:1"
       d="m 391.75523,380.64643 c 0,1.02481 -0.83098,1.85562 -1.85612,1.85562 -1.02531,0 -1.85629,-0.83081 -1.85629,-1.85562 0,-1.02497 0.83098,-1.85578 1.85629,-1.85578 1.02514,0 1.85612,0.83081 1.85612,1.85578" />
    <path
       id="path2000"
       style="fill:none;stroke:#000080;stroke-width:1.0033083;stroke-linecap:round;stroke-linejoin:miter;stroke-miterlimit:10;stroke-dasharray:none;stroke-opacity:1"
       d="m 359.94819,340.6746 0,-30.09175 10.03375,0" />
    <path
       id="path2020"
       style="fill:none;stroke:#000080;stroke-width:1.0033083;stroke-linecap:round;stroke-linejoin:miter;stroke-miterlimit:10;stroke-dasharray:none;stroke-opacity:1"
       d="m 359.94819,380.79676 30.10141,0 0,10.03059 0,80.24449 -60.20266,0 -60.20266,0 0,-80.24449 0,-10.03059 30.10125,0" />
    <path
       id="path2022"
       style="fill:#000080;fill-opacity:1;fill-rule:nonzero;stroke:#000080;stroke-width:0.10033082;stroke-linecap:round;stroke-linejoin:miter;stroke-miterlimit:10;stroke-dasharray:none;stroke-opacity:1"
       d="m 391.75523,380.64643 c 0,1.02481 -0.83098,1.85562 -1.85612,1.85562 -1.02531,0 -1.85629,-0.83081 -1.85629,-1.85562 0,-1.02497 0.83098,-1.85578 1.85629,-1.85578 1.02514,0 1.85612,0.83081 1.85612,1.85578" />
    <path
       id="path2024"
       style="fill:#000080;fill-opacity:1;fill-rule:nonzero;stroke:#000080;stroke-width:0.10033082;stroke-linecap:round;stroke-linejoin:miter;stroke-miterlimit:10;stroke-dasharray:none;stroke-opacity:1"
       d="m 391.75523,390.67685 c 0,1.02497 -0.83098,1.85579 -1.85612,1.85579 -1.02531,0 -1.85629,-0.83082 -1.85629,-1.85579 0,-1.02481 0.83098,-1.85562 1.85629,-1.85562 1.02514,0 1.85612,0.83081 1.85612,1.85562" />
    <path
       id="path2026"
       style="fill:#000080;fill-opacity:1;fill-rule:nonzero;stroke:#000080;stroke-width:0.10033082;stroke-linecap:round;stroke-linejoin:miter;stroke-miterlimit:10;stroke-dasharray:none;stroke-opacity:1"
       d="m 331.55257,470.92134 c 0,1.02481 -0.83098,1.85562 -1.85612,1.85562 -1.02531,0 -1.85629,-0.83081 -1.85629,-1.85562 0,-1.0248 0.83098,-1.85562 1.85629,-1.85562 1.02514,0 1.85612,0.83082 1.85612,1.85562" />
    <path
       id="path2028"
       style="fill:#000080;fill-opacity:1;fill-rule:nonzero;stroke:#000080;stroke-width:0.10033082;stroke-linecap:round;stroke-linejoin:miter;stroke-miterlimit:10;stroke-dasharray:none;stroke-opacity:1"
       d="m 271.3499,390.67685 c 0,1.02497 -0.83098,1.85579 -1.85612,1.85579 -1.0253,0 -1.85628,-0.83082 -1.85628,-1.85579 0,-1.02481 0.83098,-1.85562 1.85628,-1.85562 1.02514,0 1.85612,0.83081 1.85612,1.85562" />
    <path
       id="path2030"
       style="fill:#000080;fill-opacity:1;fill-rule:nonzero;stroke:#000080;stroke-width:0.10033082;stroke-linecap:round;stroke-linejoin:miter;stroke-miterlimit:10;stroke-dasharray:none;stroke-opacity:1"
       d="m 271.3499,380.64643 c 0,1.02481 -0.83098,1.85562 -1.85612,1.85562 -1.0253,0 -1.85628,-0.83081 -1.85628,-1.85562 0,-1.02497 0.83098,-1.85578 1.85628,-1.85578 1.02514,0 1.85612,0.83081 1.85612,1.85578" />
    <path
       id="path2046"
       style="fill:none;stroke:#000080;stroke-width:1.0033083;stroke-linecap:round;stroke-linejoin:miter;stroke-miterlimit:10;stroke-dasharray:none;stroke-opacity:1"
       d="m 359.94819,400.85793 10.03375,0 0,10.03058 0,50.15275 -40.135,0 -40.13516,0 0,-50.15275 0,-10.03058 10.03375,0" />
    <path
       id="path2048"
       style="fill:#000080;fill-opacity:1;fill-rule:nonzero;stroke:#000080;stroke-width:0.10033082;stroke-linecap:round;stroke-linejoin:miter;stroke-miterlimit:10;stroke-dasharray:none;stroke-opacity:1"
       d="m 371.68773,410.73801 c 0,1.02481 -0.83115,1.85562 -1.85629,1.85562 -1.02514,0 -1.85629,-0.83081 -1.85629,-1.85562 0,-1.0248 0.83115,-1.85562 1.85629,-1.85562 1.02514,0 1.85629,0.83082 1.85629,1.85562" />
    <path
       id="path2050"
       style="fill:#000080;fill-opacity:1;fill-rule:nonzero;stroke:#000080;stroke-width:0.10033082;stroke-linecap:round;stroke-linejoin:miter;stroke-miterlimit:10;stroke-dasharray:none;stroke-opacity:1"
       d="m 331.55257,460.89076 c 0,1.02497 -0.83098,1.85579 -1.85612,1.85579 -1.02531,0 -1.85629,-0.83082 -1.85629,-1.85579 0,-1.02481 0.83098,-1.85562 1.85629,-1.85562 1.02514,0 1.85612,0.83081 1.85612,1.85562" />
    <path
       id="path2052"
       style="fill:#000080;fill-opacity:1;fill-rule:nonzero;stroke:#000080;stroke-width:0.10033082;stroke-linecap:round;stroke-linejoin:miter;stroke-miterlimit:10;stroke-dasharray:none;stroke-opacity:1"
       d="m 291.41757,410.73801 c 0,1.02481 -0.83115,1.85562 -1.85629,1.85562 -1.02514,0 -1.85628,-0.83081 -1.85628,-1.85562 0,-1.0248 0.83114,-1.85562 1.85628,-1.85562 1.02514,0 1.85629,0.83082 1.85629,1.85562" />
  </g>
</svg>
