  0
SECTION
  2
HEADER
  9
$ACADVER
  1
AC1014
  9
$HANDSEED
  5
FFFF
  9
$MEASUREMENT
 70
     1
  0
ENDSEC
  0
SECTION
  2
TABLES
  0
TABLE
  2
VPORT
  5
8
330
0
100
AcDbSymbolTable
 70
     4
  0
VPORT
  5
2E
330
8
100
AcDbSymbolTableRecord
100
AcDbViewportTableRecord
  2
*ACTIVE
 70
     0
 10
0.0
 20
0.0
 11
1.0
 21
1.0
 12
210.0
 22
148.5
 13
0.0
 23
0.0
 14
10.0
 24
10.0
 15
10.0
 25
10.0
 16
0.0
 26
0.0
 36
1.0
 17
0.0
 27
0.0
 37
0.0
 40
341.0
 41
1.24
 42
50.0
 43
0.0
 44
0.0
 50
0.0
 51
0.0
 71
     0
 72
   100
 73
     1
 74
     3
 75
     0
 76
     0
 77
     0
 78
     0
  0
ENDTAB
  0
TABLE
  2
LTYPE
  5
5
330
0
100
AcDbSymbolTable
 70
     1
  0
LTYPE
  5
14
330
5
100
AcDbSymbolTableRecord
100
AcDbLinetypeTableRecord
  2
BYBLOCK
 70
     0
  3

 72
    65
 73
     0
 40
0.0
  0
LTYPE
  5
15
330
5
100
AcDbSymbolTableRecord
100
AcDbLinetypeTableRecord
  2
BYLAYER
 70
     0
  3

 72
    65
 73
     0
 40
0.0
  0
LTYPE
  5
16
330
5
100
AcDbSymbolTableRecord
100
AcDbLinetypeTableRecord
  2
CONTINUOUS
 70
     0
  3
Solid line
 72
    65
 73
     0
 40
0.0
  0
ENDTAB
  0
TABLE
  2
LAYER
  5
2
100
AcDbSymbolTable
 70
4
  0
LAYER
  5
50
100
AcDbSymbolTableRecord
100
AcDbLayerTableRecord
  2
0
 70
0
  6
CONTINUOUS
  0
LAYER
  5
51
100
AcDbSymbolTableRecord
100
AcDbLayerTableRecord
  2
Dioxin
 70
0
  6
CONTINUOUS
  0
LAYER
  5
52
100
AcDbSymbolTableRecord
100
AcDbLayerTableRecord
  2
Oxygen
 70
0
  6
CONTINUOUS
  0
LAYER
  5
53
100
AcDbSymbolTableRecord
100
AcDbLayerTableRecord
  2
Squirrel
 70
0
  6
CONTINUOUS
  0
ENDTAB
  0
TABLE
  2
STYLE
  5
3
330
0
100
AcDbSymbolTable
 70
     1
  0
STYLE
  5
11
330
3
100
AcDbSymbolTableRecord
100
AcDbTextStyleTableRecord
  2
STANDARD
 70
     0
 40
0.0
 41
1.0
 50
0.0
 71
     0
 42
2.5
  3
txt
  4

  0
ENDTAB
  0
TABLE
  2
VIEW
  5
6
330
0
100
AcDbSymbolTable
 70
     0
  0
ENDTAB
  0
TABLE
  2
UCS
  5
7
330
0
100
AcDbSymbolTable
 70
     0
  0
ENDTAB
  0
TABLE
  2
APPID
  5
9
330
0
100
AcDbSymbolTable
 70
     2
  0
APPID
  5
12
330
9
100
AcDbSymbolTableRecord
100
AcDbRegAppTableRecord
  2
ACAD
 70
     0
  0
ENDTAB
  0
TABLE
  2
DIMSTYLE
  5
A
330
0
100
AcDbSymbolTable
 70
     1
  0
DIMSTYLE
105
27
330
A
100
AcDbSymbolTableRecord
100
AcDbDimStyleTableRecord
  2
ISO-25
 70
     0
  3

  4

  5

  6

  7

 40
1.0
 41
2.5
 42
0.625
 43
3.75
 44
1.25
 45
0.0
 46
0.0
 47
0.0
 48
0.0
140
2.5
141
2.5
142
0.0
143
0.03937007874016
144
1.0
145
0.0
146
1.0
147
0.625
 71
     0
 72
     0
 73
     0
 74
     0
 75
     0
 76
     0
 77
     1
 78
     8
170
     0
171
     3
172
     1
173
     0
174
     0
175
     0
176
     0
177
     0
178
     0
270
     2
271
     2
272
     2
273
     2
274
     3
340
11
275
     0
280
     0
281
     0
282
     0
283
     0
284
     8
285
     0
286
     0
287
     3
288
     0
  0
ENDTAB
  0
TABLE
  2
BLOCK_RECORD
  5
1
330
0
100
AcDbSymbolTable
 70
     1
  0
BLOCK_RECORD
  5
1F
330
1
100
AcDbSymbolTableRecord
100
AcDbBlockTableRecord
  2
*MODEL_SPACE
  0
BLOCK_RECORD
  5
1B
330
1
100
AcDbSymbolTableRecord
100
AcDbBlockTableRecord
  2
*PAPER_SPACE
  0
ENDTAB
  0
ENDSEC
  0
SECTION
  2
BLOCKS
  0
BLOCK
  5
20
330
1F
100
AcDbEntity
  8
0
100
AcDbBlockBegin
  2
*MODEL_SPACE
 70
     0
 10
0.0
 20
0.0
 30
0.0
  3
*MODEL_SPACE
  1

  0
ENDBLK
  5
21
330
1F
100
AcDbEntity
  8
0
100
AcDbBlockEnd
  0
BLOCK
  5
1C
330
1B
100
AcDbEntity
 67
     1
  8
0
100
AcDbBlockBegin
  2
*PAPER_SPACE
  1

  0
ENDBLK
  5
1D
330
1B
100
AcDbEntity
 67
     1
  8
0
100
AcDbBlockEnd
  0
ENDSEC
  0
SECTION
  2
ENTITIES
  0
SPLINE
  5
100
100
AcDbEntity
  8
Dioxin
 62
7
100
AcDbSpline
 70
8
 71
3
 72
8
 73
4
 74
0
 40
0
 40
0
 40
0
 40
0
 40
1
 40
1
 40
1
 40
1
 10
3.810000
 20
40.869048
 30
0.0
 10
3.097095
 20
40.869043
 30
0.0
 10
2.445557
 20
40.700364
 30
0.0
 10
1.852083
 20
40.375159
 30
0.0
  0
SPLINE
  5
101
100
AcDbEntity
  8
Dioxin
 62
7
100
AcDbSpline
 70
8
 71
3
 72
8
 73
4
 74
0
 40
0
 40
0
 40
0
 40
0
 40
1
 40
1
 40
1
 40
1
 10
1.852083
 20
40.375159
 30
0.0
 10
1.258610
 20
40.049932
 30
0.0
 10
0.797791
 20
39.572948
 30
0.0
 10
0.476250
 20
38.946409
 30
0.0
  0
SPLINE
  5
102
100
AcDbEntity
  8
Dioxin
 62
7
100
AcDbSpline
 70
8
 71
3
 72
8
 73
4
 74
0
 40
0
 40
0
 40
0
 40
0
 40
1
 40
1
 40
1
 40
1
 10
0.476250
 20
38.946409
 30
0.0
 10
0.154709
 20
38.319853
 30
0.0
 10
0.000000
 20
37.600707
 30
0.0
 10
0.000000
 20
36.759188
 30
0.0
  0
SPLINE
  5
103
100
AcDbEntity
  8
Dioxin
 62
7
100
AcDbSpline
 70
8
 71
3
 72
8
 73
4
 74
0
 40
0
 40
0
 40
0
 40
0
 40
1
 40
1
 40
1
 40
1
 10
0.000000
 20
36.759188
 30
0.0
 10
0.000000
 20
35.987485
 30
0.0
 10
0.138537
 20
35.262083
 30
0.0
 10
0.423333
 20
34.589604
 30
0.0
  0
SPLINE
  5
104
100
AcDbEntity
  8
Dioxin
 62
7
100
AcDbSpline
 70
8
 71
3
 72
8
 73
4
 74
0
 40
0
 40
0
 40
0
 40
0
 40
1
 40
1
 40
1
 40
1
 10
0.423333
 20
34.589604
 30
0.0
 10
0.708124
 20
33.917120
 30
0.0
 10
1.129990
 20
33.391994
 30
0.0
 10
1.675694
 20
33.037382
 30
0.0
  0
SPLINE
  5
105
100
AcDbEntity
  8
Dioxin
 62
7
100
AcDbSpline
 70
8
 71
3
 72
8
 73
4
 74
0
 40
0
 40
0
 40
0
 40
0
 40
1
 40
1
 40
1
 40
1
 10
1.675694
 20
33.037382
 30
0.0
 10
2.221394
 20
32.682764
 30
0.0
 10
2.921435
 20
32.508215
 30
0.0
 10
3.792361
 20
32.508215
 30
0.0
  0
SPLINE
  5
106
100
AcDbEntity
  8
Dioxin
 62
7
100
AcDbSpline
 70
8
 71
3
 72
8
 73
4
 74
0
 40
0
 40
0
 40
0
 40
0
 40
1
 40
1
 40
1
 40
1
 10
3.792361
 20
32.508215
 30
0.0
 10
4.633874
 20
32.508215
 30
0.0
 10
5.344211
 20
32.734947
 30
0.0
 10
5.926667
 20
33.196132
 30
0.0
  0
SPLINE
  5
107
100
AcDbEntity
  8
Dioxin
 62
7
100
AcDbSpline
 70
8
 71
3
 72
8
 73
4
 74
0
 40
0
 40
0
 40
0
 40
0
 40
1
 40
1
 40
1
 40
1
 10
5.926667
 20
33.196132
 30
0.0
 10
6.509111
 20
33.657317
 30
0.0
 10
6.919581
 20
34.328695
 30
0.0
 10
7.143750
 20
35.206965
 30
0.0
  0
SPLINE
  5
108
100
AcDbEntity
  8
Dioxin
 62
7
100
AcDbSpline
 70
8
 71
3
 72
8
 73
4
 74
0
 40
0
 40
0
 40
0
 40
0
 40
1
 40
1
 40
1
 40
1
 10
6.067778
 20
35.489188
 30
0.0
 10
5.920780
 20
34.809354
 30
0.0
 10
5.653995
 20
34.282388
 30
0.0
 10
5.238750
 20
33.936965
 30
0.0
  0
SPLINE
  5
109
100
AcDbEntity
  8
Dioxin
 62
7
100
AcDbSpline
 70
8
 71
3
 72
8
 73
4
 74
0
 40
0
 40
0
 40
0
 40
0
 40
1
 40
1
 40
1
 40
1
 10
5.238750
 20
33.936965
 30
0.0
 10
4.823494
 20
33.591537
 30
0.0
 10
4.303149
 20
33.425438
 30
0.0
 10
3.704167
 20
33.425438
 30
0.0
  0
SPLINE
  5
10a
100
AcDbEntity
  8
Dioxin
 62
7
100
AcDbSpline
 70
8
 71
3
 72
8
 73
4
 74
0
 40
0
 40
0
 40
0
 40
0
 40
1
 40
1
 40
1
 40
1
 10
3.704167
 20
33.425438
 30
0.0
 10
3.211745
 20
33.425438
 30
0.0
 10
2.768566
 20
33.559933
 30
0.0
 10
2.345972
 20
33.813493
 30
0.0
  0
SPLINE
  5
10b
100
AcDbEntity
  8
Dioxin
 62
7
100
AcDbSpline
 70
8
 71
3
 72
8
 73
4
 74
0
 40
0
 40
0
 40
0
 40
0
 40
1
 40
1
 40
1
 40
1
 10
2.345972
 20
33.813493
 30
0.0
 10
1.923367
 20
34.067047
 30
0.0
 10
1.611387
 20
34.447387
 30
0.0
 10
1.411111
 20
34.960021
 30
0.0
  0
SPLINE
  5
10c
100
AcDbEntity
  8
Dioxin
 62
7
100
AcDbSpline
 70
8
 71
3
 72
8
 73
4
 74
0
 40
0
 40
0
 40
0
 40
0
 40
1
 40
1
 40
1
 40
1
 10
1.411111
 20
34.960021
 30
0.0
 10
1.210835
 20
35.472649
 30
0.0
 10
1.111244
 20
36.071999
 30
0.0
 10
1.111250
 20
36.759188
 30
0.0
  0
SPLINE
  5
10d
100
AcDbEntity
  8
Dioxin
 62
7
100
AcDbSpline
 70
8
 71
3
 72
8
 73
4
 74
0
 40
0
 40
0
 40
0
 40
0
 40
1
 40
1
 40
1
 40
1
 10
1.111250
 20
36.759188
 30
0.0
 10
1.111244
 20
37.292023
 30
0.0
 10
1.189149
 20
37.809799
 30
0.0
 10
1.358194
 20
38.311409
 30
0.0
  0
SPLINE
  5
10e
100
AcDbEntity
  8
Dioxin
 62
7
100
AcDbSpline
 70
8
 71
3
 72
8
 73
4
 74
0
 40
0
 40
0
 40
0
 40
0
 40
1
 40
1
 40
1
 40
1
 10
1.358194
 20
38.311409
 30
0.0
 10
1.527229
 20
38.813008
 30
0.0
 10
1.823054
 20
39.213194
 30
0.0
 10
2.240139
 20
39.510854
 30
0.0
  0
SPLINE
  5
10f
100
AcDbEntity
  8
Dioxin
 62
7
100
AcDbSpline
 70
8
 71
3
 72
8
 73
4
 74
0
 40
0
 40
0
 40
0
 40
0
 40
1
 40
1
 40
1
 40
1
 10
2.240139
 20
39.510854
 30
0.0
 10
2.657224
 20
39.808502
 30
0.0
 10
3.171320
 20
39.951820
 30
0.0
 10
3.792361
 20
39.951826
 30
0.0
  0
SPLINE
  5
110
100
AcDbEntity
  8
Dioxin
 62
7
100
AcDbSpline
 70
8
 71
3
 72
8
 73
4
 74
0
 40
0
 40
0
 40
0
 40
0
 40
1
 40
1
 40
1
 40
1
 10
3.792361
 20
39.951826
 30
0.0
 10
4.332546
 20
39.951820
 30
0.0
 10
4.776459
 20
39.814384
 30
0.0
 10
5.132917
 20
39.546132
 30
0.0
  0
SPLINE
  5
111
100
AcDbEntity
  8
Dioxin
 62
7
100
AcDbSpline
 70
8
 71
3
 72
8
 73
4
 74
0
 40
0
 40
0
 40
0
 40
0
 40
1
 40
1
 40
1
 40
1
 10
5.132917
 20
39.546132
 30
0.0
 10
5.489363
 20
39.277868
 30
0.0
 10
5.774521
 20
38.846446
 30
0.0
 10
5.961944
 20
38.258493
 30
0.0
  0
LWPOLYLINE
  5
112
100
AcDbEntity
  8
Dioxin
 62
7
100
AcDbPolyline
 90
2
 70
0
 10
7.143750
 20
35.206965
 30
0.0
 10
6.067778
 20
35.489188
 30
0.0
  0
SPLINE
  5
113
100
AcDbEntity
  8
Dioxin
 62
7
100
AcDbSpline
 70
8
 71
3
 72
8
 73
4
 74
0
 40
0
 40
0
 40
0
 40
0
 40
1
 40
1
 40
1
 40
1
 10
7.002639
 20
38.523076
 30
0.0
 10
6.785819
 20
39.269046
 30
0.0
 10
6.407319
 20
39.840105
 30
0.0
 10
5.856111
 20
40.251687
 30
0.0
  0
SPLINE
  5
114
100
AcDbEntity
  8
Dioxin
 62
7
100
AcDbSpline
 70
8
 71
3
 72
8
 73
4
 74
0
 40
0
 40
0
 40
0
 40
0
 40
1
 40
1
 40
1
 40
1
 10
5.856111
 20
40.251687
 30
0.0
 10
5.304886
 20
40.663257
 30
0.0
 10
4.618448
 20
40.869043
 30
0.0
 10
3.810000
 20
40.869048
 30
0.0
  0
LWPOLYLINE
  5
115
100
AcDbEntity
  8
Dioxin
 62
7
100
AcDbPolyline
 90
2
 70
0
 10
5.961944
 20
38.258493
 30
0.0
 10
7.002639
 20
38.523076
 30
0.0
  0
SPLINE
  5
116
100
AcDbEntity
  8
Dioxin
 62
7
100
AcDbSpline
 70
8
 71
3
 72
8
 73
4
 74
0
 40
0
 40
0
 40
0
 40
0
 40
1
 40
1
 40
1
 40
1
 10
121.814167
 20
40.869048
 30
0.0
 10
121.101262
 20
40.869043
 30
0.0
 10
120.449724
 20
40.700364
 30
0.0
 10
119.856250
 20
40.375159
 30
0.0
  0
SPLINE
  5
117
100
AcDbEntity
  8
Dioxin
 62
7
100
AcDbSpline
 70
8
 71
3
 72
8
 73
4
 74
0
 40
0
 40
0
 40
0
 40
0
 40
1
 40
1
 40
1
 40
1
 10
119.856250
 20
40.375159
 30
0.0
 10
119.262776
 20
40.049932
 30
0.0
 10
118.801958
 20
39.572948
 30
0.0
 10
118.480417
 20
38.946409
 30
0.0
  0
SPLINE
  5
118
100
AcDbEntity
  8
Dioxin
 62
7
100
AcDbSpline
 70
8
 71
3
 72
8
 73
4
 74
0
 40
0
 40
0
 40
0
 40
0
 40
1
 40
1
 40
1
 40
1
 10
118.480417
 20
38.946409
 30
0.0
 10
118.158875
 20
38.319853
 30
0.0
 10
118.004167
 20
37.600707
 30
0.0
 10
118.004167
 20
36.759188
 30
0.0
  0
SPLINE
  5
119
100
AcDbEntity
  8
Dioxin
 62
7
100
AcDbSpline
 70
8
 71
3
 72
8
 73
4
 74
0
 40
0
 40
0
 40
0
 40
0
 40
1
 40
1
 40
1
 40
1
 10
118.004167
 20
36.759188
 30
0.0
 10
118.004167
 20
35.987485
 30
0.0
 10
118.142704
 20
35.262083
 30
0.0
 10
118.427500
 20
34.589604
 30
0.0
  0
SPLINE
  5
11a
100
AcDbEntity
  8
Dioxin
 62
7
100
AcDbSpline
 70
8
 71
3
 72
8
 73
4
 74
0
 40
0
 40
0
 40
0
 40
0
 40
1
 40
1
 40
1
 40
1
 10
118.427500
 20
34.589604
 30
0.0
 10
118.712290
 20
33.917120
 30
0.0
 10
119.134156
 20
33.391994
 30
0.0
 10
119.679861
 20
33.037382
 30
0.0
  0
SPLINE
  5
11b
100
AcDbEntity
  8
Dioxin
 62
7
100
AcDbSpline
 70
8
 71
3
 72
8
 73
4
 74
0
 40
0
 40
0
 40
0
 40
0
 40
1
 40
1
 40
1
 40
1
 10
119.679861
 20
33.037382
 30
0.0
 10
120.225560
 20
32.682764
 30
0.0
 10
120.925601
 20
32.508215
 30
0.0
 10
121.796528
 20
32.508215
 30
0.0
  0
SPLINE
  5
11c
100
AcDbEntity
  8
Dioxin
 62
7
100
AcDbSpline
 70
8
 71
3
 72
8
 73
4
 74
0
 40
0
 40
0
 40
0
 40
0
 40
1
 40
1
 40
1
 40
1
 10
121.796528
 20
32.508215
 30
0.0
 10
122.638041
 20
32.508215
 30
0.0
 10
123.366011
 20
32.734947
 30
0.0
 10
123.948472
 20
33.196132
 30
0.0
  0
SPLINE
  5
11d
100
AcDbEntity
  8
Dioxin
 62
7
100
AcDbSpline
 70
8
 71
3
 72
8
 73
4
 74
0
 40
0
 40
0
 40
0
 40
0
 40
1
 40
1
 40
1
 40
1
 10
123.948472
 20
33.196132
 30
0.0
 10
124.530911
 20
33.657317
 30
0.0
 10
124.923748
 20
34.328695
 30
0.0
 10
125.147917
 20
35.206965
 30
0.0
  0
LWPOLYLINE
  5
11e
100
AcDbEntity
  8
Dioxin
 62
7
100
AcDbPolyline
 90
2
 70
0
 10
3.810000
 20
40.869048
 30
0.0
 10
3.810000
 20
40.869048
 30
0.0
  0
SPLINE
  5
11f
100
AcDbEntity
  8
Dioxin
 62
7
100
AcDbSpline
 70
8
 71
3
 72
8
 73
4
 74
0
 40
0
 40
0
 40
0
 40
0
 40
1
 40
1
 40
1
 40
1
 10
124.071944
 20
35.489188
 30
0.0
 10
123.924946
 20
34.809354
 30
0.0
 10
123.658156
 20
34.282388
 30
0.0
 10
123.242917
 20
33.936965
 30
0.0
  0
SPLINE
  5
120
100
AcDbEntity
  8
Dioxin
 62
7
100
AcDbSpline
 70
8
 71
3
 72
8
 73
4
 74
0
 40
0
 40
0
 40
0
 40
0
 40
1
 40
1
 40
1
 40
1
 10
123.242917
 20
33.936965
 30
0.0
 10
122.827661
 20
33.591537
 30
0.0
 10
122.307316
 20
33.425438
 30
0.0
 10
121.708333
 20
33.425438
 30
0.0
  0
SPLINE
  5
121
100
AcDbEntity
  8
Dioxin
 62
7
100
AcDbSpline
 70
8
 71
3
 72
8
 73
4
 74
0
 40
0
 40
0
 40
0
 40
0
 40
1
 40
1
 40
1
 40
1
 10
121.708333
 20
33.425438
 30
0.0
 10
121.215906
 20
33.425438
 30
0.0
 10
120.772733
 20
33.559933
 30
0.0
 10
120.350139
 20
33.813493
 30
0.0
  0
SPLINE
  5
122
100
AcDbEntity
  8
Dioxin
 62
7
100
AcDbSpline
 70
8
 71
3
 72
8
 73
4
 74
0
 40
0
 40
0
 40
0
 40
0
 40
1
 40
1
 40
1
 40
1
 10
120.350139
 20
33.813493
 30
0.0
 10
119.927534
 20
34.067047
 30
0.0
 10
119.615554
 20
34.447387
 30
0.0
 10
119.415278
 20
34.960021
 30
0.0
  0
SPLINE
  5
123
100
AcDbEntity
  8
Dioxin
 62
7
100
AcDbSpline
 70
8
 71
3
 72
8
 73
4
 74
0
 40
0
 40
0
 40
0
 40
0
 40
1
 40
1
 40
1
 40
1
 10
119.415278
 20
34.960021
 30
0.0
 10
119.215002
 20
35.472649
 30
0.0
 10
119.115411
 20
36.071999
 30
0.0
 10
119.115417
 20
36.759188
 30
0.0
  0
SPLINE
  5
124
100
AcDbEntity
  8
Dioxin
 62
7
100
AcDbSpline
 70
8
 71
3
 72
8
 73
4
 74
0
 40
0
 40
0
 40
0
 40
0
 40
1
 40
1
 40
1
 40
1
 10
119.115417
 20
36.759188
 30
0.0
 10
119.115411
 20
37.292023
 30
0.0
 10
119.193321
 20
37.809799
 30
0.0
 10
119.362361
 20
38.311409
 30
0.0
  0
SPLINE
  5
125
100
AcDbEntity
  8
Dioxin
 62
7
100
AcDbSpline
 70
8
 71
3
 72
8
 73
4
 74
0
 40
0
 40
0
 40
0
 40
0
 40
1
 40
1
 40
1
 40
1
 10
119.362361
 20
38.311409
 30
0.0
 10
119.531401
 20
38.813008
 30
0.0
 10
119.827215
 20
39.213194
 30
0.0
 10
120.244306
 20
39.510854
 30
0.0
  0
SPLINE
  5
126
100
AcDbEntity
  8
Dioxin
 62
7
100
AcDbSpline
 70
8
 71
3
 72
8
 73
4
 74
0
 40
0
 40
0
 40
0
 40
0
 40
1
 40
1
 40
1
 40
1
 10
120.244306
 20
39.510854
 30
0.0
 10
120.661390
 20
39.808502
 30
0.0
 10
121.175486
 20
39.951820
 30
0.0
 10
121.796528
 20
39.951826
 30
0.0
  0
SPLINE
  5
127
100
AcDbEntity
  8
Dioxin
 62
7
100
AcDbSpline
 70
8
 71
3
 72
8
 73
4
 74
0
 40
0
 40
0
 40
0
 40
0
 40
1
 40
1
 40
1
 40
1
 10
121.796528
 20
39.951826
 30
0.0
 10
122.336712
 20
39.951820
 30
0.0
 10
122.780625
 20
39.814384
 30
0.0
 10
123.137083
 20
39.546132
 30
0.0
  0
SPLINE
  5
128
100
AcDbEntity
  8
Dioxin
 62
7
100
AcDbSpline
 70
8
 71
3
 72
8
 73
4
 74
0
 40
0
 40
0
 40
0
 40
0
 40
1
 40
1
 40
1
 40
1
 10
123.137083
 20
39.546132
 30
0.0
 10
123.493530
 20
39.277868
 30
0.0
 10
123.778687
 20
38.846446
 30
0.0
 10
123.966111
 20
38.258493
 30
0.0
  0
LWPOLYLINE
  5
129
100
AcDbEntity
  8
Dioxin
 62
7
100
AcDbPolyline
 90
2
 70
0
 10
125.147917
 20
35.206965
 30
0.0
 10
124.071944
 20
35.489188
 30
0.0
  0
SPLINE
  5
12a
100
AcDbEntity
  8
Dioxin
 62
7
100
AcDbSpline
 70
8
 71
3
 72
8
 73
4
 74
0
 40
0
 40
0
 40
0
 40
0
 40
1
 40
1
 40
1
 40
1
 10
125.006806
 20
38.523076
 30
0.0
 10
124.789986
 20
39.269046
 30
0.0
 10
124.411486
 20
39.840105
 30
0.0
 10
123.860278
 20
40.251687
 30
0.0
  0
SPLINE
  5
12b
100
AcDbEntity
  8
Dioxin
 62
7
100
AcDbSpline
 70
8
 71
3
 72
8
 73
4
 74
0
 40
0
 40
0
 40
0
 40
0
 40
1
 40
1
 40
1
 40
1
 10
123.860278
 20
40.251687
 30
0.0
 10
123.309058
 20
40.663257
 30
0.0
 10
122.622615
 20
40.869043
 30
0.0
 10
121.814167
 20
40.869048
 30
0.0
  0
LWPOLYLINE
  5
12c
100
AcDbEntity
  8
Dioxin
 62
7
100
AcDbPolyline
 90
2
 70
0
 10
123.966111
 20
38.258493
 30
0.0
 10
125.006806
 20
38.523076
 30
0.0
  0
LWPOLYLINE
  5
12d
100
AcDbEntity
  8
Dioxin
 62
7
100
AcDbPolyline
 90
2
 70
0
 10
121.814167
 20
40.869048
 30
0.0
 10
121.814167
 20
40.869048
 30
0.0
  0
LWPOLYLINE
  5
12e
100
AcDbEntity
  8
Dioxin
 62
7
100
AcDbPolyline
 90
6
 70
0
 10
8.325556
 20
40.727937
 30
0.0
 10
8.325556
 20
32.649327
 30
0.0
 10
9.313333
 20
32.649327
 30
0.0
 10
9.313333
 20
40.727937
 30
0.0
 10
8.325556
 20
40.727937
 30
0.0
 10
8.325556
 20
40.727937
 30
0.0
  0
LWPOLYLINE
  5
12f
100
AcDbEntity
  8
Dioxin
 62
7
100
AcDbPolyline
 90
6
 70
0
 10
126.329722
 20
40.727937
 30
0.0
 10
126.329722
 20
32.649327
 30
0.0
 10
127.317500
 20
32.649327
 30
0.0
 10
127.317500
 20
40.727937
 30
0.0
 10
126.329722
 20
40.727937
 30
0.0
 10
126.329722
 20
40.727937
 30
0.0
  0
LWPOLYLINE
  5
130
100
AcDbEntity
  8
Dioxin
 62
7
100
AcDbPolyline
 90
20
 70
0
 10
93.345000
 20
37.147243
 30
0.0
 10
79.269167
 20
29.015715
 30
0.0
 10
70.537917
 20
34.060438
 30
0.0
 10
70.202778
 20
33.478354
 30
0.0
 10
78.934028
 20
28.433632
 30
0.0
 10
78.934028
 20
12.576271
 30
0.0
 10
70.149861
 20
7.496271
 30
0.0
 10
70.485000
 20
6.914188
 30
0.0
 10
79.269167
 20
11.994188
 30
0.0
 10
93.345000
 20
3.862660
 30
0.0
 10
107.420833
 20
11.994188
 30
0.0
 10
116.522500
 20
6.737799
 30
0.0
 10
116.857639
 20
7.319882
 30
0.0
 10
107.773611
 20
12.576271
 30
0.0
 10
107.773611
 20
28.433632
 30
0.0
 10
116.857639
 20
33.690021
 30
0.0
 10
116.522500
 20
34.272104
 30
0.0
 10
107.420833
 20
29.015715
 30
0.0
 10
93.345000
 20
37.147243
 30
0.0
 10
93.345000
 20
37.147243
 30
0.0
  0
LWPOLYLINE
  5
131
100
AcDbEntity
  8
Dioxin
 62
7
100
AcDbPolyline
 90
8
 70
0
 10
93.345000
 20
36.371132
 30
0.0
 10
107.085694
 20
28.433632
 30
0.0
 10
107.085694
 20
12.576271
 30
0.0
 10
93.345000
 20
4.638771
 30
0.0
 10
79.604306
 20
12.576271
 30
0.0
 10
79.604306
 20
28.433632
 30
0.0
 10
93.345000
 20
36.371132
 30
0.0
 10
93.345000
 20
36.371132
 30
0.0
  0
SPLINE
  5
132
100
AcDbEntity
  8
Dioxin
 62
7
100
AcDbSpline
 70
8
 71
3
 72
8
 73
4
 74
0
 40
0
 40
0
 40
0
 40
0
 40
1
 40
1
 40
1
 40
1
 10
40.965769
 20
34.880093
 30
0.0
 10
40.503136
 20
34.841448
 30
0.0
 10
40.076329
 20
34.822878
 30
0.0
 10
39.733251
 20
34.816153
 30
0.0
  0
LWPOLYLINE
  5
133
100
AcDbEntity
  8
Dioxin
 62
7
100
AcDbPolyline
 90
30
 70
0
 10
11.112500
 20
35.877243
 30
0.0
 10
10.759722
 20
35.277521
 30
0.0
 10
22.630694
 20
28.433632
 30
0.0
 10
22.630694
 20
12.576271
 30
0.0
 10
10.759722
 20
5.732382
 30
0.0
 10
11.112500
 20
5.150299
 30
0.0
 10
22.965833
 20
11.994188
 30
0.0
 10
37.041667
 20
3.862660
 30
0.0
 10
51.117500
 20
11.994188
 30
0.0
 10
59.972222
 20
6.878910
 30
0.0
 10
60.307361
 20
7.460993
 30
0.0
 10
51.452639
 20
12.576271
 30
0.0
 10
51.452639
 20
28.433632
 30
0.0
 10
60.254444
 20
33.513632
 30
0.0
 10
59.901667
 20
34.095715
 30
0.0
 10
51.117500
 20
29.015715
 30
0.0
 10
48.388434
 20
30.592192
 30
0.0
 10
48.735700
 20
30.036567
 30
0.0
 10
44.689779
 20
31.953141
 30
0.0
 10
50.782361
 20
28.433632
 30
0.0
 10
50.782361
 20
12.576271
 30
0.0
 10
37.041667
 20
4.638771
 30
0.0
 10
23.300972
 20
12.576271
 30
0.0
 10
23.300972
 20
28.433632
 30
0.0
 10
32.134198
 20
33.536232
 30
0.0
 10
31.160751
 20
33.647578
 30
0.0
 10
31.338243
 20
33.852629
 30
0.0
 10
22.965833
 20
29.015715
 30
0.0
 10
11.112500
 20
35.877243
 30
0.0
 10
11.112500
 20
35.877243
 30
0.0
  0
LWPOLYLINE
  5
134
100
AcDbEntity
  8
Dioxin
 62
7
100
AcDbPolyline
 90
5
 70
0
 10
39.733251
 20
34.816153
 30
0.0
 10
39.990118
 20
34.667876
 30
0.0
 10
41.754007
 20
34.424789
 30
0.0
 10
40.965769
 20
34.880093
 30
0.0
 10
40.965769
 20
34.880093
 30
0.0
  0
LWPOLYLINE
  5
135
100
AcDbEntity
  8
Dioxin
 62
7
100
AcDbPolyline
 90
6
 70
0
 10
93.168611
 20
33.690021
 30
0.0
 10
82.020833
 20
27.251827
 30
0.0
 10
82.355972
 20
26.669743
 30
0.0
 10
93.503750
 20
33.090299
 30
0.0
 10
93.168611
 20
33.690021
 30
0.0
 10
93.168611
 20
33.690021
 30
0.0
  0
LWPOLYLINE
  5
136
100
AcDbEntity
  8
Dioxin
 62
7
100
AcDbPolyline
 90
6
 70
0
 10
37.072536
 20
32.970684
 30
0.0
 10
48.013056
 20
26.669743
 30
0.0
 10
48.348194
 20
27.251827
 30
0.0
 10
38.785159
 20
32.775003
 30
0.0
 10
37.072536
 20
32.970684
 30
0.0
 10
37.072536
 20
32.970684
 30
0.0
  0
LWPOLYLINE
  5
137
100
AcDbEntity
  8
Dioxin
 62
7
100
AcDbPolyline
 90
6
 70
0
 10
25.541111
 20
26.951965
 30
0.0
 10
25.541111
 20
14.075577
 30
0.0
 10
26.211389
 20
14.075577
 30
0.0
 10
26.211389
 20
26.951965
 30
0.0
 10
25.541111
 20
26.951965
 30
0.0
 10
25.541111
 20
26.951965
 30
0.0
  0
LWPOLYLINE
  5
138
100
AcDbEntity
  8
Dioxin
 62
7
100
AcDbPolyline
 90
6
 70
0
 10
104.157639
 20
26.951965
 30
0.0
 10
104.157639
 20
14.075577
 30
0.0
 10
104.827917
 20
14.075577
 30
0.0
 10
104.827917
 20
26.951965
 30
0.0
 10
104.157639
 20
26.951965
 30
0.0
 10
104.157639
 20
26.951965
 30
0.0
  0
LWPOLYLINE
  5
139
100
AcDbEntity
  8
Dioxin
 62
7
100
AcDbPolyline
 90
6
 70
0
 10
48.013056
 20
14.375438
 30
0.0
 10
36.865278
 20
7.937243
 30
0.0
 10
37.200417
 20
7.337521
 30
0.0
 10
48.348194
 20
13.775715
 30
0.0
 10
48.013056
 20
14.375438
 30
0.0
 10
48.013056
 20
14.375438
 30
0.0
  0
SPLINE
  5
13a
100
AcDbEntity
  8
Dioxin
 62
7
100
AcDbSpline
 70
8
 71
3
 72
8
 73
4
 74
0
 40
0
 40
0
 40
0
 40
0
 40
1
 40
1
 40
1
 40
1
 10
3.810000
 20
8.360577
 30
0.0
 10
3.097095
 20
8.360565
 30
0.0
 10
2.445557
 20
8.191898
 30
0.0
 10
1.852083
 20
7.866688
 30
0.0
  0
SPLINE
  5
13b
100
AcDbEntity
  8
Dioxin
 62
7
100
AcDbSpline
 70
8
 71
3
 72
8
 73
4
 74
0
 40
0
 40
0
 40
0
 40
0
 40
1
 40
1
 40
1
 40
1
 10
1.852083
 20
7.866688
 30
0.0
 10
1.258610
 20
7.541460
 30
0.0
 10
0.797791
 20
7.064482
 30
0.0
 10
0.476250
 20
6.437938
 30
0.0
  0
SPLINE
  5
13c
100
AcDbEntity
  8
Dioxin
 62
7
100
AcDbSpline
 70
8
 71
3
 72
8
 73
4
 74
0
 40
0
 40
0
 40
0
 40
0
 40
1
 40
1
 40
1
 40
1
 10
0.476250
 20
6.437938
 30
0.0
 10
0.154709
 20
5.811387
 30
0.0
 10
0.000000
 20
5.074590
 30
0.0
 10
0.000000
 20
4.233077
 30
0.0
  0
SPLINE
  5
13d
100
AcDbEntity
  8
Dioxin
 62
7
100
AcDbSpline
 70
8
 71
3
 72
8
 73
4
 74
0
 40
0
 40
0
 40
0
 40
0
 40
1
 40
1
 40
1
 40
1
 10
0.000000
 20
4.233077
 30
0.0
 10
0.000000
 20
3.461368
 30
0.0
 10
0.138537
 20
2.735981
 30
0.0
 10
0.423333
 20
2.063493
 30
0.0
  0
SPLINE
  5
13e
100
AcDbEntity
  8
Dioxin
 62
7
100
AcDbSpline
 70
8
 71
3
 72
8
 73
4
 74
0
 40
0
 40
0
 40
0
 40
0
 40
1
 40
1
 40
1
 40
1
 10
0.423333
 20
2.063493
 30
0.0
 10
0.708124
 20
1.391014
 30
0.0
 10
1.129990
 20
0.883528
 30
0.0
 10
1.675694
 20
0.528910
 30
0.0
  0
SPLINE
  5
13f
100
AcDbEntity
  8
Dioxin
 62
7
100
AcDbSpline
 70
8
 71
3
 72
8
 73
4
 74
0
 40
0
 40
0
 40
0
 40
0
 40
1
 40
1
 40
1
 40
1
 10
1.675694
 20
0.528910
 30
0.0
 10
2.221394
 20
0.174300
 30
0.0
 10
2.921435
 20
-0.000257
 30
0.0
 10
3.792361
 20
-0.000257
 30
0.0
  0
SPLINE
  5
140
100
AcDbEntity
  8
Dioxin
 62
7
100
AcDbSpline
 70
8
 71
3
 72
8
 73
4
 74
0
 40
0
 40
0
 40
0
 40
0
 40
1
 40
1
 40
1
 40
1
 10
3.792361
 20
-0.000257
 30
0.0
 10
4.633874
 20
-0.000257
 30
0.0
 10
5.344211
 20
0.226478
 30
0.0
 10
5.926667
 20
0.687660
 30
0.0
  0
SPLINE
  5
141
100
AcDbEntity
  8
Dioxin
 62
7
100
AcDbSpline
 70
8
 71
3
 72
8
 73
4
 74
0
 40
0
 40
0
 40
0
 40
0
 40
1
 40
1
 40
1
 40
1
 10
5.926667
 20
0.687660
 30
0.0
 10
6.509111
 20
1.148839
 30
0.0
 10
6.919581
 20
1.820220
 30
0.0
 10
7.143750
 20
2.698493
 30
0.0
  0
LWPOLYLINE
  5
142
100
AcDbEntity
  8
Dioxin
 62
7
100
AcDbPolyline
 90
6
 70
0
 10
82.355972
 20
14.375438
 30
0.0
 10
82.020833
 20
13.775715
 30
0.0
 10
93.168611
 20
7.337521
 30
0.0
 10
93.503750
 20
7.937243
 30
0.0
 10
82.355972
 20
14.375438
 30
0.0
 10
82.355972
 20
14.375438
 30
0.0
  0
SPLINE
  5
143
100
AcDbEntity
  8
Dioxin
 62
7
100
AcDbSpline
 70
8
 71
3
 72
8
 73
4
 74
0
 40
0
 40
0
 40
0
 40
0
 40
1
 40
1
 40
1
 40
1
 10
6.067778
 20
2.963077
 30
0.0
 10
5.920780
 20
2.283243
 30
0.0
 10
5.653995
 20
1.773925
 30
0.0
 10
5.238750
 20
1.428493
 30
0.0
  0
SPLINE
  5
144
100
AcDbEntity
  8
Dioxin
 62
7
100
AcDbSpline
 70
8
 71
3
 72
8
 73
4
 74
0
 40
0
 40
0
 40
0
 40
0
 40
1
 40
1
 40
1
 40
1
 10
5.238750
 20
1.428493
 30
0.0
 10
4.823494
 20
1.083064
 30
0.0
 10
4.303149
 20
0.916965
 30
0.0
 10
3.704167
 20
0.916965
 30
0.0
  0
SPLINE
  5
145
100
AcDbEntity
  8
Dioxin
 62
7
100
AcDbSpline
 70
8
 71
3
 72
8
 73
4
 74
0
 40
0
 40
0
 40
0
 40
0
 40
1
 40
1
 40
1
 40
1
 10
3.704167
 20
0.916965
 30
0.0
 10
3.211745
 20
0.916965
 30
0.0
 10
2.768566
 20
1.033825
 30
0.0
 10
2.345972
 20
1.287382
 30
0.0
  0
SPLINE
  5
146
100
AcDbEntity
  8
Dioxin
 62
7
100
AcDbSpline
 70
8
 71
3
 72
8
 73
4
 74
0
 40
0
 40
0
 40
0
 40
0
 40
1
 40
1
 40
1
 40
1
 10
2.345972
 20
1.287382
 30
0.0
 10
1.923367
 20
1.540942
 30
0.0
 10
1.611387
 20
1.938923
 30
0.0
 10
1.411111
 20
2.451549
 30
0.0
  0
SPLINE
  5
147
100
AcDbEntity
  8
Dioxin
 62
7
100
AcDbSpline
 70
8
 71
3
 72
8
 73
4
 74
0
 40
0
 40
0
 40
0
 40
0
 40
1
 40
1
 40
1
 40
1
 10
1.411111
 20
2.451549
 30
0.0
 10
1.210835
 20
2.964177
 30
0.0
 10
1.111244
 20
3.563533
 30
0.0
 10
1.111250
 20
4.250715
 30
0.0
  0
SPLINE
  5
148
100
AcDbEntity
  8
Dioxin
 62
7
100
AcDbSpline
 70
8
 71
3
 72
8
 73
4
 74
0
 40
0
 40
0
 40
0
 40
0
 40
1
 40
1
 40
1
 40
1
 10
1.111250
 20
4.250715
 30
0.0
 10
1.111244
 20
4.783551
 30
0.0
 10
1.189149
 20
5.301327
 30
0.0
 10
1.358194
 20
5.802938
 30
0.0
  0
SPLINE
  5
149
100
AcDbEntity
  8
Dioxin
 62
7
100
AcDbSpline
 70
8
 71
3
 72
8
 73
4
 74
0
 40
0
 40
0
 40
0
 40
0
 40
1
 40
1
 40
1
 40
1
 10
1.358194
 20
5.802938
 30
0.0
 10
1.527229
 20
6.304542
 30
0.0
 10
1.823054
 20
6.704717
 30
0.0
 10
2.240139
 20
7.002382
 30
0.0
  0
SPLINE
  5
14a
100
AcDbEntity
  8
Dioxin
 62
7
100
AcDbSpline
 70
8
 71
3
 72
8
 73
4
 74
0
 40
0
 40
0
 40
0
 40
0
 40
1
 40
1
 40
1
 40
1
 10
2.240139
 20
7.002382
 30
0.0
 10
2.657224
 20
7.300031
 30
0.0
 10
3.171320
 20
7.443349
 30
0.0
 10
3.792361
 20
7.443354
 30
0.0
  0
SPLINE
  5
14b
100
AcDbEntity
  8
Dioxin
 62
7
100
AcDbSpline
 70
8
 71
3
 72
8
 73
4
 74
0
 40
0
 40
0
 40
0
 40
0
 40
1
 40
1
 40
1
 40
1
 10
3.792361
 20
7.443354
 30
0.0
 10
4.332546
 20
7.443349
 30
0.0
 10
4.776459
 20
7.305912
 30
0.0
 10
5.132917
 20
7.037660
 30
0.0
  0
SPLINE
  5
14c
100
AcDbEntity
  8
Dioxin
 62
7
100
AcDbSpline
 70
8
 71
3
 72
8
 73
4
 74
0
 40
0
 40
0
 40
0
 40
0
 40
1
 40
1
 40
1
 40
1
 10
5.132917
 20
7.037660
 30
0.0
 10
5.489363
 20
6.769396
 30
0.0
 10
5.774521
 20
6.337980
 30
0.0
 10
5.961944
 20
5.750021
 30
0.0
  0
LWPOLYLINE
  5
14d
100
AcDbEntity
  8
Dioxin
 62
7
100
AcDbPolyline
 90
2
 70
0
 10
7.143750
 20
2.698493
 30
0.0
 10
6.067778
 20
2.963077
 30
0.0
  0
SPLINE
  5
14e
100
AcDbEntity
  8
Dioxin
 62
7
100
AcDbSpline
 70
8
 71
3
 72
8
 73
4
 74
0
 40
0
 40
0
 40
0
 40
0
 40
1
 40
1
 40
1
 40
1
 10
7.002639
 20
5.996965
 30
0.0
 10
6.785819
 20
6.742935
 30
0.0
 10
6.407319
 20
7.331634
 30
0.0
 10
5.856111
 20
7.743215
 30
0.0
  0
SPLINE
  5
14f
100
AcDbEntity
  8
Dioxin
 62
7
100
AcDbSpline
 70
8
 71
3
 72
8
 73
4
 74
0
 40
0
 40
0
 40
0
 40
0
 40
1
 40
1
 40
1
 40
1
 10
5.856111
 20
7.743215
 30
0.0
 10
5.304886
 20
8.154780
 30
0.0
 10
4.618448
 20
8.360565
 30
0.0
 10
3.810000
 20
8.360577
 30
0.0
  0
LWPOLYLINE
  5
150
100
AcDbEntity
  8
Dioxin
 62
7
100
AcDbPolyline
 90
2
 70
0
 10
5.961944
 20
5.750021
 30
0.0
 10
7.002639
 20
5.996965
 30
0.0
  0
SPLINE
  5
151
100
AcDbEntity
  8
Dioxin
 62
7
100
AcDbSpline
 70
8
 71
3
 72
8
 73
4
 74
0
 40
0
 40
0
 40
0
 40
0
 40
1
 40
1
 40
1
 40
1
 10
65.193333
 20
8.360577
 30
0.0
 10
64.054149
 20
8.360571
 30
0.0
 10
63.126643
 20
7.990521
 30
0.0
 10
62.406389
 20
7.231688
 30
0.0
  0
SPLINE
  5
152
100
AcDbEntity
  8
Dioxin
 62
7
100
AcDbSpline
 70
8
 71
3
 72
8
 73
4
 74
0
 40
0
 40
0
 40
0
 40
0
 40
1
 40
1
 40
1
 40
1
 10
62.406389
 20
7.231688
 30
0.0
 10
61.686135
 20
6.472843
 30
0.0
 10
61.330417
 20
5.415610
 30
0.0
 10
61.330417
 20
4.074327
 30
0.0
  0
SPLINE
  5
153
100
AcDbEntity
  8
Dioxin
 62
7
100
AcDbSpline
 70
8
 71
3
 72
8
 73
4
 74
0
 40
0
 40
0
 40
0
 40
0
 40
1
 40
1
 40
1
 40
1
 10
61.330417
 20
4.074327
 30
0.0
 10
61.330417
 20
3.365091
 30
0.0
 10
61.480350
 20
2.699227
 30
0.0
 10
61.789028
 20
2.063493
 30
0.0
  0
SPLINE
  5
154
100
AcDbEntity
  8
Dioxin
 62
7
100
AcDbSpline
 70
8
 71
3
 72
8
 73
4
 74
0
 40
0
 40
0
 40
0
 40
0
 40
1
 40
1
 40
1
 40
1
 10
61.789028
 20
2.063493
 30
0.0
 10
62.097706
 20
1.427754
 30
0.0
 10
62.548234
 20
0.914025
 30
0.0
 10
63.147222
 20
0.546549
 30
0.0
  0
SPLINE
  5
155
100
AcDbEntity
  8
Dioxin
 62
7
100
AcDbSpline
 70
8
 71
3
 72
8
 73
4
 74
0
 40
0
 40
0
 40
0
 40
0
 40
1
 40
1
 40
1
 40
1
 10
63.147222
 20
0.546549
 30
0.0
 10
63.746205
 20
0.179076
 30
0.0
 10
64.432654
 20
-0.000257
 30
0.0
 10
65.193333
 20
-0.000257
 30
0.0
  0
SPLINE
  5
156
100
AcDbEntity
  8
Dioxin
 62
7
100
AcDbSpline
 70
8
 71
3
 72
8
 73
4
 74
0
 40
0
 40
0
 40
0
 40
0
 40
1
 40
1
 40
1
 40
1
 10
65.193333
 20
-0.000257
 30
0.0
 10
65.895209
 20
-0.000257
 30
0.0
 10
66.544912
 20
0.161067
 30
0.0
 10
67.151250
 20
0.493632
 30
0.0
  0
SPLINE
  5
157
100
AcDbEntity
  8
Dioxin
 62
7
100
AcDbSpline
 70
8
 71
3
 72
8
 73
4
 74
0
 40
0
 40
0
 40
0
 40
0
 40
1
 40
1
 40
1
 40
1
 10
67.151250
 20
0.493632
 30
0.0
 10
67.757582
 20
0.826200
 30
0.0
 10
68.231625
 20
1.328536
 30
0.0
 10
68.562361
 20
1.975299
 30
0.0
  0
SPLINE
  5
158
100
AcDbEntity
  8
Dioxin
 62
7
100
AcDbSpline
 70
8
 71
3
 72
8
 73
4
 74
0
 40
0
 40
0
 40
0
 40
0
 40
1
 40
1
 40
1
 40
1
 10
68.562361
 20
1.975299
 30
0.0
 10
68.893080
 20
2.622059
 30
0.0
 10
69.056239
 20
3.343044
 30
0.0
 10
69.056250
 20
4.162521
 30
0.0
  0
SPLINE
  5
159
100
AcDbEntity
  8
Dioxin
 62
7
100
AcDbSpline
 70
8
 71
3
 72
8
 73
4
 74
0
 40
0
 40
0
 40
0
 40
0
 40
1
 40
1
 40
1
 40
1
 10
69.056250
 20
4.162521
 30
0.0
 10
69.056239
 20
4.970969
 30
0.0
 10
68.894187
 20
5.694525
 30
0.0
 10
68.580000
 20
6.332104
 30
0.0
  0
SPLINE
  5
15a
100
AcDbEntity
  8
Dioxin
 62
7
100
AcDbSpline
 70
8
 71
3
 72
8
 73
4
 74
0
 40
0
 40
0
 40
0
 40
0
 40
1
 40
1
 40
1
 40
1
 10
68.580000
 20
6.332104
 30
0.0
 10
68.265802
 20
6.969667
 30
0.0
 10
67.803144
 20
7.474946
 30
0.0
 10
67.204167
 20
7.831410
 30
0.0
  0
SPLINE
  5
15b
100
AcDbEntity
  8
Dioxin
 62
7
100
AcDbSpline
 70
8
 71
3
 72
8
 73
4
 74
0
 40
0
 40
0
 40
0
 40
0
 40
1
 40
1
 40
1
 40
1
 10
67.204167
 20
7.831410
 30
0.0
 10
66.605173
 20
8.187851
 30
0.0
 10
65.939303
 20
8.360571
 30
0.0
 10
65.193333
 20
8.360577
 30
0.0
  0
LWPOLYLINE
  5
15c
100
AcDbEntity
  8
Dioxin
 62
7
100
AcDbPolyline
 90
2
 70
0
 10
3.810000
 20
8.360577
 30
0.0
 10
3.810000
 20
8.360577
 30
0.0
  0
SPLINE
  5
15d
100
AcDbEntity
  8
Dioxin
 62
7
100
AcDbSpline
 70
8
 71
3
 72
8
 73
4
 74
0
 40
0
 40
0
 40
0
 40
0
 40
1
 40
1
 40
1
 40
1
 10
121.814167
 20
8.360577
 30
0.0
 10
121.101262
 20
8.360565
 30
0.0
 10
120.449724
 20
8.191898
 30
0.0
 10
119.856250
 20
7.866688
 30
0.0
  0
SPLINE
  5
15e
100
AcDbEntity
  8
Dioxin
 62
7
100
AcDbSpline
 70
8
 71
3
 72
8
 73
4
 74
0
 40
0
 40
0
 40
0
 40
0
 40
1
 40
1
 40
1
 40
1
 10
119.856250
 20
7.866688
 30
0.0
 10
119.262776
 20
7.541460
 30
0.0
 10
118.801958
 20
7.064482
 30
0.0
 10
118.480417
 20
6.437938
 30
0.0
  0
SPLINE
  5
15f
100
AcDbEntity
  8
Dioxin
 62
7
100
AcDbSpline
 70
8
 71
3
 72
8
 73
4
 74
0
 40
0
 40
0
 40
0
 40
0
 40
1
 40
1
 40
1
 40
1
 10
118.480417
 20
6.437938
 30
0.0
 10
118.158875
 20
5.811387
 30
0.0
 10
118.004167
 20
5.074590
 30
0.0
 10
118.004167
 20
4.233077
 30
0.0
  0
SPLINE
  5
160
100
AcDbEntity
  8
Dioxin
 62
7
100
AcDbSpline
 70
8
 71
3
 72
8
 73
4
 74
0
 40
0
 40
0
 40
0
 40
0
 40
1
 40
1
 40
1
 40
1
 10
118.004167
 20
4.233077
 30
0.0
 10
118.004167
 20
3.461368
 30
0.0
 10
118.142704
 20
2.735981
 30
0.0
 10
118.427500
 20
2.063493
 30
0.0
  0
SPLINE
  5
161
100
AcDbEntity
  8
Dioxin
 62
7
100
AcDbSpline
 70
8
 71
3
 72
8
 73
4
 74
0
 40
0
 40
0
 40
0
 40
0
 40
1
 40
1
 40
1
 40
1
 10
118.427500
 20
2.063493
 30
0.0
 10
118.712290
 20
1.391014
 30
0.0
 10
119.134156
 20
0.883528
 30
0.0
 10
119.679861
 20
0.528910
 30
0.0
  0
SPLINE
  5
162
100
AcDbEntity
  8
Dioxin
 62
7
100
AcDbSpline
 70
8
 71
3
 72
8
 73
4
 74
0
 40
0
 40
0
 40
0
 40
0
 40
1
 40
1
 40
1
 40
1
 10
119.679861
 20
0.528910
 30
0.0
 10
120.225560
 20
0.174300
 30
0.0
 10
120.925601
 20
-0.000257
 30
0.0
 10
121.796528
 20
-0.000257
 30
0.0
  0
SPLINE
  5
163
100
AcDbEntity
  8
Dioxin
 62
7
100
AcDbSpline
 70
8
 71
3
 72
8
 73
4
 74
0
 40
0
 40
0
 40
0
 40
0
 40
1
 40
1
 40
1
 40
1
 10
121.796528
 20
-0.000257
 30
0.0
 10
122.638041
 20
-0.000257
 30
0.0
 10
123.366011
 20
0.226478
 30
0.0
 10
123.948472
 20
0.687660
 30
0.0
  0
SPLINE
  5
164
100
AcDbEntity
  8
Dioxin
 62
7
100
AcDbSpline
 70
8
 71
3
 72
8
 73
4
 74
0
 40
0
 40
0
 40
0
 40
0
 40
1
 40
1
 40
1
 40
1
 10
123.948472
 20
0.687660
 30
0.0
 10
124.530911
 20
1.148839
 30
0.0
 10
124.923748
 20
1.820220
 30
0.0
 10
125.147917
 20
2.698493
 30
0.0
  0
LWPOLYLINE
  5
165
100
AcDbEntity
  8
Dioxin
 62
7
100
AcDbPolyline
 90
2
 70
0
 10
65.193333
 20
8.360577
 30
0.0
 10
65.193333
 20
8.360577
 30
0.0
  0
SPLINE
  5
166
100
AcDbEntity
  8
Dioxin
 62
7
100
AcDbSpline
 70
8
 71
3
 72
8
 73
4
 74
0
 40
0
 40
0
 40
0
 40
0
 40
1
 40
1
 40
1
 40
1
 10
124.071944
 20
2.963077
 30
0.0
 10
123.924946
 20
2.283243
 30
0.0
 10
123.658156
 20
1.773925
 30
0.0
 10
123.242917
 20
1.428493
 30
0.0
  0
SPLINE
  5
167
100
AcDbEntity
  8
Dioxin
 62
7
100
AcDbSpline
 70
8
 71
3
 72
8
 73
4
 74
0
 40
0
 40
0
 40
0
 40
0
 40
1
 40
1
 40
1
 40
1
 10
123.242917
 20
1.428493
 30
0.0
 10
122.827661
 20
1.083064
 30
0.0
 10
122.307316
 20
0.916965
 30
0.0
 10
121.708333
 20
0.916965
 30
0.0
  0
SPLINE
  5
168
100
AcDbEntity
  8
Dioxin
 62
7
100
AcDbSpline
 70
8
 71
3
 72
8
 73
4
 74
0
 40
0
 40
0
 40
0
 40
0
 40
1
 40
1
 40
1
 40
1
 10
121.708333
 20
0.916965
 30
0.0
 10
121.215906
 20
0.916965
 30
0.0
 10
120.772733
 20
1.033825
 30
0.0
 10
120.350139
 20
1.287382
 30
0.0
  0
SPLINE
  5
169
100
AcDbEntity
  8
Dioxin
 62
7
100
AcDbSpline
 70
8
 71
3
 72
8
 73
4
 74
0
 40
0
 40
0
 40
0
 40
0
 40
1
 40
1
 40
1
 40
1
 10
120.350139
 20
1.287382
 30
0.0
 10
119.927534
 20
1.540942
 30
0.0
 10
119.615554
 20
1.938923
 30
0.0
 10
119.415278
 20
2.451549
 30
0.0
  0
SPLINE
  5
16a
100
AcDbEntity
  8
Dioxin
 62
7
100
AcDbSpline
 70
8
 71
3
 72
8
 73
4
 74
0
 40
0
 40
0
 40
0
 40
0
 40
1
 40
1
 40
1
 40
1
 10
119.415278
 20
2.451549
 30
0.0
 10
119.215002
 20
2.964177
 30
0.0
 10
119.115411
 20
3.563533
 30
0.0
 10
119.115417
 20
4.250715
 30
0.0
  0
SPLINE
  5
16b
100
AcDbEntity
  8
Dioxin
 62
7
100
AcDbSpline
 70
8
 71
3
 72
8
 73
4
 74
0
 40
0
 40
0
 40
0
 40
0
 40
1
 40
1
 40
1
 40
1
 10
119.115417
 20
4.250715
 30
0.0
 10
119.115411
 20
4.783551
 30
0.0
 10
119.193321
 20
5.301327
 30
0.0
 10
119.362361
 20
5.802938
 30
0.0
  0
SPLINE
  5
16c
100
AcDbEntity
  8
Dioxin
 62
7
100
AcDbSpline
 70
8
 71
3
 72
8
 73
4
 74
0
 40
0
 40
0
 40
0
 40
0
 40
1
 40
1
 40
1
 40
1
 10
119.362361
 20
5.802938
 30
0.0
 10
119.531401
 20
6.304542
 30
0.0
 10
119.827215
 20
6.704717
 30
0.0
 10
120.244306
 20
7.002382
 30
0.0
  0
SPLINE
  5
16d
100
AcDbEntity
  8
Dioxin
 62
7
100
AcDbSpline
 70
8
 71
3
 72
8
 73
4
 74
0
 40
0
 40
0
 40
0
 40
0
 40
1
 40
1
 40
1
 40
1
 10
120.244306
 20
7.002382
 30
0.0
 10
120.661390
 20
7.300031
 30
0.0
 10
121.175486
 20
7.443349
 30
0.0
 10
121.796528
 20
7.443354
 30
0.0
  0
SPLINE
  5
16e
100
AcDbEntity
  8
Dioxin
 62
7
100
AcDbSpline
 70
8
 71
3
 72
8
 73
4
 74
0
 40
0
 40
0
 40
0
 40
0
 40
1
 40
1
 40
1
 40
1
 10
121.796528
 20
7.443354
 30
0.0
 10
122.336712
 20
7.443349
 30
0.0
 10
122.780625
 20
7.305912
 30
0.0
 10
123.137083
 20
7.037660
 30
0.0
  0
SPLINE
  5
16f
100
AcDbEntity
  8
Dioxin
 62
7
100
AcDbSpline
 70
8
 71
3
 72
8
 73
4
 74
0
 40
0
 40
0
 40
0
 40
0
 40
1
 40
1
 40
1
 40
1
 10
123.137083
 20
7.037660
 30
0.0
 10
123.493530
 20
6.769396
 30
0.0
 10
123.778687
 20
6.337980
 30
0.0
 10
123.966111
 20
5.750021
 30
0.0
  0
LWPOLYLINE
  5
170
100
AcDbEntity
  8
Dioxin
 62
7
100
AcDbPolyline
 90
2
 70
0
 10
125.147917
 20
2.698493
 30
0.0
 10
124.071944
 20
2.963077
 30
0.0
  0
SPLINE
  5
171
100
AcDbEntity
  8
Dioxin
 62
7
100
AcDbSpline
 70
8
 71
3
 72
8
 73
4
 74
0
 40
0
 40
0
 40
0
 40
0
 40
1
 40
1
 40
1
 40
1
 10
125.006806
 20
5.996965
 30
0.0
 10
124.789986
 20
6.742935
 30
0.0
 10
124.411486
 20
7.331634
 30
0.0
 10
123.860278
 20
7.743215
 30
0.0
  0
SPLINE
  5
172
100
AcDbEntity
  8
Dioxin
 62
7
100
AcDbSpline
 70
8
 71
3
 72
8
 73
4
 74
0
 40
0
 40
0
 40
0
 40
0
 40
1
 40
1
 40
1
 40
1
 10
123.860278
 20
7.743215
 30
0.0
 10
123.309058
 20
8.154780
 30
0.0
 10
122.622615
 20
8.360565
 30
0.0
 10
121.814167
 20
8.360577
 30
0.0
  0
LWPOLYLINE
  5
173
100
AcDbEntity
  8
Dioxin
 62
7
100
AcDbPolyline
 90
2
 70
0
 10
123.966111
 20
5.750021
 30
0.0
 10
125.006806
 20
5.996965
 30
0.0
  0
LWPOLYLINE
  5
174
100
AcDbEntity
  8
Dioxin
 62
7
100
AcDbPolyline
 90
2
 70
0
 10
121.814167
 20
8.360577
 30
0.0
 10
121.814167
 20
8.360577
 30
0.0
  0
LWPOLYLINE
  5
175
100
AcDbEntity
  8
Dioxin
 62
7
100
AcDbPolyline
 90
6
 70
0
 10
8.325556
 20
8.219465
 30
0.0
 10
8.325556
 20
0.140854
 30
0.0
 10
9.313333
 20
0.140854
 30
0.0
 10
9.313333
 20
8.219465
 30
0.0
 10
8.325556
 20
8.219465
 30
0.0
 10
8.325556
 20
8.219465
 30
0.0
  0
SPLINE
  5
176
100
AcDbEntity
  8
Dioxin
 62
7
100
AcDbSpline
 70
8
 71
3
 72
8
 73
4
 74
0
 40
0
 40
0
 40
0
 40
0
 40
1
 40
1
 40
1
 40
1
 10
65.193333
 20
7.443354
 30
0.0
 10
65.726175
 20
7.443349
 30
0.0
 10
66.211608
 20
7.307747
 30
0.0
 10
66.639722
 20
7.037660
 30
0.0
  0
SPLINE
  5
177
100
AcDbEntity
  8
Dioxin
 62
7
100
AcDbSpline
 70
8
 71
3
 72
8
 73
4
 74
0
 40
0
 40
0
 40
0
 40
0
 40
1
 40
1
 40
1
 40
1
 10
66.639722
 20
7.037660
 30
0.0
 10
67.067831
 20
6.767556
 30
0.0
 10
67.387532
 20
6.381708
 30
0.0
 10
67.609861
 20
5.891132
 30
0.0
  0
SPLINE
  5
178
100
AcDbEntity
  8
Dioxin
 62
7
100
AcDbSpline
 70
8
 71
3
 72
8
 73
4
 74
0
 40
0
 40
0
 40
0
 40
0
 40
1
 40
1
 40
1
 40
1
 10
67.609861
 20
5.891132
 30
0.0
 10
67.832179
 20
5.400545
 30
0.0
 10
67.944994
 20
4.837935
 30
0.0
 10
67.945000
 20
4.180160
 30
0.0
  0
SPLINE
  5
179
100
AcDbEntity
  8
Dioxin
 62
7
100
AcDbSpline
 70
8
 71
3
 72
8
 73
4
 74
0
 40
0
 40
0
 40
0
 40
0
 40
1
 40
1
 40
1
 40
1
 10
67.945000
 20
4.180160
 30
0.0
 10
67.944994
 20
3.140194
 30
0.0
 10
67.688866
 20
2.329547
 30
0.0
 10
67.168889
 20
1.763632
 30
0.0
  0
SPLINE
  5
17a
100
AcDbEntity
  8
Dioxin
 62
7
100
AcDbSpline
 70
8
 71
3
 72
8
 73
4
 74
0
 40
0
 40
0
 40
0
 40
0
 40
1
 40
1
 40
1
 40
1
 10
67.168889
 20
1.763632
 30
0.0
 10
66.648906
 20
1.197714
 30
0.0
 10
65.980462
 20
0.916965
 30
0.0
 10
65.175694
 20
0.916965
 30
0.0
  0
SPLINE
  5
17b
100
AcDbEntity
  8
Dioxin
 62
7
100
AcDbSpline
 70
8
 71
3
 72
8
 73
4
 74
0
 40
0
 40
0
 40
0
 40
0
 40
1
 40
1
 40
1
 40
1
 10
65.175694
 20
0.916965
 30
0.0
 10
64.385613
 20
0.916965
 30
0.0
 10
63.741430
 20
1.203229
 30
0.0
 10
63.217778
 20
1.763632
 30
0.0
  0
SPLINE
  5
17c
100
AcDbEntity
  8
Dioxin
 62
7
100
AcDbSpline
 70
8
 71
3
 72
8
 73
4
 74
0
 40
0
 40
0
 40
0
 40
0
 40
1
 40
1
 40
1
 40
1
 10
63.217778
 20
1.763632
 30
0.0
 10
62.694120
 20
2.324038
 30
0.0
 10
62.424028
 20
3.082871
 30
0.0
 10
62.424028
 20
4.056688
 30
0.0
  0
SPLINE
  5
17d
100
AcDbEntity
  8
Dioxin
 62
7
100
AcDbSpline
 70
8
 71
3
 72
8
 73
4
 74
0
 40
0
 40
0
 40
0
 40
0
 40
1
 40
1
 40
1
 40
1
 10
62.424028
 20
4.056688
 30
0.0
 10
62.424028
 20
5.273032
 30
0.0
 10
62.707351
 20
6.147254
 30
0.0
 10
63.253056
 20
6.667243
 30
0.0
  0
SPLINE
  5
17e
100
AcDbEntity
  8
Dioxin
 62
7
100
AcDbSpline
 70
8
 71
3
 72
8
 73
4
 74
0
 40
0
 40
0
 40
0
 40
0
 40
1
 40
1
 40
1
 40
1
 10
63.253056
 20
6.667243
 30
0.0
 10
63.798755
 20
7.187215
 30
0.0
 10
64.436329
 20
7.443349
 30
0.0
 10
65.193333
 20
7.443354
 30
0.0
  0
LWPOLYLINE
  5
17f
100
AcDbEntity
  8
Dioxin
 62
7
100
AcDbPolyline
 90
6
 70
0
 10
126.329722
 20
8.219465
 30
0.0
 10
126.329722
 20
0.140854
 30
0.0
 10
127.317500
 20
0.140854
 30
0.0
 10
127.317500
 20
8.219465
 30
0.0
 10
126.329722
 20
8.219465
 30
0.0
 10
126.329722
 20
8.219465
 30
0.0
  0
SPLINE
  5
180
100
AcDbEntity
  8
Dioxin
 62
7
100
AcDbSpline
 70
8
 71
3
 72
8
 73
4
 74
0
 40
0
 40
0
 40
0
 40
0
 40
1
 40
1
 40
1
 40
1
 10
41.654964
 20
58.018315
 30
0.0
 10
41.654964
 20
58.018315
 30
0.0
 10
33.370379
 20
54.998686
 30
0.0
 10
30.641163
 20
47.941861
 30
0.0
  0
SPLINE
  5
181
100
AcDbEntity
  8
Dioxin
 62
7
100
AcDbSpline
 70
8
 71
3
 72
8
 73
4
 74
0
 40
0
 40
0
 40
0
 40
0
 40
1
 40
1
 40
1
 40
1
 10
30.641163
 20
47.941861
 30
0.0
 10
27.911951
 20
40.885036
 30
0.0
 10
29.938156
 20
39.505760
 30
0.0
 10
29.938156
 20
39.505760
 30
0.0
  0
SPLINE
  5
182
100
AcDbEntity
  8
Dioxin
 62
7
100
AcDbSpline
 70
8
 71
3
 72
8
 73
4
 74
0
 40
0
 40
0
 40
0
 40
0
 40
1
 40
1
 40
1
 40
1
 10
29.938156
 20
39.505760
 30
0.0
 10
22.699226
 20
42.576125
 30
0.0
 10
20.746823
 20
54.966881
 30
0.0
 10
26.891789
 20
56.377962
 30
0.0
  0
SPLINE
  5
183
100
AcDbEntity
  8
Dioxin
 62
7
100
AcDbSpline
 70
8
 71
3
 72
8
 73
4
 74
0
 40
0
 40
0
 40
0
 40
0
 40
1
 40
1
 40
1
 40
1
 10
26.891789
 20
56.377962
 30
0.0
 10
33.036753
 20
57.789043
 30
0.0
 10
32.515852
 20
45.364163
 30
0.0
 10
33.687537
 20
58.486986
 30
0.0
  0
SPLINE
  5
184
100
AcDbEntity
  8
Dioxin
 62
7
100
AcDbSpline
 70
8
 71
3
 72
8
 73
4
 74
0
 40
0
 40
0
 40
0
 40
0
 40
1
 40
1
 40
1
 40
1
 10
33.687537
 20
58.486986
 30
0.0
 10
32.181357
 20
65.208847
 30
0.0
 10
28.071259
 20
67.076563
 30
0.0
 10
23.845417
 20
65.751405
 30
0.0
  0
SPLINE
  5
185
100
AcDbEntity
  8
Dioxin
 62
7
100
AcDbSpline
 70
8
 71
3
 72
8
 73
4
 74
0
 40
0
 40
0
 40
0
 40
0
 40
1
 40
1
 40
1
 40
1
 10
23.845417
 20
65.751405
 30
0.0
 10
19.619575
 20
64.426251
 30
0.0
 10
14.981856
 20
61.178723
 30
0.0
 10
15.174980
 20
52.628584
 30
0.0
  0
SPLINE
  5
186
100
AcDbEntity
  8
Dioxin
 62
7
100
AcDbSpline
 70
8
 71
3
 72
8
 73
4
 74
0
 40
0
 40
0
 40
0
 40
0
 40
1
 40
1
 40
1
 40
1
 10
15.174980
 20
52.628584
 30
0.0
 10
15.368104
 20
44.078444
 30
0.0
 10
20.804255
 20
37.965051
 30
0.0
 10
25.251434
 20
36.928063
 30
0.0
  0
SPLINE
  5
187
100
AcDbEntity
  8
Dioxin
 62
7
100
AcDbSpline
 70
8
 71
3
 72
8
 73
4
 74
0
 40
0
 40
0
 40
0
 40
0
 40
1
 40
1
 40
1
 40
1
 10
25.251434
 20
36.928063
 30
0.0
 10
29.698611
 20
35.891074
 30
0.0
 10
30.486291
 20
36.033192
 30
0.0
 10
34.156207
 20
37.162397
 30
0.0
  0
LWPOLYLINE
  5
188
100
AcDbEntity
  8
Dioxin
 62
7
100
AcDbPolyline
 90
2
 70
0
 10
65.193333
 20
7.443354
 30
0.0
 10
65.193333
 20
7.443354
 30
0.0
  0
SPLINE
  5
189
100
AcDbEntity
  8
Dioxin
 62
7
100
AcDbSpline
 70
8
 71
3
 72
8
 73
4
 74
0
 40
0
 40
0
 40
0
 40
0
 40
1
 40
1
 40
1
 40
1
 10
38.842930
 20
34.819036
 30
0.0
 10
38.842930
 20
34.819036
 30
0.0
 10
44.012934
 20
34.613273
 30
0.0
 10
45.170005
 20
36.459390
 30
0.0
  0
SPLINE
  5
18a
100
AcDbEntity
  8
Dioxin
 62
7
100
AcDbSpline
 70
8
 71
3
 72
8
 73
4
 74
0
 40
0
 40
0
 40
0
 40
0
 40
1
 40
1
 40
1
 40
1
 10
45.170005
 20
36.459390
 30
0.0
 10
46.439142
 20
38.484308
 30
0.0
 10
43.763988
 20
43.489474
 30
0.0
 10
43.763988
 20
43.489474
 30
0.0
  0
LWPOLYLINE
  5
18b
100
AcDbEntity
  8
Dioxin
 62
7
100
AcDbPolyline
 90
6
 70
1
 10
34.156207
 20
37.162397
 30
0.0
 10
31.109838
 20
33.647356
 30
0.0
 10
44.232661
 20
32.145567
 30
0.0
 10
48.685049
 20
30.036543
 30
0.0
 10
46.341688
 20
33.785919
 30
0.0
 10
38.842930
 20
34.819036
 30
0.0
  0
SPLINE
  5
18c
100
AcDbEntity
  8
Dioxin
 62
7
100
AcDbSpline
 70
8
 71
3
 72
8
 73
4
 74
0
 40
0
 40
0
 40
0
 40
0
 40
1
 40
1
 40
1
 40
1
 10
54.074780
 20
55.469047
 30
0.0
 10
54.074780
 20
55.469047
 30
0.0
 10
57.333811
 20
54.853677
 30
0.0
 10
58.651402
 20
55.937720
 30
0.0
  0
SPLINE
  5
18d
100
AcDbEntity
  8
Dioxin
 62
7
100
AcDbSpline
 70
8
 71
3
 72
8
 73
4
 74
0
 40
0
 40
0
 40
0
 40
0
 40
1
 40
1
 40
1
 40
1
 10
58.651402
 20
55.937720
 30
0.0
 10
59.920003
 20
56.981455
 30
0.0
 10
56.912804
 20
61.109767
 30
0.0
 10
56.912804
 20
61.109767
 30
0.0
  0
LWPOLYLINE
  5
18e
100
AcDbEntity
  8
Dioxin
 62
7
100
AcDbPolyline
 90
14
 70
1
 10
43.763988
 20
43.489474
 30
0.0
 10
40.717620
 20
43.958146
 30
0.0
 10
43.763988
 20
43.489474
 30
0.0
 10
44.935671
 20
40.911777
 30
0.0
 10
47.044695
 20
48.410533
 30
0.0
 10
47.982039
 20
46.770180
 30
0.0
 10
53.137435
 20
49.113542
 30
0.0
 10
54.309114
 20
46.397280
 30
0.0
 10
55.591851
 20
48.810751
 30
0.0
 10
55.591851
 20
48.810751
 30
0.0
 10
54.675902
 20
50.452378
 30
0.0
 10
49.856731
 20
50.988231
 30
0.0
 10
51.497080
 20
57.080970
 30
0.0
 10
54.074780
 20
55.469047
 30
0.0
  0
SPLINE
  5
18f
100
AcDbEntity
  8
Oxygen
 62
7
100
AcDbSpline
 70
8
 71
3
 72
8
 73
4
 74
0
 40
0
 40
0
 40
0
 40
0
 40
1
 40
1
 40
1
 40
1
 10
52.378681
 20
49.340348
 30
0.0
 10
51.392125
 20
48.770747
 30
0.0
 10
50.773906
 20
47.986521
 30
0.0
 10
50.529561
 20
46.969230
 30
0.0
  0
SPLINE
  5
190
100
AcDbEntity
  8
Oxygen
 62
7
100
AcDbSpline
 70
8
 71
3
 72
8
 73
4
 74
0
 40
0
 40
0
 40
0
 40
0
 40
1
 40
1
 40
1
 40
1
 10
50.529561
 20
46.969230
 30
0.0
 10
50.285224
 20
45.951924
 30
0.0
 10
50.505769
 20
44.858479
 30
0.0
 10
51.176422
 20
43.696889
 30
0.0
  0
SPLINE
  5
191
100
AcDbEntity
  8
Oxygen
 62
7
100
AcDbSpline
 70
8
 71
3
 72
8
 73
4
 74
0
 40
0
 40
0
 40
0
 40
0
 40
1
 40
1
 40
1
 40
1
 10
51.176422
 20
43.696889
 30
0.0
 10
51.531037
 20
43.082677
 30
0.0
 10
51.993817
 20
42.580984
 30
0.0
 10
52.579008
 20
42.184761
 30
0.0
  0
SPLINE
  5
192
100
AcDbEntity
  8
Oxygen
 62
7
100
AcDbSpline
 70
8
 71
3
 72
8
 73
4
 74
0
 40
0
 40
0
 40
0
 40
0
 40
1
 40
1
 40
1
 40
1
 10
52.579008
 20
42.184761
 30
0.0
 10
53.164198
 20
41.788539
 30
0.0
 10
53.811232
 20
41.568895
 30
0.0
 10
54.513711
 20
41.550146
 30
0.0
  0
SPLINE
  5
193
100
AcDbEntity
  8
Oxygen
 62
7
100
AcDbSpline
 70
8
 71
3
 72
8
 73
4
 74
0
 40
0
 40
0
 40
0
 40
0
 40
1
 40
1
 40
1
 40
1
 10
54.513711
 20
41.550146
 30
0.0
 10
55.216182
 20
41.531396
 30
0.0
 10
55.900328
 20
41.719315
 30
0.0
 10
56.559097
 20
42.099654
 30
0.0
  0
SPLINE
  5
194
100
AcDbEntity
  8
Oxygen
 62
7
100
AcDbSpline
 70
8
 71
3
 72
8
 73
4
 74
0
 40
0
 40
0
 40
0
 40
0
 40
1
 40
1
 40
1
 40
1
 10
56.559097
 20
42.099654
 30
0.0
 10
57.166939
 20
42.450592
 30
0.0
 10
57.648938
 20
42.915154
 30
0.0
 10
58.007758
 20
43.506333
 30
0.0
  0
SPLINE
  5
195
100
AcDbEntity
  8
Oxygen
 62
7
100
AcDbSpline
 70
8
 71
3
 72
8
 73
4
 74
0
 40
0
 40
0
 40
0
 40
0
 40
1
 40
1
 40
1
 40
1
 10
58.007758
 20
43.506333
 30
0.0
 10
58.366573
 20
44.097513
 30
0.0
 10
58.525935
 20
44.769573
 30
0.0
 10
58.488984
 20
45.495050
 30
0.0
  0
SPLINE
  5
196
100
AcDbEntity
  8
Oxygen
 62
7
100
AcDbSpline
 70
8
 71
3
 72
8
 73
4
 74
0
 40
0
 40
0
 40
0
 40
0
 40
1
 40
1
 40
1
 40
1
 10
58.488984
 20
45.495050
 30
0.0
 10
58.452015
 20
46.220517
 30
0.0
 10
58.232822
 20
46.926490
 30
0.0
 10
57.823092
 20
47.636184
 30
0.0
  0
SPLINE
  5
197
100
AcDbEntity
  8
Oxygen
 62
7
100
AcDbSpline
 70
8
 71
3
 72
8
 73
4
 74
0
 40
0
 40
0
 40
0
 40
0
 40
1
 40
1
 40
1
 40
1
 10
57.823092
 20
47.636184
 30
0.0
 10
57.418862
 20
48.336310
 30
0.0
 10
56.916741
 20
48.881907
 30
0.0
 10
56.325855
 20
49.276973
 30
0.0
  0
SPLINE
  5
198
100
AcDbEntity
  8
Oxygen
 62
7
100
AcDbSpline
 70
8
 71
3
 72
8
 73
4
 74
0
 40
0
 40
0
 40
0
 40
0
 40
1
 40
1
 40
1
 40
1
 10
56.325855
 20
49.276973
 30
0.0
 10
55.734969
 20
49.672025
 30
0.0
 10
55.081655
 20
49.878280
 30
0.0
 10
54.384696
 20
49.887493
 30
0.0
  0
SPLINE
  5
199
100
AcDbEntity
  8
Oxygen
 62
7
100
AcDbSpline
 70
8
 71
3
 72
8
 73
4
 74
0
 40
0
 40
0
 40
0
 40
0
 40
1
 40
1
 40
1
 40
1
 10
54.384696
 20
49.887493
 30
0.0
 10
53.687729
 20
49.896688
 30
0.0
 10
53.024715
 20
49.713324
 30
0.0
 10
52.378681
 20
49.340348
 30
0.0
  0
LWPOLYLINE
  5
19a
100
AcDbEntity
  8
Dioxin
 62
7
100
AcDbPolyline
 90
6
 70
1
 10
56.912804
 20
61.109767
 30
0.0
 10
54.559180
 20
62.935426
 30
0.0
 10
54.091431
 20
65.282736
 30
0.0
 10
52.200090
 20
63.173709
 30
0.0
 10
49.622394
 20
62.236364
 30
0.0
 10
41.654964
 20
58.018315
 30
0.0
  0
SPLINE
  5
19b
100
AcDbEntity
  8
Oxygen
 62
7
100
AcDbSpline
 70
8
 71
3
 72
8
 73
4
 74
0
 40
0
 40
0
 40
0
 40
0
 40
1
 40
1
 40
1
 40
1
 10
52.837292
 20
48.546011
 30
0.0
 10
53.298748
 20
48.812426
 30
0.0
 10
53.786947
 20
48.937708
 30
0.0
 10
54.292748
 20
48.917863
 30
0.0
  0
SPLINE
  5
19c
100
AcDbEntity
  8
Oxygen
 62
7
100
AcDbSpline
 70
8
 71
3
 72
8
 73
4
 74
0
 40
0
 40
0
 40
0
 40
0
 40
1
 40
1
 40
1
 40
1
 10
54.292748
 20
48.917863
 30
0.0
 10
54.798553
 20
48.898001
 30
0.0
 10
55.268348
 20
48.723697
 30
0.0
 10
55.706177
 20
48.410011
 30
0.0
  0
SPLINE
  5
19d
100
AcDbEntity
  8
Oxygen
 62
7
100
AcDbSpline
 70
8
 71
3
 72
8
 73
4
 74
0
 40
0
 40
0
 40
0
 40
0
 40
1
 40
1
 40
1
 40
1
 10
55.706177
 20
48.410011
 30
0.0
 10
56.144005
 20
48.096309
 30
0.0
 10
56.523007
 20
47.665487
 30
0.0
 10
56.851903
 20
47.095835
 30
0.0
  0
SPLINE
  5
19e
100
AcDbEntity
  8
Oxygen
 62
7
100
AcDbSpline
 70
8
 71
3
 72
8
 73
4
 74
0
 40
0
 40
0
 40
0
 40
0
 40
1
 40
1
 40
1
 40
1
 10
56.851903
 20
47.095835
 30
0.0
 10
57.371877
 20
46.195200
 30
0.0
 10
57.555392
 20
45.365088
 30
0.0
 10
57.388035
 20
44.615005
 30
0.0
  0
SPLINE
  5
19f
100
AcDbEntity
  8
Oxygen
 62
7
100
AcDbSpline
 70
8
 71
3
 72
8
 73
4
 74
0
 40
0
 40
0
 40
0
 40
0
 40
1
 40
1
 40
1
 40
1
 10
57.388035
 20
44.615005
 30
0.0
 10
57.220674
 20
43.864914
 30
0.0
 10
56.782160
 20
43.287557
 30
0.0
 10
56.085209
 20
42.885173
 30
0.0
  0
SPLINE
  5
1a0
100
AcDbEntity
  8
Oxygen
 62
7
100
AcDbSpline
 70
8
 71
3
 72
8
 73
4
 74
0
 40
0
 40
0
 40
0
 40
0
 40
1
 40
1
 40
1
 40
1
 10
56.085209
 20
42.885173
 30
0.0
 10
55.400981
 20
42.490132
 30
0.0
 10
54.699970
 20
42.415952
 30
0.0
 10
53.966271
 20
42.639449
 30
0.0
  0
SPLINE
  5
1a1
100
AcDbEntity
  8
Oxygen
 62
7
100
AcDbSpline
 70
8
 71
3
 72
8
 73
4
 74
0
 40
0
 40
0
 40
0
 40
0
 40
1
 40
1
 40
1
 40
1
 10
53.966271
 20
42.639449
 30
0.0
 10
53.232572
 20
42.862939
 30
0.0
 10
52.619247
 20
43.385067
 30
0.0
 10
52.132337
 20
44.228419
 30
0.0
  0
SPLINE
  5
1a2
100
AcDbEntity
  8
Oxygen
 62
7
100
AcDbSpline
 70
8
 71
3
 72
8
 73
4
 74
0
 40
0
 40
0
 40
0
 40
0
 40
1
 40
1
 40
1
 40
1
 10
52.132337
 20
44.228419
 30
0.0
 10
51.524168
 20
45.281798
 30
0.0
 10
51.332415
 20
46.180569
 30
0.0
 10
51.545019
 20
46.903740
 30
0.0
  0
SPLINE
  5
1a3
100
AcDbEntity
  8
Oxygen
 62
7
100
AcDbSpline
 70
8
 71
3
 72
8
 73
4
 74
0
 40
0
 40
0
 40
0
 40
0
 40
1
 40
1
 40
1
 40
1
 10
51.545019
 20
46.903740
 30
0.0
 10
51.757617
 20
47.626903
 30
0.0
 10
52.181709
 20
48.167503
 30
0.0
 10
52.837292
 20
48.546011
 30
0.0
  0
LWPOLYLINE
  5
1a4
100
AcDbEntity
  8
Oxygen
 62
7
100
AcDbPolyline
 90
2
 70
1
 10
52.378681
 20
49.340348
 30
0.0
 10
52.378681
 20
49.340348
 30
0.0
  0
SPLINE
  5
1a5
100
AcDbEntity
  8
Squirrel
 62
7
100
AcDbSpline
 70
8
 71
3
 72
8
 73
4
 74
0
 40
0
 40
0
 40
0
 40
0
 40
1
 40
1
 40
1
 40
1
 10
56.312841
 20
59.650411
 30
0.0
 10
56.312841
 20
59.516908
 30
0.0
 10
56.259808
 20
59.388874
 30
0.0
 10
56.165407
 20
59.294474
 30
0.0
  0
SPLINE
  5
1a6
100
AcDbEntity
  8
Squirrel
 62
7
100
AcDbSpline
 70
8
 71
3
 72
8
 73
4
 74
0
 40
0
 40
0
 40
0
 40
0
 40
1
 40
1
 40
1
 40
1
 10
56.165407
 20
59.294474
 30
0.0
 10
56.071007
 20
59.200074
 30
0.0
 10
55.942972
 20
59.147040
 30
0.0
 10
55.809470
 20
59.147041
 30
0.0
  0
SPLINE
  5
1a7
100
AcDbEntity
  8
Squirrel
 62
7
100
AcDbSpline
 70
8
 71
3
 72
8
 73
4
 74
0
 40
0
 40
0
 40
0
 40
0
 40
1
 40
1
 40
1
 40
1
 10
55.809470
 20
59.147041
 30
0.0
 10
55.531467
 20
59.147041
 30
0.0
 10
55.306101
 20
59.372408
 30
0.0
 10
55.306101
 20
59.650411
 30
0.0
  0
SPLINE
  5
1a8
100
AcDbEntity
  8
Squirrel
 62
7
100
AcDbSpline
 70
8
 71
3
 72
8
 73
4
 74
0
 40
0
 40
0
 40
0
 40
0
 40
1
 40
1
 40
1
 40
1
 10
55.306101
 20
59.650411
 30
0.0
 10
55.306101
 20
59.928414
 30
0.0
 10
55.531467
 20
60.153780
 30
0.0
 10
55.809470
 20
60.153781
 30
0.0
  0
SPLINE
  5
1a9
100
AcDbEntity
  8
Squirrel
 62
7
100
AcDbSpline
 70
8
 71
3
 72
8
 73
4
 74
0
 40
0
 40
0
 40
0
 40
0
 40
1
 40
1
 40
1
 40
1
 10
55.809470
 20
60.153781
 30
0.0
 10
55.942972
 20
60.153781
 30
0.0
 10
56.071007
 20
60.100748
 30
0.0
 10
56.165407
 20
60.006348
 30
0.0
  0
SPLINE
  5
1aa
100
AcDbEntity
  8
Squirrel
 62
7
100
AcDbSpline
 70
8
 71
3
 72
8
 73
4
 74
0
 40
0
 40
0
 40
0
 40
0
 40
1
 40
1
 40
1
 40
1
 10
56.165407
 20
60.006348
 30
0.0
 10
56.259808
 20
59.911947
 30
0.0
 10
56.312841
 20
59.783913
 30
0.0
 10
56.312841
 20
59.650411
 30
0.0
  0
LWPOLYLINE
  5
1ab
100
AcDbEntity
  8
Oxygen
 62
7
100
AcDbPolyline
 90
2
 70
1
 10
52.837292
 20
48.546011
 30
0.0
 10
52.837292
 20
48.546011
 30
0.0
  0
LWPOLYLINE
  5
1ac
100
AcDbEntity
  8
Squirrel
 62
7
100
AcDbPolyline
 90
2
 70
1
 10
56.312841
 20
59.650411
 30
0.0
 10
56.312841
 20
59.650411
 30
0.0
  0
SPLINE
  5
1ad
100
AcDbEntity
  8
Squirrel
 62
7
100
AcDbSpline
 70
8
 71
3
 72
8
 73
4
 74
0
 40
0
 40
0
 40
0
 40
0
 40
1
 40
1
 40
1
 40
1
 10
56.255381
 20
59.403692
 30
0.0
 10
56.255381
 20
59.337772
 30
0.0
 10
56.224830
 20
59.274552
 30
0.0
 10
56.170448
 20
59.227940
 30
0.0
  0
SPLINE
  5
1ae
100
AcDbEntity
  8
Squirrel
 62
7
100
AcDbSpline
 70
8
 71
3
 72
8
 73
4
 74
0
 40
0
 40
0
 40
0
 40
0
 40
1
 40
1
 40
1
 40
1
 10
56.170448
 20
59.227940
 30
0.0
 10
56.116067
 20
59.181328
 30
0.0
 10
56.042310
 20
59.155141
 30
0.0
 10
55.965403
 20
59.155141
 30
0.0
  0
SPLINE
  5
1af
100
AcDbEntity
  8
Squirrel
 62
7
100
AcDbSpline
 70
8
 71
3
 72
8
 73
4
 74
0
 40
0
 40
0
 40
0
 40
0
 40
1
 40
1
 40
1
 40
1
 10
55.965403
 20
59.155141
 30
0.0
 10
55.805254
 20
59.155142
 30
0.0
 10
55.675428
 20
59.266422
 30
0.0
 10
55.675428
 20
59.403692
 30
0.0
  0
SPLINE
  5
1b0
100
AcDbEntity
  8
Squirrel
 62
7
100
AcDbSpline
 70
8
 71
3
 72
8
 73
4
 74
0
 40
0
 40
0
 40
0
 40
0
 40
1
 40
1
 40
1
 40
1
 10
55.675428
 20
59.403692
 30
0.0
 10
55.675428
 20
59.540963
 30
0.0
 10
55.805254
 20
59.652243
 30
0.0
 10
55.965403
 20
59.652243
 30
0.0
  0
SPLINE
  5
1b1
100
AcDbEntity
  8
Squirrel
 62
7
100
AcDbSpline
 70
8
 71
3
 72
8
 73
4
 74
0
 40
0
 40
0
 40
0
 40
0
 40
1
 40
1
 40
1
 40
1
 10
55.965403
 20
59.652243
 30
0.0
 10
56.042310
 20
59.652244
 30
0.0
 10
56.116067
 20
59.626057
 30
0.0
 10
56.170448
 20
59.579445
 30
0.0
  0
SPLINE
  5
1b2
100
AcDbEntity
  8
Squirrel
 62
7
100
AcDbSpline
 70
8
 71
3
 72
8
 73
4
 74
0
 40
0
 40
0
 40
0
 40
0
 40
1
 40
1
 40
1
 40
1
 10
56.170448
 20
59.579445
 30
0.0
 10
56.224830
 20
59.532833
 30
0.0
 10
56.255381
 20
59.469612
 30
0.0
 10
56.255381
 20
59.403692
 30
0.0
  0
LWPOLYLINE
  5
1b3
100
AcDbEntity
  8
Squirrel
 62
7
100
AcDbPolyline
 90
3
 70
0
 10
55.424572
 20
55.426334
 30
0.0
 10
54.323197
 20
56.295387
 30
0.0
 10
54.033222
 20
56.942682
 30
0.0
  0
LWPOLYLINE
  5
1b4
100
AcDbEntity
  8
Squirrel
 62
7
100
AcDbPolyline
 90
2
 70
1
 10
56.255381
 20
59.403692
 30
0.0
 10
56.255381
 20
59.403692
 30
0.0
  0
LWPOLYLINE
  5
1b5
100
AcDbEntity
  8
Squirrel
 62
7
100
AcDbPolyline
 90
3
 70
0
 10
58.823739
 20
56.087798
 30
0.0
 10
58.160937
 20
56.667751
 30
0.0
 10
58.326638
 20
57.082002
 30
0.0
  0
LWPOLYLINE
  5
1b6
100
AcDbEntity
  8
Squirrel
 62
7
100
AcDbPolyline
 90
2
 70
0
 10
54.684789
 20
49.461653
 30
0.0
 10
55.337075
 20
48.148756
 30
0.0
  0
LWPOLYLINE
  5
1b7
100
AcDbEntity
  8
Squirrel
 62
7
100
AcDbPolyline
 90
3
 70
0
 10
47.078395
 20
30.982244
 30
0.0
 10
46.030354
 20
32.404584
 30
0.0
 10
45.356613
 20
32.853744
 30
0.0
  0
LWPOLYLINE
  5
1b8
100
AcDbEntity
  8
Squirrel
 62
7
100
AcDbPolyline
 90
2
 70
0
 10
54.298991
 20
48.631202
 30
0.0
 10
54.846971
 20
47.471297
 30
0.0
  0
ENDSEC
  0
SECTION
  2
OBJECTS
  0
DICTIONARY
  5
C
330
0
100
AcDbDictionary
  3
ACAD_GROUP
350
D
  3
ACAD_MLINESTYLE
350
17
  0
DICTIONARY
  5
D
330
C
100
AcDbDictionary
  0
DICTIONARY
  5
1A
330
C
100
AcDbDictionary
  0
DICTIONARY
  5
17
330
C
100
AcDbDictionary
  3
STANDARD
350
18
  0
DICTIONARY
  5
19
330
C
100
AcDbDictionary
  0
ENDSEC
  0
EOF
