<?xml version="1.0" standalone="no"?>
<!DOCTYPE svg PUBLIC "-//W3C//DTD SVG 1.1//EN"
    "http://www.w3.org/Graphics/SVG/1.1/DTD/svg11.dtd">
<svg width="100%" height="100%" viewBox="0 0 480 350"
    version="1.1" xmlns="http://www.w3.org/2000/svg">
    <g transform="scale(0.5, 0.5)">
        
        <!-- ** Rounded Rectangle *************** -->
        
        <g>
            <path
                d="
                    M623.11 470.00
                    C604.82 470.00 590.00 455.18 590.00 436.89
                    L590.00 73.11
                    C590.00 54.82 604.82 40.00 623.11 40.00
                    L846.89 40.00
                    C865.18 40.00 880.00 54.82 880.00 73.11
                    L880.00 436.89
                    C880.00 455.18 865.18 470.00 846.89 470.00
                    Z
                    "
                fill="rgb(0, 128, 128)"
                />
            
            
            <text x="696.14" y="422.00"
            >
                <tspan style="font-family:Helvetica; font-size:24px; font-style:normal; font-weight:normal;" fill="rgb(255, 255, 255)">Module
                </tspan>
            </text>
            <text x="641.44" y="451.00"
            >
                <tspan style="font-family:Helvetica; font-size:24px; font-style:normal; font-weight:normal;" fill="rgb(255, 255, 255)">Application Board</tspan>
            </text>
        </g>
        
        
        <!-- ** Rounded Rectangle *************** -->
        
        <g>
            <path
                d="
                    M628.71 390.00
                    C612.85 390.00 600.00 377.15 600.00 361.29
                    L600.00 78.71
                    C600.00 62.85 612.85 50.00 628.71 50.00
                    L841.29 50.00
                    C857.15 50.00 870.00 62.85 870.00 78.71
                    L870.00 361.29
                    C870.00 377.15 857.15 390.00 841.29 390.00
                    Z
                    "
                fill="rgb(102, 204, 255)"
                />
            
            
            <text x="638.82" y="214.00"
            >
                <tspan style="font-family:Helvetica; font-size:24px; font-style:normal; font-weight:normal;" fill="rgb(0, 0, 0)">AMMDK Common
                </tspan>
            </text>
            <text x="651.45" y="243.00"
            >
                <tspan style="font-family:Helvetica; font-size:24px; font-style:normal; font-weight:normal;" fill="rgb(0, 0, 0)">Compute Board</tspan>
            </text>
        </g>
        
        
        <!-- ** Swoosh *************** -->
        
        <g>
            <path
                d="
                    M840.00 200.00
                    L920.00 200.00
                    L920.00 252.00
                    C920.00 252.00 910.00 245.00 900.00 245.00
                    C890.00 245.00 880.00 252.00 880.00 252.00
                    C880.00 252.00 870.00 260.00 860.00 260.00
                    C850.00 260.00 840.00 252.00 840.00 252.00
                    Z
                    "
                transform="
                    rotate(270 880.00 230.00)
                    "
                fill="rgb(102, 204, 255)"
                />
            
            
            <text x="861.49" y="229.00"
            transform="rotate(270 880.00 230.00)"
            >
                <tspan style="font-family:Helvetica; font-size:18px; font-style:normal; font-weight:normal;" fill="rgb(0, 0, 0)">USB</tspan>
            </text>
        </g>
        
        
        <!-- ** Swoosh *************** -->
        
        <g>
            <path
                d="
                    M830.00 100.00
                    L930.00 100.00
                    L930.00 152.00
                    C930.00 152.00 918.00 145.00 905.00 145.00
                    C893.00 145.00 880.00 152.00 880.00 152.00
                    C880.00 152.00 868.00 160.00 855.00 160.00
                    C843.00 160.00 830.00 152.00 830.00 152.00
                    Z
                    "
                transform="
                    rotate(270 880.00 130.00)
                    "
                fill="rgb(102, 204, 255)"
                />
            
            
            <text x="845.98" y="129.00"
            transform="rotate(270 880.00 130.00)"
            >
                <tspan style="font-family:Helvetica; font-size:18px; font-style:normal; font-weight:normal;" fill="rgb(0, 0, 0)">Ethernet</tspan>
            </text>
        </g>
        
        
        <!-- ** Swoosh *************** -->
        
        <g>
            <path
                d="
                    M840.00 290.00
                    L920.00 290.00
                    L920.00 342.00
                    C920.00 342.00 910.00 335.00 900.00 335.00
                    C890.00 335.00 880.00 342.00 880.00 342.00
                    C880.00 342.00 870.00 350.00 860.00 350.00
                    C850.00 350.00 840.00 342.00 840.00 342.00
                    Z
                    "
                transform="
                    rotate(270 880.00 320.00)
                    "
                fill="rgb(102, 204, 255)"
                />
            
            
            <text x="857.00" y="319.00"
            transform="rotate(270 880.00 320.00)"
            >
                <tspan style="font-family:Helvetica; font-size:18px; font-style:normal; font-weight:normal;" fill="rgb(0, 0, 0)">HDMI</tspan>
            </text>
        </g>
        
        
        <!-- ** Rounded Rectangle *************** -->
        
        <g>
            <path
                d="
                    M631.49 180.00
                    C619.62 180.00 610.00 170.38 610.00 158.51
                    L610.00 81.49
                    C610.00 69.62 619.62 60.00 631.49 60.00
                    L838.51 60.00
                    C850.38 60.00 860.00 69.62 860.00 81.49
                    L860.00 158.51
                    C860.00 170.38 850.38 180.00 838.51 180.00
                    Z
                    "
                fill="rgb(34, 6, 159)"
                />
            
            
            <text x="642.10" y="164.00"
            >
                <tspan style="font-family:Helvetica; font-size:24px; font-style:normal; font-weight:normal;" fill="rgb(255, 255, 255)">Snapdragon SoM</tspan>
            </text>
        </g>
        
        
        <!-- ** Rounded Rectangle *************** -->
        
        <g>
            <path
                d="
                    M635.20 130.00
                    C626.80 130.00 620.00 123.20 620.00 114.80
                    L620.00 85.20
                    C620.00 76.80 626.80 70.00 635.20 70.00
                    L674.80 70.00
                    C683.20 70.00 690.00 76.80 690.00 85.20
                    L690.00 114.80
                    C690.00 123.20 683.20 130.00 674.80 130.00
                    Z
                    "
                fill="rgb(56, 88, 228)"
                />
            
            
            <text x="640.72" y="105.50"
            >
                <tspan style="font-family:Helvetica; font-size:14px; font-style:normal; font-weight:normal;" fill="rgb(255, 255, 255)">CPU</tspan>
            </text>
        </g>
        
        
        <!-- ** Rounded Rectangle *************** -->
        
        <g>
            <path
                d="
                    M715.20 130.00
                    C706.80 130.00 700.00 123.20 700.00 114.80
                    L700.00 85.20
                    C700.00 76.80 706.80 70.00 715.20 70.00
                    L754.80 70.00
                    C763.20 70.00 770.00 76.80 770.00 85.20
                    L770.00 114.80
                    C770.00 123.20 763.20 130.00 754.80 130.00
                    Z
                    "
                fill="rgb(56, 88, 228)"
                />
            
            
            <text x="710.22" y="105.50"
            >
                <tspan style="font-family:Helvetica; font-size:14px; font-style:normal; font-weight:normal;" fill="rgb(255, 255, 255)">Memory</tspan>
            </text>
        </g>
        
        
        <!-- ** Rounded Rectangle *************** -->
        
        <g>
            <path
                d="
                    M795.20 130.00
                    C786.80 130.00 780.00 123.20 780.00 114.80
                    L780.00 85.20
                    C780.00 76.80 786.80 70.00 795.20 70.00
                    L834.80 70.00
                    C843.20 70.00 850.00 76.80 850.00 85.20
                    L850.00 114.80
                    C850.00 123.20 843.20 130.00 834.80 130.00
                    Z
                    "
                fill="rgb(56, 88, 228)"
                />
            
            
            <text x="790.98" y="105.50"
            >
                <tspan style="font-family:Helvetica; font-size:14px; font-style:normal; font-weight:normal;" fill="rgb(255, 255, 255)">Storage</tspan>
            </text>
        </g>
        
        
        <!-- ** Rounded Rectangle *************** -->
        
        <g>
            <path
                d="
                    M641.71 370.00
                    C629.72 370.00 620.00 360.28 620.00 348.29
                    L620.00 301.71
                    C620.00 289.72 629.72 280.00 641.71 280.00
                    L698.29 280.00
                    C710.28 280.00 720.00 289.72 720.00 301.71
                    L720.00 348.29
                    C720.00 360.28 710.28 370.00 698.29 370.00
                    Z
                    "
                fill="rgb(34, 6, 159)"
                />
            
            
            <text x="638.21" y="313.50"
            >
                <tspan style="font-family:Helvetica; font-size:14px; font-style:normal; font-weight:normal;" fill="rgb(255, 255, 255)">K66 MCU:
                </tspan>
            </text>
            <text x="645.99" y="330.50"
            >
                <tspan style="font-family:Helvetica; font-size:14px; font-style:normal; font-weight:normal;" fill="rgb(255, 255, 255)">Remote
                </tspan>
            </text>
            <text x="636.66" y="347.50"
            >
                <tspan style="font-family:Helvetica; font-size:14px; font-style:normal; font-weight:normal;" fill="rgb(255, 255, 255)">I/O Control</tspan>
            </text>
        </g>
        
        
        <!-- ** Rounded Rectangle *************** -->
        
        <g>
            <path
                d="
                    M779.54 330.00
                    C768.75 330.00 760.00 321.25 760.00 310.46
                    L760.00 299.54
                    C760.00 288.75 768.75 280.00 779.54 280.00
                    L830.46 280.00
                    C841.25 280.00 850.00 288.75 850.00 299.54
                    L850.00 310.46
                    C850.00 321.25 841.25 330.00 830.46 330.00
                    Z
                    "
                fill="rgb(34, 6, 159)"
                />
            
            
            <text x="833.17" y="301.61"
            >
                <tspan style="font-family:ArialMT; font-size:12px; font-style:normal; font-weight:normal;" fill="rgb(255, 255, 255)">
                </tspan>
            </text>
            <text x="829.84" y="301.61"
            >
                <tspan style="font-family:ArialMT; font-size:12px; font-style:normal; font-weight:normal;" fill="rgb(255, 255, 255)">:</tspan>
            </text>
            <text x="777.83" y="301.61"
            >
                <tspan style="font-family:ArialMT; font-size:12px; font-style:normal; font-weight:normal;" fill="rgb(255, 255, 255)">K20 MCU</tspan>
            </text>
            <text x="824.84" y="316.00"
            >
                <tspan style="font-family:ArialMT; font-size:12px; font-style:normal; font-weight:normal;" fill="rgb(255, 255, 255)">D</tspan>
            </text>
            <text x="777.49" y="316.00"
            >
                <tspan style="font-family:ArialMT; font-size:12px; font-style:normal; font-weight:normal;" fill="rgb(255, 255, 255)">OpenOC</tspan>
            </text>
        </g>
        
        
        <!-- ** Rounded Rectangle *************** -->
        
        <g>
            <path
                d="
                    M616.00 650.00
                    C601.64 650.00 590.00 638.36 590.00 624.00
                    L590.00 616.00
                    C590.00 601.64 601.64 590.00 616.00 590.00
                    L854.00 590.00
                    C868.36 590.00 880.00 601.64 880.00 616.00
                    L880.00 624.00
                    C880.00 638.36 868.36 650.00 854.00 650.00
                    Z
                    "
                fill="rgb(0, 128, 128)"
                stroke-width="2.00"
                stroke-linecap="butt"
                stroke-linejoin="round"
                stroke="rgb(0, 0, 0)"
                />
            
            
            <text x="638.95" y="626.50"
            >
                <tspan style="font-family:Helvetica; font-size:18px; font-style:normal; font-weight:normal;" fill="rgb(255, 255, 255)">Sensors, Actuators, Etc.</tspan>
            </text>
        </g>
        
        
        <!-- ** Rounded Rectangle *************** -->
        
        <g>
            <path
                d="
                    M613.85 550.00
                    C600.68 550.00 590.00 539.32 590.00 526.15
                    L590.00 513.85
                    C590.00 500.68 600.68 490.00 613.85 490.00
                    L856.15 490.00
                    C869.32 490.00 880.00 500.68 880.00 513.85
                    L880.00 526.15
                    C880.00 539.32 869.32 550.00 856.15 550.00
                    Z
                    "
                fill="rgb(0, 128, 128)"
                />
            
            
            <text x="657.95" y="527.00"
            >
                <tspan style="font-family:Helvetica; font-size:18px; font-style:normal; font-weight:normal;" fill="rgb(255, 255, 255)">Signal Conditioning</tspan>
            </text>
        </g>
        
        
        <!-- ** Arc *************** -->
        
        <g>
            <path
                d="
                    M650.00 590.00
                    C675.00 590.00 700.00 570.00 700.00 550.00
                    "
                transform="
                    translate(0.5 0.5)
                    "
                fill="none"
                stroke-width="2.00"
                stroke-linecap="butt"
                stroke-linejoin="round"
                stroke="rgb(0, 0, 0)"
                />
            
        </g>
        
        
        <!-- ** Arc *************** -->
        
        <g>
            <path
                d="
                    M680.00 590.00
                    C695.00 590.00 710.00 570.00 710.00 550.00
                    "
                transform="
                    translate(0.5 0.5)
                    "
                fill="none"
                stroke-width="2.00"
                stroke-linecap="butt"
                stroke-linejoin="round"
                stroke="rgb(0, 0, 0)"
                />
            
        </g>
        
        
        <!-- ** Arc *************** -->
        
        <g>
            <path
                d="
                    M710.00 590.00
                    C715.00 590.00 720.00 570.00 720.00 550.00
                    "
                transform="
                    translate(0.5 0.5)
                    "
                fill="none"
                stroke-width="2.00"
                stroke-linecap="butt"
                stroke-linejoin="round"
                stroke="rgb(0, 0, 0)"
                />
            
        </g>
        
        
        <!-- ** Arc *************** -->
        
        <g>
            <path
                d="
                    M760.00 590.00
                    C755.00 590.00 750.00 570.00 750.00 550.00
                    "
                transform="
                    translate(0.5 0.5)
                    "
                fill="none"
                stroke-width="2.00"
                stroke-linecap="butt"
                stroke-linejoin="round"
                stroke="rgb(0, 0, 0)"
                />
            
        </g>
        
        
        <!-- ** Arc *************** -->
        
        <g>
            <path
                d="
                    M780.00 590.00
                    C770.00 590.00 760.00 570.00 760.00 550.00
                    "
                transform="
                    translate(0.5 0.5)
                    "
                fill="none"
                stroke-width="2.00"
                stroke-linecap="butt"
                stroke-linejoin="round"
                stroke="rgb(0, 0, 0)"
                />
            
        </g>
        
        
        <!-- ** Arc *************** -->
        
        <g>
            <path
                d="
                    M820.00 590.00
                    C795.00 590.00 770.00 570.00 770.00 550.00
                    "
                transform="
                    translate(0.5 0.5)
                    "
                fill="none"
                stroke-width="2.00"
                stroke-linecap="butt"
                stroke-linejoin="round"
                stroke="rgb(0, 0, 0)"
                />
            
        </g>
        
        
        <!-- ** Arc *************** -->
        
        <g>
            <path
                d="
                    M740.00 550.00
                    C740.00 550.00 740.00 570.00 740.00 590.00
                    "
                transform="
                    translate(0.5 0.5)
                    "
                fill="none"
                stroke-width="2.00"
                stroke-linecap="butt"
                stroke-linejoin="round"
                stroke="rgb(0, 0, 0)"
                />
            
        </g>
        
        
        <!-- ** Line *************** -->
        
        <g>
            <path
                d="
                    M730.00 470.00
                    L730.00 490.00
                    "
                transform="
                    translate(0.5 0.5)
                    "
                fill="none"
                stroke-width="2.00"
                stroke-linecap="butt"
                stroke-linejoin="round"
                stroke="rgb(0, 0, 0)"
                />
            
        </g>
        
        
        <!-- ** Line *************** -->
        
        <g>
            <path
                d="
                    M740.00 470.00
                    L740.00 490.00
                    "
                transform="
                    translate(0.5 0.5)
                    "
                fill="none"
                stroke-width="2.00"
                stroke-linecap="butt"
                stroke-linejoin="round"
                stroke="rgb(0, 0, 0)"
                />
            
        </g>
        
        
        <!-- ** Line *************** -->
        
        <g>
            <path
                d="
                    M750.00 470.00
                    L750.00 490.00
                    "
                transform="
                    translate(0.5 0.5)
                    "
                fill="none"
                stroke-width="2.00"
                stroke-linecap="butt"
                stroke-linejoin="round"
                stroke="rgb(0, 0, 0)"
                />
            
        </g>
        
        
        <!-- ** Line *************** -->
        
        <g>
            <path
                d="
                    M760.00 470.00
                    L760.00 490.00
                    "
                transform="
                    translate(0.5 0.5)
                    "
                fill="none"
                stroke-width="2.00"
                stroke-linecap="butt"
                stroke-linejoin="round"
                stroke="rgb(0, 0, 0)"
                />
            
        </g>
        
        
        <!-- ** Line *************** -->
        
        <g>
            <path
                d="
                    M720.00 470.00
                    L720.00 490.00
                    "
                transform="
                    translate(0.5 0.5)
                    "
                fill="none"
                stroke-width="2.00"
                stroke-linecap="butt"
                stroke-linejoin="round"
                stroke="rgb(0, 0, 0)"
                />
            
        </g>
        
        
        <!-- ** Line *************** -->
        
        <g>
            <path
                d="
                    M710.00 470.00
                    L710.00 490.00
                    "
                transform="
                    translate(0.5 0.5)
                    "
                fill="none"
                stroke-width="2.00"
                stroke-linecap="butt"
                stroke-linejoin="round"
                stroke="rgb(0, 0, 0)"
                />
            
        </g>
        
        
        <!-- ** Line *************** -->
        
        <g>
            <path
                d="
                    M700.00 470.00
                    L700.00 490.00
                    "
                transform="
                    translate(0.5 0.5)
                    "
                fill="none"
                stroke-width="2.00"
                stroke-linecap="butt"
                stroke-linejoin="round"
                stroke="rgb(0, 0, 0)"
                />
            
        </g>
        
        
        <!-- ** Line *************** -->
        
        <g>
            <path
                d="
                    M770.00 470.00
                    L770.00 490.00
                    "
                transform="
                    translate(0.5 0.5)
                    "
                fill="none"
                stroke-width="2.00"
                stroke-linecap="butt"
                stroke-linejoin="round"
                stroke="rgb(0, 0, 0)"
                />
            
        </g>
        
        
        <!-- ** Arc *************** -->
        
        <g>
            <path
                d="
                    M730.00 550.00
                    C730.00 550.00 730.00 570.00 730.00 590.00
                    "
                transform="
                    translate(0.5 0.5)
                    "
                fill="none"
                stroke-width="2.00"
                stroke-linecap="butt"
                stroke-linejoin="round"
                stroke="rgb(0, 0, 0)"
                />
            
        </g>
        
        
        <!-- ** Rounded Rectangle *************** -->
        
        <g>
            <path
                d="
                    M98.78 290.00
                    C71.84 290.00 50.00 268.16 50.00 241.22
                    L50.00 88.78
                    C50.00 61.84 71.84 40.00 98.78 40.00
                    L441.22 40.00
                    C468.16 40.00 490.00 61.84 490.00 88.78
                    L490.00 241.22
                    C490.00 268.16 468.16 290.00 441.22 290.00
                    Z
                    "
                fill="rgb(153, 153, 153)"
                />
            
            
            <text x="193.81" y="79.00"
            >
                <tspan style="font-family:Helvetica; font-size:24px; font-style:normal; font-weight:normal;" fill="rgb(0, 0, 0)">AMMDK Linux</tspan>
            </text>
        </g>
        
        
        <!-- ** Rounded Rectangle *************** -->
        
        <g>
            <path
                d="
                    M98.24 280.00
                    C77.12 280.00 60.00 262.88 60.00 241.76
                    L60.00 138.24
                    C60.00 117.12 77.12 100.00 98.24 100.00
                    L441.76 100.00
                    C462.88 100.00 480.00 117.12 480.00 138.24
                    L480.00 241.76
                    C480.00 262.88 462.88 280.00 441.76 280.00
                    Z
                    "
                fill="rgb(0, 128, 255)"
                />
            
        </g>
        
        
        <!-- ** Rounded Rectangle *************** -->
        
        <g>
            <path
                d="
                    M98.84 280.00
                    C77.39 280.00 60.00 262.61 60.00 241.16
                    L60.00 228.84
                    C60.00 207.39 77.39 190.00 98.84 190.00
                    L441.16 190.00
                    C462.61 190.00 480.00 207.39 480.00 228.84
                    L480.00 241.16
                    C480.00 262.61 462.61 280.00 441.16 280.00
                    Z
                    "
                fill="rgb(102, 204, 255)"
                />
            
            
            <text x="157.30" y="263.00"
            >
                <tspan style="font-family:Helvetica; font-size:14px; font-style:normal; font-weight:normal;" fill="rgb(0, 0, 0)">AMMDK SPI Communication Library</tspan>
            </text>
        </g>
        
        
        <!-- ** Rectangle *************** -->
        
        <g>
            <rect x="60.00" y="140.00" width="420.00" height="100.00"
                fill="rgb(0, 128, 255)"
                />
            
            
            <text x="67.90" y="163.50"
            >
                <tspan style="font-family:Helvetica; font-size:18px; font-style:normal; font-weight:normal;" fill="rgb(0, 0, 0)">Configures AMMDK library for needed data access
                </tspan>
            </text>
            <text x="80.76" y="185.50"
            >
                <tspan style="font-family:Helvetica; font-size:18px; font-style:normal; font-weight:normal;" fill="rgb(0, 0, 0)">Transmits and receives data via AMMDK library
                </tspan>
            </text>
            <text x="149.93" y="207.50"
            >
                <tspan style="font-family:Helvetica; font-size:18px; font-style:normal; font-weight:normal;" fill="rgb(0, 0, 0)">Manages any local physiology
                </tspan>
            </text>
            <text x="146.94" y="229.50"
            >
                <tspan style="font-family:Helvetica; font-size:18px; font-style:normal; font-weight:normal;" fill="rgb(0, 0, 0)">Manages local simulation state</tspan>
            </text>
        </g>
        
        
        <!-- ** Rounded Rectangle *************** -->
        
        <g>
            <path
                d="
                    M100.14 150.00
                    C77.97 150.00 60.00 138.81 60.00 125.00
                    L60.00 125.00
                    C60.00 111.19 77.97 100.00 100.14 100.00
                    L439.86 100.00
                    C462.03 100.00 480.00 111.19 480.00 125.00
                    L480.00 125.00
                    C480.00 138.81 462.03 150.00 439.86 150.00
                    Z
                    "
                fill="none"
                />
            
            
            <text x="169.76" y="137.00"
            >
                <tspan style="font-family:Helvetica; font-size:24px; font-style:normal; font-weight:normal;" fill="rgb(0, 0, 0)">Module Application</tspan>
            </text>
        </g>
        
        
        <!-- ** Rounded Rectangle *************** -->
        
        <g>
            <path
                d="
                    M97.82 590.00
                    C71.41 590.00 50.00 568.59 50.00 542.18
                    L50.00 397.82
                    C50.00 371.41 71.41 350.00 97.82 350.00
                    L442.18 350.00
                    C468.59 350.00 490.00 371.41 490.00 397.82
                    L490.00 542.18
                    C490.00 568.59 468.59 590.00 442.18 590.00
                    Z
                    "
                fill="rgb(153, 153, 153)"
                />
            
            
            <text x="212.91" y="388.00"
            >
                <tspan style="font-family:Helvetica; font-size:24px; font-style:normal; font-weight:normal;" fill="rgb(0, 0, 0)">FreeRTOS</tspan>
            </text>
        </g>
        
        
        <!-- ** Rounded Rectangle *************** -->
        
        <g>
            <path
                d="
                    M98.24 580.00
                    C77.12 580.00 60.00 562.88 60.00 541.76
                    L60.00 448.24
                    C60.00 427.12 77.12 410.00 98.24 410.00
                    L441.76 410.00
                    C462.88 410.00 480.00 427.12 480.00 448.24
                    L480.00 541.76
                    C480.00 562.88 462.88 580.00 441.76 580.00
                    Z
                    "
                fill="rgb(0, 128, 255)"
                />
            
        </g>
        
        
        <!-- ** Rounded Rectangle *************** -->
        
        <g>
            <path
                d="
                    M98.84 580.00
                    C77.39 580.00 60.00 562.61 60.00 541.16
                    L60.00 498.84
                    C60.00 477.39 77.39 460.00 98.84 460.00
                    L441.16 460.00
                    C462.61 460.00 480.00 477.39 480.00 498.84
                    L480.00 541.16
                    C480.00 562.61 462.61 580.00 441.16 580.00
                    Z
                    "
                fill="rgb(102, 204, 255)"
                />
            
            
            <text x="157.30" y="563.00"
            >
                <tspan style="font-family:Helvetica; font-size:14px; font-style:normal; font-weight:normal;" fill="rgb(0, 0, 0)">AMMDK SPI Communication Library</tspan>
            </text>
        </g>
        
        
        <!-- ** Rectangle *************** -->
        
        <g>
            <rect x="60.00" y="450.00" width="420.00" height="90.00"
                fill="rgb(0, 128, 255)"
                />
            
            
            <text x="110.42" y="468.50"
            >
                <tspan style="font-family:Helvetica; font-size:18px; font-style:normal; font-weight:normal;" fill="rgb(0, 0, 0)">Communicates with Module App via SPI
                </tspan>
            </text>
            <text x="120.92" y="490.50"
            >
                <tspan style="font-family:Helvetica; font-size:18px; font-style:normal; font-weight:normal;" fill="rgb(0, 0, 0)">Interfaces with sensors and actuators
                </tspan>
            </text>
            <text x="114.11" y="512.50"
            >
                <tspan style="font-family:Helvetica; font-size:18px; font-style:normal; font-weight:normal;" fill="rgb(0, 0, 0)">Reads/Writes to GPIO, ADC, DAC, etc.
                </tspan>
            </text>
            <text x="88.39" y="534.50"
            >
                <tspan style="font-family:Helvetica; font-size:18px; font-style:normal; font-weight:normal;" fill="rgb(0, 0, 0)">Can be replaced/extended with Custom Code</tspan>
            </text>
        </g>
        
        
        <!-- ** Rounded Rectangle *************** -->
        
        <g>
            <path
                d="
                    M100.14 460.00
                    C77.97 460.00 60.00 448.81 60.00 435.00
                    L60.00 435.00
                    C60.00 421.19 77.97 410.00 100.14 410.00
                    L439.86 410.00
                    C462.03 410.00 480.00 421.19 480.00 435.00
                    L480.00 435.00
                    C480.00 448.81 462.03 460.00 439.86 460.00
                    Z
                    "
                fill="none"
                />
            
            
            <text x="167.13" y="447.00"
            >
                <tspan style="font-family:Helvetica; font-size:24px; font-style:normal; font-weight:normal;" fill="rgb(0, 0, 0)">Remote I/O Control</tspan>
            </text>
        </g>
        
        
        <!-- ** Smart Path *************** -->
        
        <g>
            <defs>
                <clipPath id="clipPath-827A35AC-4EA6-4858-B585-308D8056DD81">
                    <path d="
                        M-10000,-10000 h100000 v100000 h-100000 v-100000
                        M603.13 99.57
                        L604.56 91.70
                        L618.33 94.20
                        L615.47 109.94
                        L601.70 107.44
                        Z
                        "
                    clip-rule="evenodd"/>
                </clipPath>
            </defs>
            
            <path
                d="
                    M490.00 170.00
                    C490.00 170.00 514.44 173.53 530.00 160.00
                    C545.56 146.47 540.03 125.05 560.00 110.00
                    C579.97 94.95 610.00 100.00 610.00 100.00
                    "
                clip-path="url(#clipPath-827A35AC-4EA6-4858-B585-308D8056DD81)"
                transform="
                    translate(0.5 0.5)
                    "
                fill="none"
                stroke-width="2.00"
                stroke-linecap="butt"
                stroke-linejoin="round"
                stroke="rgb(0, 0, 0)"
                />
            
            
            <path
                d="
                    M603.71 99.68
                    L605.03 92.38
                    L610.02 100.82
                    L602.38 106.97
                    Z
                    "
                fill="rgb(0, 0, 0)"
                stroke-width="1.00"
                stroke-linecap="butt"
                stroke-linejoin="miter"
                stroke="rgb(0, 0, 0)"
                />
        </g>
        
        
        <!-- ** Text *************** -->
        
        <g>
            <path
                d="
                    M510.00 90.00
                    L552.00 90.00
                    L552.00 134.00
                    L510.00 134.00
                    Z
                    "
                fill="none"
                />
            
            
            <text x="511.16" y="107.00"
            >
                <tspan style="font-family:Helvetica; font-size:17px; font-style:normal; font-weight:normal;" fill="rgb(0, 0, 0)">Runs
                </tspan>
            </text>
            <text x="521.55" y="127.00"
            >
                <tspan style="font-family:Helvetica; font-size:17px; font-style:normal; font-weight:normal;" fill="rgb(0, 0, 0)">on</tspan>
            </text>
        </g>
        
        
        <!-- ** Smart Path *************** -->
        
        <g>
            <defs>
                <clipPath id="clipPath-8959C801-A68D-4062-B1EA-1CF20B42EBDF">
                    <path d="
                        M-10000,-10000 h100000 v100000 h-100000 v-100000
                        M613.00 331.09
                        L612.91 323.09
                        L626.91 322.93
                        L627.09 338.93
                        L613.09 339.09
                        Z
                        "
                    clip-rule="evenodd"/>
                </clipPath>
            </defs>
            
            <path
                d="
                    M490.00 458.00
                    C490.00 458.00 518.16 451.35 530.00 430.00
                    C541.84 408.65 533.60 368.87 550.00 350.00
                    C566.40 331.13 620.00 330.00 620.00 330.00
                    "
                clip-path="url(#clipPath-8959C801-A68D-4062-B1EA-1CF20B42EBDF)"
                transform="
                    translate(0.5 0.5)
                    "
                fill="none"
                stroke-width="2.00"
                stroke-linecap="butt"
                stroke-linejoin="round"
                stroke="rgb(0, 0, 0)"
                />
            
            
            <path
                d="
                    M613.59 331.09
                    L613.50 323.67
                    L620.00 331.01
                    L613.67 338.50
                    Z
                    "
                fill="rgb(0, 0, 0)"
                stroke-width="1.00"
                stroke-linecap="butt"
                stroke-linejoin="miter"
                stroke="rgb(0, 0, 0)"
                />
        </g>
        
        
        <!-- ** Text *************** -->
        
        <g>
            <path
                d="
                    M540.00 390.00
                    L580.00 390.00
                    L580.00 430.00
                    L540.00 430.00
                    Z
                    "
                fill="none"
                />
            
            
            <text x="540.16" y="405.00"
            >
                <tspan style="font-family:Helvetica; font-size:17px; font-style:normal; font-weight:normal;" fill="rgb(0, 0, 0)">Runs
                </tspan>
            </text>
            <text x="550.55" y="425.00"
            >
                <tspan style="font-family:Helvetica; font-size:17px; font-style:normal; font-weight:normal;" fill="rgb(0, 0, 0)">on</tspan>
            </text>
        </g>
        
        
        <!-- ** Smart Path *************** -->
        
        <g>
            <defs>
                <clipPath id="clipPath-31567761-B386-4D74-A10C-0A6CBADB1314">
                    <path d="
                        M-10000,-10000 h100000 v100000 h-100000 v-100000
                        M733.00 341.09
                        L732.96 346.09
                        L710.96 345.92
                        L711.04 335.92
                        L733.04 336.09
                        Z
                        "
                    clip-rule="evenodd"/>
                </clipPath>
            </defs>
            
            <path
                d="
                    M800.00 330.00
                    C800.00 330.00 797.00 339.02 790.00 340.00
                    C783.00 340.98 720.00 340.00 720.00 340.00
                    "
                clip-path="url(#clipPath-31567761-B386-4D74-A10C-0A6CBADB1314)"
                transform="
                    translate(0.5 0.5)
                    "
                fill="none"
                stroke-width="2.00"
                stroke-linecap="butt"
                stroke-linejoin="round"
                stroke="rgb(0, 0, 0)"
                />
            
            
            <path
                d="
                    M732.41 341.09
                    L732.38 345.50
                    L722.00 341.01
                    L732.45 336.67
                    Z
                    "
                fill="rgb(0, 0, 0)"
                stroke-width="1.41"
                stroke-linecap="butt"
                stroke-linejoin="miter"
                stroke="rgb(0, 0, 0)"
                />
        </g>
        
        
        <!-- ** Text *************** -->
        
        <g>
            <path
                d="
                    M740.00 330.00
                    L779.00 330.00
                    L779.00 353.00
                    L740.00 353.00
                    Z
                    "
                fill="none"
                />
            
            
            <text x="744.77" y="338.00"
            >
                <tspan style="font-family:ArialMT; font-size:10px; font-style:normal; font-weight:normal;" fill="rgb(0, 0, 0)">Debug
                </tspan>
            </text>
            <text x="740.04" y="349.33"
            >
                <tspan style="font-family:ArialMT; font-size:10px; font-style:normal; font-weight:normal;" fill="rgb(0, 0, 0)">Interface</tspan>
            </text>
        </g>
        
    </g>
</svg>

