G04*
G04 #@! TF.GenerationSoftware,Altium Limited,Altium Designer,18.0.12 (696)*
G04*
G04 Layer_Color=16711935*
%FSLAX25Y25*%
%MOIN*%
G70*
G01*
G75*
%ADD32R,0.04737X0.03162*%
%ADD33R,0.03162X0.04737*%
%ADD37R,0.05328X0.06312*%
%ADD39R,0.05249X0.06391*%
%ADD44C,0.11811*%
%ADD46R,0.06312X0.05524*%
%ADD47R,0.05524X0.06312*%
%ADD49C,0.07887*%
%ADD50R,0.07887X0.07887*%
%ADD51R,0.07887X0.07887*%
%ADD52C,0.00800*%
%ADD53C,0.07099*%
%ADD54R,0.07099X0.07099*%
%ADD55C,0.22441*%
%ADD76C,0.06299*%
%ADD77O,0.02572X0.06312*%
%ADD78O,0.06312X0.02572*%
%ADD79R,0.06391X0.05249*%
%ADD80R,0.05131X0.03950*%
%ADD81R,0.11430X0.05524*%
%ADD82R,0.06312X0.11036*%
D32*
X512276Y186000D02*
D03*
X521724Y182260D02*
D03*
Y189740D02*
D03*
D33*
X215000Y192724D02*
D03*
X211260Y183276D02*
D03*
X218740D02*
D03*
D37*
X230555Y338000D02*
D03*
X237445D02*
D03*
X214555D02*
D03*
X221445D02*
D03*
X158445Y297000D02*
D03*
X151555D02*
D03*
X157890Y238000D02*
D03*
X151000D02*
D03*
X158445Y267000D02*
D03*
X151555D02*
D03*
D39*
X190816Y307100D02*
D03*
X197784D02*
D03*
X520484Y206000D02*
D03*
X513516D02*
D03*
X520484Y214000D02*
D03*
X513516D02*
D03*
X251484Y189000D02*
D03*
X244516D02*
D03*
X251484Y180000D02*
D03*
X244516D02*
D03*
X267484Y195000D02*
D03*
X260516D02*
D03*
X251484Y198000D02*
D03*
X244516D02*
D03*
X267484Y204000D02*
D03*
X260516D02*
D03*
X251484Y207000D02*
D03*
X244516D02*
D03*
X267484Y213000D02*
D03*
X260516D02*
D03*
X251484Y216000D02*
D03*
X244516D02*
D03*
X267484Y222000D02*
D03*
X260516D02*
D03*
X251484Y225000D02*
D03*
X244516D02*
D03*
D44*
X699000Y85000D02*
D03*
X459600Y350500D02*
D03*
X126000Y308000D02*
D03*
D46*
X231000Y191346D02*
D03*
Y184654D02*
D03*
D47*
X513654Y198000D02*
D03*
X520346D02*
D03*
D49*
X437000Y173000D02*
D03*
X417000D02*
D03*
X427000D02*
D03*
X697500Y330000D02*
D03*
Y310000D02*
D03*
Y320000D02*
D03*
X207500Y350000D02*
D03*
X227500D02*
D03*
X217500D02*
D03*
X230000Y295000D02*
D03*
Y315000D02*
D03*
Y305000D02*
D03*
X125000Y350000D02*
D03*
X145000D02*
D03*
X135000D02*
D03*
X230000Y270000D02*
D03*
D50*
X407000Y173000D02*
D03*
X237500Y350000D02*
D03*
X155000D02*
D03*
D51*
X697500Y300000D02*
D03*
X230000Y325000D02*
D03*
Y280000D02*
D03*
D52*
X693830Y288565D02*
D03*
Y176163D02*
D03*
X658730Y288565D02*
D03*
Y176163D02*
D03*
D53*
X695993Y155423D02*
D03*
X703867Y123927D02*
D03*
X695993Y147549D02*
D03*
X703867D02*
D03*
X695993Y139675D02*
D03*
X703867D02*
D03*
X695993Y131801D02*
D03*
X703867D02*
D03*
X695993Y123927D02*
D03*
X703867Y116053D02*
D03*
X695993D02*
D03*
X703867Y108179D02*
D03*
X695993D02*
D03*
X703867Y100305D02*
D03*
X695993D02*
D03*
D54*
X703867Y155423D02*
D03*
D55*
X698780Y63849D02*
D03*
Y352364D02*
D03*
X181230D02*
D03*
D76*
X197550Y293800D02*
X197396Y294773D01*
X196948Y295651D01*
X196251Y296348D01*
X195373Y296796D01*
X194400Y296950D01*
X193427Y296796D01*
X192549Y296348D01*
X191852Y295651D01*
X191404Y294773D01*
X191250Y293800D01*
X191404Y292827D01*
X191852Y291949D01*
X192549Y291252D01*
X193427Y290805D01*
X194400Y290650D01*
X195373Y290805D01*
X196251Y291252D01*
X196948Y291949D01*
X197396Y292827D01*
X197550Y293800D01*
D77*
X505236Y178287D02*
D03*
X502677D02*
D03*
X500118D02*
D03*
X497559D02*
D03*
X495000D02*
D03*
X492441D02*
D03*
X489882D02*
D03*
X487323D02*
D03*
X484764D02*
D03*
X505236Y201713D02*
D03*
X502677D02*
D03*
X500118D02*
D03*
X497559D02*
D03*
X495000D02*
D03*
X492441D02*
D03*
X489882D02*
D03*
X487323D02*
D03*
X484764D02*
D03*
D78*
X209287Y200764D02*
D03*
Y203323D02*
D03*
Y205882D02*
D03*
Y208441D02*
D03*
Y211000D02*
D03*
Y213559D02*
D03*
Y216118D02*
D03*
Y218677D02*
D03*
Y221236D02*
D03*
X232713Y200764D02*
D03*
Y203323D02*
D03*
Y205882D02*
D03*
Y208441D02*
D03*
Y211000D02*
D03*
Y213559D02*
D03*
Y216118D02*
D03*
Y218677D02*
D03*
Y221236D02*
D03*
D79*
X507000Y218484D02*
D03*
Y211516D02*
D03*
X502000Y233484D02*
D03*
Y226516D02*
D03*
X498000Y218484D02*
D03*
Y211516D02*
D03*
X493000Y233484D02*
D03*
Y226516D02*
D03*
X489000Y218484D02*
D03*
Y211516D02*
D03*
X484000Y233484D02*
D03*
Y226516D02*
D03*
X480000Y218484D02*
D03*
Y211516D02*
D03*
X476000Y233484D02*
D03*
Y226516D02*
D03*
D80*
X704657Y279864D02*
D03*
X683003D02*
D03*
X704657Y274864D02*
D03*
X683003D02*
D03*
X704657Y269864D02*
D03*
X683003D02*
D03*
X704657Y264864D02*
D03*
X683003D02*
D03*
X704657Y259864D02*
D03*
X683003D02*
D03*
X704657Y254864D02*
D03*
X683003D02*
D03*
X704657Y249864D02*
D03*
X683003D02*
D03*
X704657Y244864D02*
D03*
X683003D02*
D03*
X704657Y239864D02*
D03*
X683003D02*
D03*
X704657Y234864D02*
D03*
X683003D02*
D03*
Y229864D02*
D03*
X704657D02*
D03*
X683003Y224864D02*
D03*
X704657D02*
D03*
X683003Y219864D02*
D03*
X704657D02*
D03*
Y214864D02*
D03*
X683003D02*
D03*
X704657Y209864D02*
D03*
X683003D02*
D03*
X704657Y204864D02*
D03*
X683003D02*
D03*
X704657Y199864D02*
D03*
X683003D02*
D03*
X704657Y194864D02*
D03*
X683003D02*
D03*
X704657Y189864D02*
D03*
X683003D02*
D03*
X704657Y184864D02*
D03*
X683003D02*
D03*
X669557Y279864D02*
D03*
X647903D02*
D03*
X669557Y274864D02*
D03*
X647903D02*
D03*
X669557Y269864D02*
D03*
X647903D02*
D03*
X669557Y264864D02*
D03*
X647903D02*
D03*
X669557Y259864D02*
D03*
X647903D02*
D03*
X669557Y254864D02*
D03*
X647903D02*
D03*
X669557Y249864D02*
D03*
X647903D02*
D03*
X669557Y244864D02*
D03*
X647903D02*
D03*
X669557Y239864D02*
D03*
X647903D02*
D03*
X669557Y234864D02*
D03*
X647903D02*
D03*
Y229864D02*
D03*
X669557D02*
D03*
X647903Y224864D02*
D03*
X669557D02*
D03*
X647903Y219864D02*
D03*
X669557D02*
D03*
Y214864D02*
D03*
X647903D02*
D03*
X669557Y209864D02*
D03*
X647903D02*
D03*
X669557Y204864D02*
D03*
X647903D02*
D03*
X669557Y199864D02*
D03*
X647903D02*
D03*
X669557Y194864D02*
D03*
X647903D02*
D03*
X669557Y189864D02*
D03*
X647903D02*
D03*
X669557Y184864D02*
D03*
X647903D02*
D03*
D81*
X684185Y289687D02*
D03*
Y175041D02*
D03*
X703476D02*
D03*
Y289687D02*
D03*
X649085D02*
D03*
Y175041D02*
D03*
X668376D02*
D03*
Y289687D02*
D03*
D82*
X204636Y293800D02*
D03*
X184164D02*
D03*
M02*
