M48
;Layer_Color=9474304
;FILE_FORMAT=2:5
INCH,TZ
;TYPE=PLATED
T1F00S00C0.01800
T2F00S00C0.01968
T3F00S00C0.03150
T4F00S00C0.04331
;TYPE=NON_PLATED
T5F00S00C0.06496
T6F00S00C0.12598
%
T01
X476000Y170500
X472000Y175000
X486000Y168000
X495500Y170000
X505500Y168000
X515500Y170000
X524975Y169617
X461500Y175000
X202500Y172500
X203200Y182000
X200400Y192000
X197000Y201700
X198524Y211500
X200500Y221500
X205500Y231000
X206000Y243500
X164000Y238000
Y267000
T02
X627800Y170700
X634000Y171000
X638000
X640338Y200364
X643270Y209864
Y219864
Y229864
Y239864
Y249864
Y259864
Y269864
X652537Y274864
Y264864
Y254864
Y244864
Y234864
X664923Y239864
Y249864
Y259864
Y269864
Y279864
X678400
X674191Y274864
Y264864
X687864
Y259864
X700136
X699864Y244864
Y239864
X699600Y234900
X687636Y234864
Y239864
X687500Y245000
X674191Y244864
Y234864
Y224864
X674400Y214600
X674191Y204864
Y194864
Y184864
X664923Y189864
Y199864
Y209864
X658800Y212700
X663500Y220200
X664923Y229864
X687864Y224864
Y219864
X687600Y204864
X687864Y194864
X700300Y166200
X652537Y204864
X671500Y294900
X683400Y295000
X692000Y275400
X581446Y248654
X569400Y241400
X549300Y240300
X542300Y239900
X548800Y249100
X545700Y222000
X539300Y222700
X523236Y240900
X514200Y235500
X507284Y235084
X504400Y239000
X510516Y247700
X492200Y241700
X487200Y238600
X470700Y235100
Y196100
X475500Y182100
X507500Y194000
X526500Y198000
X533300Y266500
X510516Y288300
X553900Y310800
X623800Y170700
X430500Y221600
X425700Y229300
X415000Y252100
X378900Y226800
X387000Y216000
X354200Y200900
X339400Y176751
X329606Y176800
X319764Y187081
X334000Y223500
X449000Y279500
X452200Y289300
X272300Y246600
X264800Y241600
X267500Y227300
X254400Y252300
X247500Y251800
X227900Y234600
X193600Y255600
X183306Y247394
X162800Y258500
X163000Y286500
X165700Y297000
X178500Y309400
X210400Y293800
X220100Y178200
X230600Y176600
X270600Y176800
X285400Y177800
X280394Y184000
X290236Y185719
X303131Y176600
X309921Y176800
X255700Y199300
X388500Y313000
X542000Y329800
X558600Y322800
X546500Y352000
X591200Y312800
X624400Y313200
X657900Y313500
X683600Y329000
T03
X695993Y100305
Y108179
Y116053
Y123927
X703867
Y116053
Y108179
Y100305
Y131801
Y139675
Y147549
Y155423
X695993
Y147549
Y139675
Y131801
T04
X697500Y300000
Y310000
X437000Y173000
X427000
X417000
X407000
X230000Y270000
Y280000
Y295000
Y305000
X155000Y350000
X145000
X135000
X125000
X207500
X217500
X227500
X237500
X230000Y325000
Y315000
X697500Y320000
Y330000
T05
X658730Y176163
X693830
Y288565
X658730
T06
X698780Y63849
X181230Y352364
X698780
M30
