G04*
G04 #@! TF.GenerationSoftware,Altium Limited,Altium Designer,18.0.12 (696)*
G04*
G04 Layer_Physical_Order=2*
G04 Layer_Color=36540*
%FSLAX25Y25*%
%MOIN*%
G70*
G01*
G75*
%ADD14C,0.01500*%
%ADD56C,0.03937*%
%ADD57C,0.00500*%
%ADD58C,0.03000*%
%ADD59C,0.05000*%
%ADD60C,0.02000*%
%ADD62C,0.07087*%
%ADD65C,0.06299*%
%ADD68C,0.03500*%
G36*
X712477Y93000D02*
X685083Y93000D01*
Y158706D01*
X685022Y159013D01*
X684848Y159274D01*
X684587Y159448D01*
X684280Y159509D01*
X631500D01*
X631500Y167500D01*
X642500Y167500D01*
X692500Y167500D01*
Y157278D01*
X692158Y156451D01*
X692022Y155423D01*
X692158Y154395D01*
X692500Y153568D01*
Y149404D01*
X692158Y148577D01*
X692022Y147549D01*
X692158Y146521D01*
X692500Y145694D01*
Y141529D01*
X692158Y140703D01*
X692022Y139675D01*
X692158Y138647D01*
X692500Y137820D01*
Y133655D01*
X692158Y132829D01*
X692022Y131801D01*
X692158Y130773D01*
X692500Y129946D01*
X692500Y125781D01*
X692158Y124955D01*
X692022Y123927D01*
X692158Y122899D01*
X692500Y122072D01*
Y117907D01*
X692158Y117081D01*
X692022Y116053D01*
X692158Y115025D01*
X692500Y114198D01*
Y112000D01*
X693335D01*
X693505Y111500D01*
X693034Y111138D01*
X692369Y110272D01*
X691950Y109262D01*
X691939Y109179D01*
X695993D01*
Y107179D01*
X691939D01*
X691950Y107096D01*
X692369Y106086D01*
X693034Y105219D01*
X693900Y104554D01*
X694051Y104492D01*
Y103992D01*
X693900Y103929D01*
X693034Y103264D01*
X692369Y102398D01*
X691950Y101388D01*
X691939Y101305D01*
X695993D01*
Y100305D01*
X696993D01*
Y96251D01*
X697077Y96262D01*
X698086Y96680D01*
X698953Y97345D01*
X699618Y98212D01*
X699680Y98363D01*
X700180D01*
X700243Y98212D01*
X700908Y97345D01*
X701775Y96680D01*
X702784Y96262D01*
X702867Y96251D01*
Y100305D01*
X703867D01*
Y101305D01*
X707921D01*
X707910Y101388D01*
X707492Y102398D01*
X706827Y103264D01*
X705960Y103929D01*
X705809Y103992D01*
Y104492D01*
X705960Y104554D01*
X706827Y105219D01*
X707492Y106086D01*
X707910Y107096D01*
X707921Y107179D01*
X703867D01*
Y109179D01*
X707921D01*
X707910Y109262D01*
X707492Y110272D01*
X706827Y111138D01*
X706355Y111500D01*
X706525Y112000D01*
X708000D01*
X708000Y315000D01*
X698159Y315000D01*
X698127Y315500D01*
X698686Y315574D01*
X699791Y316031D01*
X700740Y316760D01*
X701469Y317709D01*
X701926Y318814D01*
X701951Y319000D01*
X697500D01*
Y321000D01*
X701951D01*
X701926Y321186D01*
X701469Y322291D01*
X700740Y323240D01*
X699791Y323969D01*
X698686Y324426D01*
X698127Y324500D01*
X698160Y325000D01*
X712477Y325000D01*
Y93000D01*
D02*
G37*
G36*
X197703Y297042D02*
X197468D01*
Y297312D01*
X197703D01*
Y297042D01*
D02*
G37*
G36*
X196623Y296810D02*
X196637D01*
X196658Y296807D01*
X196700Y296800D01*
X196748Y296790D01*
X196802Y296772D01*
X196855Y296750D01*
X196907Y296720D01*
X196910D01*
X196913Y296715D01*
X196920Y296710D01*
X196930Y296702D01*
X196955Y296682D01*
X196985Y296652D01*
X197018Y296615D01*
X197053Y296572D01*
X197085Y296520D01*
X197115Y296460D01*
Y296457D01*
X197117Y296452D01*
X197123Y296442D01*
X197125Y296430D01*
X197133Y296415D01*
X197137Y296397D01*
X197143Y296375D01*
X197150Y296352D01*
X197162Y296297D01*
X197175Y296237D01*
X197183Y296167D01*
X197185Y296095D01*
Y296092D01*
Y296085D01*
Y296075D01*
Y296060D01*
X197183Y296040D01*
X197180Y296017D01*
X197178Y295995D01*
X197175Y295967D01*
X197165Y295907D01*
X197152Y295842D01*
X197133Y295775D01*
X197108Y295710D01*
Y295707D01*
X197105Y295702D01*
X197100Y295695D01*
X197092Y295682D01*
X197085Y295667D01*
X197075Y295652D01*
X197050Y295615D01*
X197018Y295572D01*
X196980Y295527D01*
X196935Y295487D01*
X196882Y295450D01*
X196880D01*
X196875Y295445D01*
X196868Y295442D01*
X196858Y295435D01*
X196845Y295430D01*
X196827Y295422D01*
X196790Y295405D01*
X196745Y295387D01*
X196693Y295375D01*
X196635Y295365D01*
X196575Y295360D01*
X196555D01*
X196532Y295362D01*
X196505Y295367D01*
X196473Y295372D01*
X196435Y295380D01*
X196400Y295392D01*
X196362Y295410D01*
X196358Y295412D01*
X196347Y295420D01*
X196330Y295430D01*
X196310Y295445D01*
X196285Y295462D01*
X196260Y295485D01*
X196235Y295507D01*
X196210Y295535D01*
Y294857D01*
X195975D01*
Y296782D01*
X196190D01*
Y296600D01*
X196193Y296605D01*
X196203Y296617D01*
X196220Y296635D01*
X196240Y296660D01*
X196265Y296685D01*
X196292Y296710D01*
X196325Y296735D01*
X196360Y296757D01*
X196365Y296760D01*
X196378Y296765D01*
X196397Y296775D01*
X196425Y296785D01*
X196460Y296795D01*
X196500Y296805D01*
X196545Y296810D01*
X196592Y296812D01*
X196610D01*
X196623Y296810D01*
D02*
G37*
G36*
X192048D02*
X192080Y296807D01*
X192115Y296800D01*
X192155Y296792D01*
X192195Y296780D01*
X192235Y296765D01*
X192240Y296762D01*
X192253Y296757D01*
X192270Y296747D01*
X192295Y296732D01*
X192320Y296717D01*
X192345Y296697D01*
X192370Y296672D01*
X192393Y296647D01*
X192395Y296645D01*
X192400Y296635D01*
X192410Y296620D01*
X192422Y296597D01*
X192432Y296572D01*
X192445Y296542D01*
X192455Y296510D01*
X192465Y296472D01*
Y296470D01*
X192467Y296460D01*
X192470Y296442D01*
X192473Y296420D01*
X192475Y296387D01*
X192478Y296350D01*
X192480Y296302D01*
Y296245D01*
Y295390D01*
X192245D01*
Y296235D01*
Y296237D01*
Y296242D01*
Y296247D01*
Y296257D01*
X192243Y296285D01*
Y296315D01*
X192237Y296350D01*
X192233Y296385D01*
X192225Y296417D01*
X192215Y296447D01*
Y296450D01*
X192210Y296460D01*
X192202Y296472D01*
X192192Y296490D01*
X192180Y296507D01*
X192163Y296527D01*
X192142Y296545D01*
X192118Y296562D01*
X192115Y296565D01*
X192105Y296570D01*
X192090Y296577D01*
X192070Y296585D01*
X192048Y296592D01*
X192020Y296600D01*
X191988Y296605D01*
X191955Y296607D01*
X191940D01*
X191930Y296605D01*
X191900Y296602D01*
X191865Y296595D01*
X191825Y296585D01*
X191780Y296567D01*
X191735Y296542D01*
X191692Y296510D01*
X191688Y296505D01*
X191683Y296500D01*
X191675Y296490D01*
X191667Y296480D01*
X191657Y296465D01*
X191650Y296450D01*
X191640Y296430D01*
X191630Y296405D01*
X191620Y296380D01*
X191610Y296350D01*
X191603Y296317D01*
X191595Y296280D01*
X191590Y296240D01*
X191587Y296195D01*
X191585Y296147D01*
Y295390D01*
X191350D01*
Y296782D01*
X191562D01*
Y296582D01*
X191565Y296585D01*
X191570Y296592D01*
X191577Y296605D01*
X191590Y296617D01*
X191607Y296635D01*
X191625Y296655D01*
X191648Y296675D01*
X191675Y296697D01*
X191705Y296720D01*
X191737Y296740D01*
X191772Y296760D01*
X191813Y296777D01*
X191855Y296792D01*
X191900Y296802D01*
X191950Y296810D01*
X192002Y296812D01*
X192025D01*
X192048Y296810D01*
D02*
G37*
G36*
X194142Y296807D02*
X194173Y296802D01*
X194210Y296792D01*
X194253Y296780D01*
X194295Y296760D01*
X194343Y296735D01*
X194260Y296517D01*
X194255Y296520D01*
X194245Y296525D01*
X194228Y296532D01*
X194205Y296542D01*
X194180Y296552D01*
X194150Y296560D01*
X194117Y296565D01*
X194085Y296567D01*
X194072D01*
X194058Y296565D01*
X194037Y296562D01*
X194018Y296555D01*
X193992Y296547D01*
X193970Y296535D01*
X193945Y296520D01*
X193942Y296517D01*
X193935Y296512D01*
X193925Y296500D01*
X193912Y296485D01*
X193897Y296467D01*
X193883Y296445D01*
X193870Y296420D01*
X193858Y296390D01*
Y296387D01*
X193855Y296385D01*
Y296377D01*
X193852Y296367D01*
X193845Y296342D01*
X193840Y296310D01*
X193833Y296267D01*
X193825Y296222D01*
X193823Y296170D01*
X193820Y296115D01*
Y295390D01*
X193585D01*
Y296782D01*
X193798D01*
Y296570D01*
X193800Y296575D01*
X193805Y296582D01*
X193810Y296592D01*
X193827Y296617D01*
X193845Y296647D01*
X193868Y296682D01*
X193893Y296715D01*
X193920Y296742D01*
X193945Y296765D01*
X193948Y296767D01*
X193957Y296772D01*
X193973Y296780D01*
X193990Y296790D01*
X194012Y296797D01*
X194040Y296805D01*
X194068Y296810D01*
X194097Y296812D01*
X194117D01*
X194142Y296807D01*
D02*
G37*
G36*
X198665Y296810D02*
X198685D01*
X198707Y296807D01*
X198730Y296802D01*
X198758Y296797D01*
X198815Y296785D01*
X198878Y296765D01*
X198937Y296735D01*
X198968Y296717D01*
X198995Y296697D01*
X198997Y296695D01*
X199003Y296692D01*
X199007Y296685D01*
X199018Y296677D01*
X199030Y296665D01*
X199042Y296650D01*
X199057Y296632D01*
X199073Y296615D01*
X199105Y296567D01*
X199135Y296512D01*
X199162Y296447D01*
X199182Y296372D01*
X198952Y296337D01*
Y296340D01*
X198950Y296342D01*
Y296350D01*
X198945Y296360D01*
X198937Y296385D01*
X198925Y296415D01*
X198907Y296447D01*
X198888Y296482D01*
X198865Y296515D01*
X198835Y296545D01*
X198832Y296547D01*
X198820Y296557D01*
X198802Y296567D01*
X198780Y296582D01*
X198750Y296595D01*
X198715Y296607D01*
X198678Y296615D01*
X198635Y296617D01*
X198617D01*
X198605Y296615D01*
X198590Y296612D01*
X198573Y296610D01*
X198532Y296602D01*
X198487Y296587D01*
X198440Y296565D01*
X198415Y296550D01*
X198392Y296532D01*
X198370Y296512D01*
X198347Y296490D01*
Y296487D01*
X198343Y296485D01*
X198337Y296477D01*
X198330Y296465D01*
X198322Y296452D01*
X198312Y296435D01*
X198302Y296415D01*
X198293Y296392D01*
X198283Y296365D01*
X198273Y296335D01*
X198263Y296302D01*
X198255Y296267D01*
X198248Y296227D01*
X198242Y296185D01*
X198240Y296137D01*
X198238Y296087D01*
Y296085D01*
Y296075D01*
Y296060D01*
X198240Y296042D01*
Y296017D01*
X198242Y295992D01*
X198248Y295962D01*
X198250Y295932D01*
X198263Y295865D01*
X198283Y295797D01*
X198308Y295735D01*
X198325Y295705D01*
X198343Y295680D01*
X198345Y295677D01*
X198347Y295675D01*
X198363Y295660D01*
X198385Y295640D01*
X198417Y295617D01*
X198458Y295595D01*
X198505Y295575D01*
X198560Y295560D01*
X198590Y295557D01*
X198623Y295555D01*
X198635D01*
X198645Y295557D01*
X198670Y295560D01*
X198703Y295565D01*
X198740Y295575D01*
X198777Y295590D01*
X198815Y295610D01*
X198853Y295637D01*
X198857Y295642D01*
X198867Y295652D01*
X198885Y295675D01*
X198902Y295702D01*
X198923Y295740D01*
X198942Y295785D01*
X198960Y295837D01*
X198972Y295900D01*
X199205Y295867D01*
Y295865D01*
X199203Y295857D01*
X199200Y295845D01*
X199197Y295827D01*
X199190Y295807D01*
X199185Y295785D01*
X199175Y295757D01*
X199165Y295730D01*
X199140Y295670D01*
X199105Y295607D01*
X199085Y295577D01*
X199063Y295547D01*
X199035Y295520D01*
X199007Y295492D01*
X199005Y295490D01*
X199000Y295487D01*
X198993Y295480D01*
X198980Y295472D01*
X198965Y295462D01*
X198948Y295450D01*
X198925Y295437D01*
X198902Y295427D01*
X198875Y295415D01*
X198845Y295402D01*
X198780Y295380D01*
X198707Y295365D01*
X198668Y295362D01*
X198625Y295360D01*
X198612D01*
X198598Y295362D01*
X198577D01*
X198553Y295365D01*
X198525Y295370D01*
X198495Y295375D01*
X198460Y295382D01*
X198425Y295392D01*
X198388Y295405D01*
X198350Y295420D01*
X198312Y295437D01*
X198275Y295460D01*
X198238Y295485D01*
X198200Y295512D01*
X198168Y295545D01*
X198165Y295547D01*
X198160Y295555D01*
X198152Y295565D01*
X198140Y295580D01*
X198127Y295600D01*
X198112Y295622D01*
X198098Y295650D01*
X198082Y295682D01*
X198065Y295717D01*
X198050Y295757D01*
X198035Y295802D01*
X198022Y295850D01*
X198010Y295902D01*
X198003Y295957D01*
X197997Y296017D01*
X197995Y296080D01*
Y296082D01*
Y296090D01*
Y296102D01*
Y296117D01*
X197997Y296137D01*
X198000Y296160D01*
Y296185D01*
X198005Y296212D01*
X198012Y296275D01*
X198025Y296340D01*
X198043Y296407D01*
X198067Y296472D01*
Y296475D01*
X198070Y296480D01*
X198075Y296490D01*
X198082Y296500D01*
X198100Y296530D01*
X198125Y296567D01*
X198155Y296610D01*
X198195Y296652D01*
X198242Y296692D01*
X198295Y296727D01*
X198298D01*
X198302Y296730D01*
X198310Y296735D01*
X198322Y296740D01*
X198335Y296747D01*
X198353Y296755D01*
X198395Y296770D01*
X198442Y296785D01*
X198500Y296800D01*
X198563Y296810D01*
X198627Y296812D01*
X198650D01*
X198665Y296810D01*
D02*
G37*
G36*
X197703Y295390D02*
X197468D01*
Y296782D01*
X197703D01*
Y295390D01*
D02*
G37*
G36*
X190982Y297085D02*
X189850D01*
Y296500D01*
X190910D01*
Y296272D01*
X189850D01*
Y295617D01*
X191027D01*
Y295390D01*
X189595D01*
Y297312D01*
X190982D01*
Y297085D01*
D02*
G37*
G36*
X193117Y296782D02*
X193355D01*
Y296600D01*
X193117D01*
Y295785D01*
Y295780D01*
Y295767D01*
Y295750D01*
X193120Y295730D01*
Y295707D01*
X193122Y295685D01*
X193125Y295667D01*
X193128Y295652D01*
X193130Y295647D01*
X193138Y295637D01*
X193150Y295622D01*
X193167Y295607D01*
X193170D01*
X193173Y295605D01*
X193180Y295602D01*
X193190Y295600D01*
X193215Y295595D01*
X193250Y295592D01*
X193278D01*
X193292Y295595D01*
X193313D01*
X193333Y295597D01*
X193355Y295600D01*
X193387Y295392D01*
X193383D01*
X193370Y295390D01*
X193352Y295387D01*
X193327Y295382D01*
X193300Y295380D01*
X193270Y295375D01*
X193208Y295372D01*
X193187D01*
X193163Y295375D01*
X193135Y295377D01*
X193103Y295382D01*
X193070Y295390D01*
X193037Y295400D01*
X193010Y295412D01*
X193008Y295415D01*
X192998Y295420D01*
X192988Y295427D01*
X192973Y295440D01*
X192955Y295455D01*
X192938Y295475D01*
X192922Y295495D01*
X192910Y295517D01*
Y295520D01*
X192905Y295532D01*
X192903Y295550D01*
X192897Y295577D01*
X192895Y295595D01*
X192893Y295615D01*
X192890Y295637D01*
X192887Y295665D01*
X192885Y295692D01*
Y295725D01*
X192883Y295760D01*
Y295797D01*
Y296600D01*
X192708D01*
Y296782D01*
X192883D01*
Y297125D01*
X193117Y297267D01*
Y296782D01*
D02*
G37*
G36*
X195092Y296810D02*
X195117Y296807D01*
X195145Y296802D01*
X195177Y296797D01*
X195212Y296790D01*
X195247Y296780D01*
X195285Y296765D01*
X195325Y296750D01*
X195365Y296732D01*
X195405Y296710D01*
X195442Y296685D01*
X195480Y296655D01*
X195515Y296622D01*
X195518Y296620D01*
X195522Y296615D01*
X195533Y296602D01*
X195543Y296587D01*
X195557Y296570D01*
X195572Y296545D01*
X195590Y296517D01*
X195607Y296487D01*
X195623Y296452D01*
X195640Y296415D01*
X195655Y296372D01*
X195670Y296325D01*
X195680Y296275D01*
X195690Y296222D01*
X195695Y296165D01*
X195697Y296105D01*
Y296102D01*
Y296092D01*
Y296080D01*
Y296060D01*
X195695Y296037D01*
X195693Y296012D01*
X195690Y295982D01*
X195687Y295952D01*
X195677Y295885D01*
X195662Y295815D01*
X195642Y295745D01*
X195630Y295712D01*
X195615Y295682D01*
Y295680D01*
X195613Y295675D01*
X195607Y295667D01*
X195600Y295657D01*
X195582Y295630D01*
X195555Y295595D01*
X195522Y295557D01*
X195483Y295517D01*
X195435Y295480D01*
X195380Y295445D01*
X195378D01*
X195372Y295442D01*
X195365Y295437D01*
X195352Y295432D01*
X195340Y295425D01*
X195323Y295417D01*
X195280Y295402D01*
X195232Y295387D01*
X195175Y295372D01*
X195113Y295362D01*
X195045Y295360D01*
X195033D01*
X195018Y295362D01*
X194998D01*
X194973Y295365D01*
X194945Y295370D01*
X194913Y295375D01*
X194878Y295382D01*
X194840Y295392D01*
X194802Y295405D01*
X194765Y295420D01*
X194725Y295437D01*
X194685Y295460D01*
X194648Y295485D01*
X194610Y295512D01*
X194575Y295545D01*
X194572Y295547D01*
X194568Y295555D01*
X194557Y295565D01*
X194547Y295580D01*
X194533Y295600D01*
X194518Y295622D01*
X194502Y295650D01*
X194485Y295682D01*
X194467Y295720D01*
X194453Y295760D01*
X194438Y295802D01*
X194422Y295852D01*
X194413Y295905D01*
X194403Y295960D01*
X194397Y296020D01*
X194395Y296085D01*
Y296090D01*
Y296102D01*
X194397Y296122D01*
Y296147D01*
X194403Y296180D01*
X194407Y296217D01*
X194413Y296257D01*
X194422Y296300D01*
X194432Y296347D01*
X194448Y296395D01*
X194465Y296442D01*
X194485Y296490D01*
X194510Y296535D01*
X194537Y296580D01*
X194570Y296620D01*
X194607Y296657D01*
X194610Y296660D01*
X194615Y296665D01*
X194625Y296672D01*
X194640Y296682D01*
X194658Y296692D01*
X194677Y296707D01*
X194702Y296720D01*
X194730Y296735D01*
X194760Y296750D01*
X194792Y296762D01*
X194830Y296777D01*
X194868Y296787D01*
X194910Y296797D01*
X194952Y296805D01*
X194998Y296810D01*
X195045Y296812D01*
X195072D01*
X195092Y296810D01*
D02*
G37*
G36*
X198378Y294203D02*
X198143D01*
Y294473D01*
X198378D01*
Y294203D01*
D02*
G37*
G36*
X192408D02*
X192173D01*
Y294473D01*
X192408D01*
Y294203D01*
D02*
G37*
G36*
X199437Y293970D02*
X199470Y293968D01*
X199505Y293960D01*
X199545Y293953D01*
X199585Y293940D01*
X199625Y293925D01*
X199630Y293923D01*
X199643Y293918D01*
X199660Y293908D01*
X199685Y293893D01*
X199710Y293878D01*
X199735Y293858D01*
X199760Y293833D01*
X199783Y293808D01*
X199785Y293805D01*
X199790Y293795D01*
X199800Y293780D01*
X199812Y293758D01*
X199822Y293733D01*
X199835Y293703D01*
X199845Y293670D01*
X199855Y293633D01*
Y293630D01*
X199857Y293620D01*
X199860Y293603D01*
X199863Y293580D01*
X199865Y293548D01*
X199867Y293510D01*
X199870Y293463D01*
Y293405D01*
Y292550D01*
X199635D01*
Y293395D01*
Y293398D01*
Y293403D01*
Y293408D01*
Y293418D01*
X199633Y293445D01*
Y293475D01*
X199627Y293510D01*
X199622Y293545D01*
X199615Y293578D01*
X199605Y293608D01*
Y293610D01*
X199600Y293620D01*
X199592Y293633D01*
X199583Y293650D01*
X199570Y293668D01*
X199553Y293688D01*
X199532Y293705D01*
X199507Y293723D01*
X199505Y293725D01*
X199495Y293730D01*
X199480Y293738D01*
X199460Y293745D01*
X199437Y293753D01*
X199410Y293760D01*
X199378Y293765D01*
X199345Y293768D01*
X199330D01*
X199320Y293765D01*
X199290Y293763D01*
X199255Y293755D01*
X199215Y293745D01*
X199170Y293728D01*
X199125Y293703D01*
X199083Y293670D01*
X199077Y293665D01*
X199073Y293660D01*
X199065Y293650D01*
X199057Y293640D01*
X199048Y293625D01*
X199040Y293610D01*
X199030Y293590D01*
X199020Y293565D01*
X199010Y293540D01*
X199000Y293510D01*
X198993Y293478D01*
X198985Y293440D01*
X198980Y293400D01*
X198977Y293355D01*
X198975Y293308D01*
Y292550D01*
X198740D01*
Y293943D01*
X198952D01*
Y293743D01*
X198955Y293745D01*
X198960Y293753D01*
X198968Y293765D01*
X198980Y293778D01*
X198997Y293795D01*
X199015Y293815D01*
X199038Y293835D01*
X199065Y293858D01*
X199095Y293880D01*
X199127Y293900D01*
X199162Y293920D01*
X199203Y293938D01*
X199245Y293953D01*
X199290Y293963D01*
X199340Y293970D01*
X199392Y293973D01*
X199415D01*
X199437Y293970D01*
D02*
G37*
G36*
X193467D02*
X193500Y293968D01*
X193535Y293960D01*
X193575Y293953D01*
X193615Y293940D01*
X193655Y293925D01*
X193660Y293923D01*
X193673Y293918D01*
X193690Y293908D01*
X193715Y293893D01*
X193740Y293878D01*
X193765Y293858D01*
X193790Y293833D01*
X193813Y293808D01*
X193815Y293805D01*
X193820Y293795D01*
X193830Y293780D01*
X193842Y293758D01*
X193852Y293733D01*
X193865Y293703D01*
X193875Y293670D01*
X193885Y293633D01*
Y293630D01*
X193887Y293620D01*
X193890Y293603D01*
X193893Y293580D01*
X193895Y293548D01*
X193897Y293510D01*
X193900Y293463D01*
Y293405D01*
Y292550D01*
X193665D01*
Y293395D01*
Y293398D01*
Y293403D01*
Y293408D01*
Y293418D01*
X193663Y293445D01*
Y293475D01*
X193658Y293510D01*
X193652Y293545D01*
X193645Y293578D01*
X193635Y293608D01*
Y293610D01*
X193630Y293620D01*
X193623Y293633D01*
X193613Y293650D01*
X193600Y293668D01*
X193582Y293688D01*
X193562Y293705D01*
X193537Y293723D01*
X193535Y293725D01*
X193525Y293730D01*
X193510Y293738D01*
X193490Y293745D01*
X193467Y293753D01*
X193440Y293760D01*
X193407Y293765D01*
X193375Y293768D01*
X193360D01*
X193350Y293765D01*
X193320Y293763D01*
X193285Y293755D01*
X193245Y293745D01*
X193200Y293728D01*
X193155Y293703D01*
X193113Y293670D01*
X193107Y293665D01*
X193103Y293660D01*
X193095Y293650D01*
X193087Y293640D01*
X193078Y293625D01*
X193070Y293610D01*
X193060Y293590D01*
X193050Y293565D01*
X193040Y293540D01*
X193030Y293510D01*
X193023Y293478D01*
X193015Y293440D01*
X193010Y293400D01*
X193008Y293355D01*
X193005Y293308D01*
Y292550D01*
X192770D01*
Y293943D01*
X192982D01*
Y293743D01*
X192985Y293745D01*
X192990Y293753D01*
X192998Y293765D01*
X193010Y293778D01*
X193027Y293795D01*
X193045Y293815D01*
X193068Y293835D01*
X193095Y293858D01*
X193125Y293880D01*
X193157Y293900D01*
X193193Y293920D01*
X193233Y293938D01*
X193275Y293953D01*
X193320Y293963D01*
X193370Y293970D01*
X193422Y293973D01*
X193445D01*
X193467Y293970D01*
D02*
G37*
G36*
X189885D02*
X189918Y293968D01*
X189953Y293960D01*
X189992Y293953D01*
X190032Y293940D01*
X190073Y293925D01*
X190077Y293923D01*
X190090Y293918D01*
X190108Y293908D01*
X190132Y293893D01*
X190157Y293878D01*
X190182Y293858D01*
X190208Y293833D01*
X190230Y293808D01*
X190233Y293805D01*
X190237Y293795D01*
X190247Y293780D01*
X190260Y293758D01*
X190270Y293733D01*
X190282Y293703D01*
X190293Y293670D01*
X190303Y293633D01*
Y293630D01*
X190305Y293620D01*
X190307Y293603D01*
X190310Y293580D01*
X190313Y293548D01*
X190315Y293510D01*
X190317Y293463D01*
Y293405D01*
Y292550D01*
X190083D01*
Y293395D01*
Y293398D01*
Y293403D01*
Y293408D01*
Y293418D01*
X190080Y293445D01*
Y293475D01*
X190075Y293510D01*
X190070Y293545D01*
X190062Y293578D01*
X190052Y293608D01*
Y293610D01*
X190048Y293620D01*
X190040Y293633D01*
X190030Y293650D01*
X190017Y293668D01*
X190000Y293688D01*
X189980Y293705D01*
X189955Y293723D01*
X189953Y293725D01*
X189943Y293730D01*
X189927Y293738D01*
X189908Y293745D01*
X189885Y293753D01*
X189857Y293760D01*
X189825Y293765D01*
X189793Y293768D01*
X189778D01*
X189768Y293765D01*
X189737Y293763D01*
X189702Y293755D01*
X189663Y293745D01*
X189618Y293728D01*
X189573Y293703D01*
X189530Y293670D01*
X189525Y293665D01*
X189520Y293660D01*
X189513Y293650D01*
X189505Y293640D01*
X189495Y293625D01*
X189488Y293610D01*
X189478Y293590D01*
X189468Y293565D01*
X189457Y293540D01*
X189447Y293510D01*
X189440Y293478D01*
X189433Y293440D01*
X189427Y293400D01*
X189425Y293355D01*
X189423Y293308D01*
Y292550D01*
X189188D01*
Y293943D01*
X189400D01*
Y293743D01*
X189402Y293745D01*
X189408Y293753D01*
X189415Y293765D01*
X189427Y293778D01*
X189445Y293795D01*
X189462Y293815D01*
X189485Y293835D01*
X189513Y293858D01*
X189542Y293880D01*
X189575Y293900D01*
X189610Y293920D01*
X189650Y293938D01*
X189692Y293953D01*
X189737Y293963D01*
X189787Y293970D01*
X189840Y293973D01*
X189863D01*
X189885Y293970D01*
D02*
G37*
G36*
X197802Y293968D02*
X197833Y293963D01*
X197870Y293953D01*
X197913Y293940D01*
X197955Y293920D01*
X198003Y293895D01*
X197920Y293678D01*
X197915Y293680D01*
X197905Y293685D01*
X197888Y293693D01*
X197865Y293703D01*
X197840Y293713D01*
X197810Y293720D01*
X197777Y293725D01*
X197745Y293728D01*
X197732D01*
X197717Y293725D01*
X197697Y293723D01*
X197678Y293715D01*
X197652Y293708D01*
X197630Y293695D01*
X197605Y293680D01*
X197602Y293678D01*
X197595Y293673D01*
X197585Y293660D01*
X197573Y293645D01*
X197557Y293628D01*
X197543Y293605D01*
X197530Y293580D01*
X197518Y293550D01*
Y293548D01*
X197515Y293545D01*
Y293538D01*
X197512Y293528D01*
X197505Y293503D01*
X197500Y293470D01*
X197493Y293428D01*
X197485Y293383D01*
X197483Y293330D01*
X197480Y293275D01*
Y292550D01*
X197245D01*
Y293943D01*
X197458D01*
Y293730D01*
X197460Y293735D01*
X197465Y293743D01*
X197470Y293753D01*
X197487Y293778D01*
X197505Y293808D01*
X197528Y293843D01*
X197553Y293875D01*
X197580Y293903D01*
X197605Y293925D01*
X197608Y293928D01*
X197617Y293933D01*
X197633Y293940D01*
X197650Y293950D01*
X197672Y293958D01*
X197700Y293965D01*
X197728Y293970D01*
X197757Y293973D01*
X197777D01*
X197802Y293968D01*
D02*
G37*
G36*
X198378Y292550D02*
X198143D01*
Y293943D01*
X198378D01*
Y292550D01*
D02*
G37*
G36*
X192408D02*
X192173D01*
Y293943D01*
X192408D01*
Y292550D01*
D02*
G37*
G36*
X188820Y294245D02*
X187688D01*
Y293660D01*
X188748D01*
Y293433D01*
X187688D01*
Y292778D01*
X188865D01*
Y292550D01*
X187433D01*
Y294473D01*
X188820D01*
Y294245D01*
D02*
G37*
G36*
X196370Y293970D02*
X196393Y293968D01*
X196420Y293963D01*
X196452Y293958D01*
X196485Y293950D01*
X196520Y293940D01*
X196557Y293925D01*
X196595Y293910D01*
X196633Y293893D01*
X196672Y293870D01*
X196710Y293845D01*
X196745Y293815D01*
X196780Y293783D01*
X196783Y293780D01*
X196788Y293773D01*
X196798Y293763D01*
X196808Y293748D01*
X196820Y293728D01*
X196835Y293705D01*
X196853Y293678D01*
X196870Y293645D01*
X196885Y293608D01*
X196903Y293568D01*
X196917Y293525D01*
X196930Y293478D01*
X196940Y293425D01*
X196950Y293370D01*
X196955Y293310D01*
X196958Y293248D01*
Y293243D01*
Y293233D01*
Y293213D01*
X196955Y293185D01*
X195917D01*
Y293183D01*
Y293175D01*
X195920Y293163D01*
X195923Y293148D01*
X195925Y293128D01*
X195928Y293105D01*
X195938Y293055D01*
X195955Y292998D01*
X195977Y292940D01*
X196008Y292885D01*
X196025Y292860D01*
X196045Y292835D01*
X196047Y292833D01*
X196050Y292830D01*
X196057Y292825D01*
X196065Y292818D01*
X196092Y292798D01*
X196125Y292775D01*
X196168Y292753D01*
X196218Y292735D01*
X196275Y292720D01*
X196305Y292718D01*
X196337Y292715D01*
X196360D01*
X196382Y292718D01*
X196415Y292723D01*
X196448Y292733D01*
X196485Y292743D01*
X196522Y292760D01*
X196557Y292783D01*
X196563Y292785D01*
X196572Y292795D01*
X196590Y292813D01*
X196610Y292835D01*
X196633Y292865D01*
X196658Y292905D01*
X196683Y292950D01*
X196703Y293003D01*
X196948Y292970D01*
Y292968D01*
X196945Y292960D01*
X196942Y292950D01*
X196935Y292935D01*
X196930Y292918D01*
X196920Y292895D01*
X196900Y292848D01*
X196870Y292795D01*
X196833Y292740D01*
X196788Y292685D01*
X196735Y292638D01*
X196732D01*
X196728Y292633D01*
X196720Y292628D01*
X196707Y292620D01*
X196693Y292610D01*
X196672Y292600D01*
X196652Y292590D01*
X196627Y292580D01*
X196600Y292568D01*
X196570Y292558D01*
X196537Y292548D01*
X196502Y292538D01*
X196425Y292525D01*
X196382Y292523D01*
X196337Y292520D01*
X196325D01*
X196308Y292523D01*
X196288D01*
X196263Y292525D01*
X196232Y292530D01*
X196197Y292535D01*
X196162Y292543D01*
X196125Y292553D01*
X196085Y292565D01*
X196045Y292580D01*
X196005Y292600D01*
X195965Y292620D01*
X195925Y292645D01*
X195887Y292675D01*
X195852Y292708D01*
X195850Y292710D01*
X195845Y292718D01*
X195835Y292728D01*
X195825Y292743D01*
X195812Y292763D01*
X195798Y292785D01*
X195780Y292813D01*
X195765Y292843D01*
X195747Y292880D01*
X195730Y292918D01*
X195715Y292963D01*
X195703Y293008D01*
X195693Y293060D01*
X195683Y293113D01*
X195677Y293170D01*
X195675Y293233D01*
Y293238D01*
Y293248D01*
X195677Y293268D01*
Y293290D01*
X195680Y293320D01*
X195685Y293355D01*
X195690Y293393D01*
X195697Y293433D01*
X195707Y293475D01*
X195720Y293520D01*
X195732Y293565D01*
X195750Y293610D01*
X195773Y293655D01*
X195795Y293700D01*
X195823Y293740D01*
X195855Y293778D01*
X195858Y293780D01*
X195862Y293785D01*
X195872Y293795D01*
X195887Y293808D01*
X195905Y293823D01*
X195928Y293840D01*
X195952Y293858D01*
X195980Y293875D01*
X196012Y293893D01*
X196047Y293910D01*
X196088Y293928D01*
X196127Y293943D01*
X196172Y293955D01*
X196220Y293965D01*
X196270Y293970D01*
X196323Y293973D01*
X196350D01*
X196370Y293970D01*
D02*
G37*
G36*
X194878D02*
X194900Y293968D01*
X194928Y293963D01*
X194960Y293958D01*
X194992Y293950D01*
X195027Y293940D01*
X195065Y293925D01*
X195103Y293910D01*
X195140Y293893D01*
X195180Y293870D01*
X195218Y293845D01*
X195253Y293815D01*
X195288Y293783D01*
X195290Y293780D01*
X195295Y293773D01*
X195305Y293763D01*
X195315Y293748D01*
X195327Y293728D01*
X195343Y293705D01*
X195360Y293678D01*
X195378Y293645D01*
X195393Y293608D01*
X195410Y293568D01*
X195425Y293525D01*
X195438Y293478D01*
X195448Y293425D01*
X195457Y293370D01*
X195463Y293310D01*
X195465Y293248D01*
Y293243D01*
Y293233D01*
Y293213D01*
X195463Y293185D01*
X194425D01*
Y293183D01*
Y293175D01*
X194428Y293163D01*
X194430Y293148D01*
X194432Y293128D01*
X194435Y293105D01*
X194445Y293055D01*
X194463Y292998D01*
X194485Y292940D01*
X194515Y292885D01*
X194533Y292860D01*
X194553Y292835D01*
X194555Y292833D01*
X194557Y292830D01*
X194565Y292825D01*
X194572Y292818D01*
X194600Y292798D01*
X194632Y292775D01*
X194675Y292753D01*
X194725Y292735D01*
X194782Y292720D01*
X194813Y292718D01*
X194845Y292715D01*
X194868D01*
X194890Y292718D01*
X194922Y292723D01*
X194955Y292733D01*
X194992Y292743D01*
X195030Y292760D01*
X195065Y292783D01*
X195070Y292785D01*
X195080Y292795D01*
X195097Y292813D01*
X195117Y292835D01*
X195140Y292865D01*
X195165Y292905D01*
X195190Y292950D01*
X195210Y293003D01*
X195455Y292970D01*
Y292968D01*
X195452Y292960D01*
X195450Y292950D01*
X195442Y292935D01*
X195438Y292918D01*
X195428Y292895D01*
X195407Y292848D01*
X195378Y292795D01*
X195340Y292740D01*
X195295Y292685D01*
X195243Y292638D01*
X195240D01*
X195235Y292633D01*
X195228Y292628D01*
X195215Y292620D01*
X195200Y292610D01*
X195180Y292600D01*
X195160Y292590D01*
X195135Y292580D01*
X195107Y292568D01*
X195078Y292558D01*
X195045Y292548D01*
X195010Y292538D01*
X194932Y292525D01*
X194890Y292523D01*
X194845Y292520D01*
X194833D01*
X194815Y292523D01*
X194795D01*
X194770Y292525D01*
X194740Y292530D01*
X194705Y292535D01*
X194670Y292543D01*
X194632Y292553D01*
X194592Y292565D01*
X194553Y292580D01*
X194512Y292600D01*
X194473Y292620D01*
X194432Y292645D01*
X194395Y292675D01*
X194360Y292708D01*
X194358Y292710D01*
X194352Y292718D01*
X194343Y292728D01*
X194333Y292743D01*
X194320Y292763D01*
X194305Y292785D01*
X194288Y292813D01*
X194272Y292843D01*
X194255Y292880D01*
X194237Y292918D01*
X194222Y292963D01*
X194210Y293008D01*
X194200Y293060D01*
X194190Y293113D01*
X194185Y293170D01*
X194183Y293233D01*
Y293238D01*
Y293248D01*
X194185Y293268D01*
Y293290D01*
X194187Y293320D01*
X194193Y293355D01*
X194197Y293393D01*
X194205Y293433D01*
X194215Y293475D01*
X194228Y293520D01*
X194240Y293565D01*
X194257Y293610D01*
X194280Y293655D01*
X194302Y293700D01*
X194330Y293740D01*
X194362Y293778D01*
X194365Y293780D01*
X194370Y293785D01*
X194380Y293795D01*
X194395Y293808D01*
X194413Y293823D01*
X194435Y293840D01*
X194460Y293858D01*
X194488Y293875D01*
X194520Y293893D01*
X194555Y293910D01*
X194595Y293928D01*
X194635Y293943D01*
X194680Y293955D01*
X194728Y293965D01*
X194778Y293970D01*
X194830Y293973D01*
X194858D01*
X194878Y293970D01*
D02*
G37*
G36*
X200767D02*
X200785D01*
X200805Y293968D01*
X200830Y293963D01*
X200857Y293955D01*
X200887Y293948D01*
X200918Y293938D01*
X200950Y293923D01*
X200985Y293908D01*
X201020Y293888D01*
X201052Y293865D01*
X201087Y293838D01*
X201120Y293805D01*
X201150Y293770D01*
Y293943D01*
X201367D01*
Y292740D01*
Y292738D01*
Y292725D01*
Y292710D01*
Y292688D01*
X201365Y292660D01*
Y292630D01*
X201362Y292598D01*
X201360Y292563D01*
X201350Y292488D01*
X201340Y292410D01*
X201332Y292375D01*
X201323Y292340D01*
X201312Y292310D01*
X201300Y292283D01*
Y292280D01*
X201297Y292278D01*
X201292Y292270D01*
X201288Y292260D01*
X201273Y292235D01*
X201250Y292205D01*
X201220Y292170D01*
X201185Y292135D01*
X201140Y292100D01*
X201090Y292068D01*
X201087D01*
X201082Y292065D01*
X201075Y292060D01*
X201065Y292055D01*
X201050Y292050D01*
X201035Y292043D01*
X201015Y292035D01*
X200992Y292028D01*
X200942Y292013D01*
X200883Y292000D01*
X200813Y291990D01*
X200738Y291988D01*
X200712D01*
X200697Y291990D01*
X200675D01*
X200650Y291993D01*
X200625Y291998D01*
X200595Y292003D01*
X200530Y292015D01*
X200463Y292035D01*
X200397Y292063D01*
X200365Y292080D01*
X200335Y292100D01*
X200332Y292103D01*
X200327Y292105D01*
X200320Y292113D01*
X200312Y292120D01*
X200300Y292133D01*
X200288Y292148D01*
X200272Y292165D01*
X200260Y292185D01*
X200245Y292208D01*
X200233Y292233D01*
X200220Y292260D01*
X200207Y292290D01*
X200200Y292323D01*
X200192Y292358D01*
X200187Y292398D01*
Y292438D01*
X200417Y292405D01*
Y292400D01*
X200420Y292388D01*
X200425Y292370D01*
X200432Y292348D01*
X200443Y292320D01*
X200458Y292295D01*
X200475Y292270D01*
X200498Y292250D01*
X200502Y292248D01*
X200513Y292240D01*
X200533Y292228D01*
X200560Y292218D01*
X200595Y292205D01*
X200635Y292193D01*
X200682Y292185D01*
X200738Y292183D01*
X200765D01*
X200793Y292185D01*
X200830Y292190D01*
X200870Y292200D01*
X200912Y292210D01*
X200953Y292228D01*
X200990Y292250D01*
X200995Y292253D01*
X201005Y292263D01*
X201020Y292278D01*
X201040Y292298D01*
X201060Y292323D01*
X201078Y292355D01*
X201097Y292390D01*
X201110Y292433D01*
Y292435D01*
X201113Y292448D01*
X201117Y292468D01*
Y292480D01*
X201120Y292498D01*
X201122Y292515D01*
Y292538D01*
X201125Y292563D01*
Y292590D01*
X201128Y292620D01*
Y292655D01*
Y292693D01*
Y292733D01*
X201125Y292730D01*
X201120Y292725D01*
X201113Y292715D01*
X201100Y292705D01*
X201085Y292690D01*
X201067Y292675D01*
X201045Y292658D01*
X201023Y292643D01*
X200995Y292625D01*
X200965Y292608D01*
X200900Y292578D01*
X200863Y292568D01*
X200825Y292558D01*
X200785Y292553D01*
X200743Y292550D01*
X200730D01*
X200715Y292553D01*
X200695D01*
X200670Y292558D01*
X200642Y292560D01*
X200612Y292568D01*
X200580Y292575D01*
X200545Y292588D01*
X200507Y292600D01*
X200470Y292618D01*
X200432Y292638D01*
X200397Y292660D01*
X200362Y292688D01*
X200327Y292720D01*
X200297Y292755D01*
X200295Y292758D01*
X200290Y292765D01*
X200283Y292775D01*
X200272Y292793D01*
X200260Y292813D01*
X200248Y292835D01*
X200233Y292865D01*
X200220Y292895D01*
X200205Y292930D01*
X200190Y292968D01*
X200178Y293008D01*
X200165Y293053D01*
X200155Y293100D01*
X200148Y293148D01*
X200143Y293200D01*
X200140Y293253D01*
Y293255D01*
Y293263D01*
Y293273D01*
Y293288D01*
X200143Y293305D01*
X200145Y293325D01*
Y293348D01*
X200150Y293373D01*
X200157Y293430D01*
X200170Y293493D01*
X200187Y293555D01*
X200213Y293620D01*
Y293623D01*
X200215Y293628D01*
X200220Y293635D01*
X200225Y293648D01*
X200233Y293663D01*
X200242Y293678D01*
X200265Y293715D01*
X200295Y293758D01*
X200330Y293800D01*
X200373Y293843D01*
X200420Y293880D01*
X200423D01*
X200428Y293885D01*
X200435Y293888D01*
X200445Y293895D01*
X200458Y293903D01*
X200472Y293910D01*
X200513Y293928D01*
X200560Y293943D01*
X200615Y293958D01*
X200675Y293968D01*
X200743Y293973D01*
X200752D01*
X200767Y293970D01*
D02*
G37*
G36*
X191215D02*
X191233D01*
X191253Y293968D01*
X191278Y293963D01*
X191305Y293955D01*
X191335Y293948D01*
X191365Y293938D01*
X191398Y293923D01*
X191432Y293908D01*
X191467Y293888D01*
X191500Y293865D01*
X191535Y293838D01*
X191568Y293805D01*
X191597Y293770D01*
Y293943D01*
X191815D01*
Y292740D01*
Y292738D01*
Y292725D01*
Y292710D01*
Y292688D01*
X191813Y292660D01*
Y292630D01*
X191810Y292598D01*
X191807Y292563D01*
X191797Y292488D01*
X191788Y292410D01*
X191780Y292375D01*
X191770Y292340D01*
X191760Y292310D01*
X191747Y292283D01*
Y292280D01*
X191745Y292278D01*
X191740Y292270D01*
X191735Y292260D01*
X191720Y292235D01*
X191698Y292205D01*
X191667Y292170D01*
X191632Y292135D01*
X191587Y292100D01*
X191537Y292068D01*
X191535D01*
X191530Y292065D01*
X191523Y292060D01*
X191513Y292055D01*
X191498Y292050D01*
X191482Y292043D01*
X191463Y292035D01*
X191440Y292028D01*
X191390Y292013D01*
X191330Y292000D01*
X191260Y291990D01*
X191185Y291988D01*
X191160D01*
X191145Y291990D01*
X191122D01*
X191097Y291993D01*
X191072Y291998D01*
X191042Y292003D01*
X190978Y292015D01*
X190910Y292035D01*
X190845Y292063D01*
X190813Y292080D01*
X190782Y292100D01*
X190780Y292103D01*
X190775Y292105D01*
X190768Y292113D01*
X190760Y292120D01*
X190747Y292133D01*
X190735Y292148D01*
X190720Y292165D01*
X190708Y292185D01*
X190692Y292208D01*
X190680Y292233D01*
X190667Y292260D01*
X190655Y292290D01*
X190647Y292323D01*
X190640Y292358D01*
X190635Y292398D01*
Y292438D01*
X190865Y292405D01*
Y292400D01*
X190867Y292388D01*
X190873Y292370D01*
X190880Y292348D01*
X190890Y292320D01*
X190905Y292295D01*
X190922Y292270D01*
X190945Y292250D01*
X190950Y292248D01*
X190960Y292240D01*
X190980Y292228D01*
X191007Y292218D01*
X191042Y292205D01*
X191083Y292193D01*
X191130Y292185D01*
X191185Y292183D01*
X191212D01*
X191240Y292185D01*
X191278Y292190D01*
X191317Y292200D01*
X191360Y292210D01*
X191400Y292228D01*
X191437Y292250D01*
X191443Y292253D01*
X191453Y292263D01*
X191467Y292278D01*
X191488Y292298D01*
X191507Y292323D01*
X191525Y292355D01*
X191545Y292390D01*
X191558Y292433D01*
Y292435D01*
X191560Y292448D01*
X191565Y292468D01*
Y292480D01*
X191568Y292498D01*
X191570Y292515D01*
Y292538D01*
X191572Y292563D01*
Y292590D01*
X191575Y292620D01*
Y292655D01*
Y292693D01*
Y292733D01*
X191572Y292730D01*
X191568Y292725D01*
X191560Y292715D01*
X191548Y292705D01*
X191533Y292690D01*
X191515Y292675D01*
X191492Y292658D01*
X191470Y292643D01*
X191443Y292625D01*
X191412Y292608D01*
X191348Y292578D01*
X191310Y292568D01*
X191272Y292558D01*
X191233Y292553D01*
X191190Y292550D01*
X191177D01*
X191163Y292553D01*
X191142D01*
X191118Y292558D01*
X191090Y292560D01*
X191060Y292568D01*
X191027Y292575D01*
X190992Y292588D01*
X190955Y292600D01*
X190918Y292618D01*
X190880Y292638D01*
X190845Y292660D01*
X190810Y292688D01*
X190775Y292720D01*
X190745Y292755D01*
X190743Y292758D01*
X190737Y292765D01*
X190730Y292775D01*
X190720Y292793D01*
X190708Y292813D01*
X190695Y292835D01*
X190680Y292865D01*
X190667Y292895D01*
X190653Y292930D01*
X190638Y292968D01*
X190625Y293008D01*
X190612Y293053D01*
X190603Y293100D01*
X190595Y293148D01*
X190590Y293200D01*
X190587Y293253D01*
Y293255D01*
Y293263D01*
Y293273D01*
Y293288D01*
X190590Y293305D01*
X190593Y293325D01*
Y293348D01*
X190597Y293373D01*
X190605Y293430D01*
X190618Y293493D01*
X190635Y293555D01*
X190660Y293620D01*
Y293623D01*
X190663Y293628D01*
X190667Y293635D01*
X190673Y293648D01*
X190680Y293663D01*
X190690Y293678D01*
X190712Y293715D01*
X190743Y293758D01*
X190778Y293800D01*
X190820Y293843D01*
X190867Y293880D01*
X190870D01*
X190875Y293885D01*
X190883Y293888D01*
X190893Y293895D01*
X190905Y293903D01*
X190920Y293910D01*
X190960Y293928D01*
X191007Y293943D01*
X191062Y293958D01*
X191122Y293968D01*
X191190Y293973D01*
X191200D01*
X191215Y293970D01*
D02*
G37*
%LPC*%
G36*
X707921Y99305D02*
X704867D01*
Y96251D01*
X704951Y96262D01*
X705960Y96680D01*
X706827Y97345D01*
X707492Y98212D01*
X707910Y99222D01*
X707921Y99305D01*
D02*
G37*
G36*
X694993D02*
X691939D01*
X691950Y99222D01*
X692369Y98212D01*
X693034Y97345D01*
X693900Y96680D01*
X694910Y96262D01*
X694993Y96251D01*
Y99305D01*
D02*
G37*
G36*
X196570Y296627D02*
X196555D01*
X196545Y296625D01*
X196515Y296620D01*
X196480Y296610D01*
X196438Y296592D01*
X196415Y296582D01*
X196393Y296567D01*
X196370Y296550D01*
X196347Y296532D01*
X196325Y296510D01*
X196302Y296485D01*
Y296482D01*
X196298Y296477D01*
X196292Y296470D01*
X196285Y296460D01*
X196275Y296445D01*
X196265Y296427D01*
X196255Y296405D01*
X196245Y296382D01*
X196235Y296355D01*
X196225Y296325D01*
X196215Y296290D01*
X196205Y296255D01*
X196197Y296215D01*
X196193Y296172D01*
X196190Y296125D01*
X196187Y296077D01*
Y296075D01*
Y296065D01*
Y296052D01*
X196190Y296035D01*
Y296012D01*
X196193Y295985D01*
X196197Y295957D01*
X196200Y295927D01*
X196215Y295862D01*
X196232Y295797D01*
X196260Y295735D01*
X196275Y295707D01*
X196295Y295682D01*
X196298Y295680D01*
X196300Y295677D01*
X196315Y295662D01*
X196337Y295642D01*
X196370Y295620D01*
X196407Y295595D01*
X196452Y295575D01*
X196505Y295560D01*
X196532Y295557D01*
X196560Y295555D01*
X196575D01*
X196588Y295557D01*
X196600Y295560D01*
X196615Y295562D01*
X196652Y295572D01*
X196695Y295587D01*
X196740Y295610D01*
X196763Y295625D01*
X196785Y295645D01*
X196808Y295665D01*
X196830Y295687D01*
X196833Y295690D01*
X196835Y295695D01*
X196840Y295702D01*
X196847Y295712D01*
X196855Y295727D01*
X196865Y295745D01*
X196875Y295765D01*
X196888Y295787D01*
X196897Y295815D01*
X196907Y295845D01*
X196917Y295880D01*
X196925Y295917D01*
X196932Y295957D01*
X196938Y296000D01*
X196942Y296047D01*
Y296097D01*
Y296100D01*
Y296110D01*
Y296122D01*
X196940Y296140D01*
Y296162D01*
X196938Y296187D01*
X196932Y296217D01*
X196930Y296247D01*
X196915Y296310D01*
X196895Y296377D01*
X196870Y296440D01*
X196853Y296470D01*
X196833Y296495D01*
Y296497D01*
X196827Y296500D01*
X196812Y296515D01*
X196790Y296537D01*
X196757Y296562D01*
X196720Y296585D01*
X196675Y296607D01*
X196625Y296622D01*
X196598Y296625D01*
X196570Y296627D01*
D02*
G37*
G36*
X195045Y296617D02*
X195027D01*
X195015Y296615D01*
X195000Y296612D01*
X194983Y296610D01*
X194942Y296600D01*
X194897Y296585D01*
X194848Y296562D01*
X194823Y296547D01*
X194800Y296530D01*
X194775Y296507D01*
X194753Y296485D01*
Y296482D01*
X194747Y296480D01*
X194743Y296470D01*
X194735Y296460D01*
X194725Y296445D01*
X194715Y296430D01*
X194705Y296410D01*
X194695Y296385D01*
X194685Y296360D01*
X194675Y296330D01*
X194665Y296297D01*
X194655Y296260D01*
X194648Y296222D01*
X194642Y296180D01*
X194640Y296132D01*
X194638Y296085D01*
Y296082D01*
Y296072D01*
Y296060D01*
X194640Y296042D01*
Y296020D01*
X194642Y295995D01*
X194648Y295965D01*
X194652Y295935D01*
X194665Y295872D01*
X194685Y295805D01*
X194715Y295742D01*
X194732Y295715D01*
X194753Y295687D01*
X194755Y295685D01*
X194757Y295682D01*
X194765Y295675D01*
X194773Y295667D01*
X194800Y295645D01*
X194833Y295622D01*
X194875Y295597D01*
X194925Y295575D01*
X194983Y295560D01*
X195012Y295557D01*
X195045Y295555D01*
X195062D01*
X195075Y295557D01*
X195090Y295560D01*
X195107Y295562D01*
X195148Y295572D01*
X195193Y295587D01*
X195243Y295610D01*
X195267Y295625D01*
X195292Y295645D01*
X195315Y295665D01*
X195337Y295687D01*
X195340Y295690D01*
X195343Y295695D01*
X195347Y295702D01*
X195355Y295712D01*
X195365Y295727D01*
X195375Y295745D01*
X195385Y295765D01*
X195397Y295787D01*
X195407Y295815D01*
X195417Y295845D01*
X195428Y295877D01*
X195438Y295915D01*
X195445Y295955D01*
X195450Y295997D01*
X195455Y296042D01*
Y296092D01*
Y296095D01*
Y296105D01*
Y296117D01*
X195452Y296135D01*
Y296157D01*
X195450Y296180D01*
X195445Y296207D01*
X195440Y296237D01*
X195428Y296300D01*
X195405Y296365D01*
X195378Y296427D01*
X195358Y296457D01*
X195337Y296482D01*
X195335Y296485D01*
X195333Y296487D01*
X195325Y296495D01*
X195317Y296502D01*
X195290Y296525D01*
X195257Y296550D01*
X195215Y296575D01*
X195165Y296597D01*
X195107Y296612D01*
X195078Y296615D01*
X195045Y296617D01*
D02*
G37*
G36*
X196325Y293778D02*
X196310D01*
X196298Y293775D01*
X196285D01*
X196267Y293773D01*
X196230Y293765D01*
X196187Y293750D01*
X196140Y293730D01*
X196095Y293705D01*
X196072Y293688D01*
X196050Y293668D01*
X196045Y293663D01*
X196033Y293648D01*
X196015Y293625D01*
X195995Y293593D01*
X195973Y293550D01*
X195952Y293500D01*
X195938Y293445D01*
X195930Y293380D01*
X196707D01*
Y293383D01*
Y293388D01*
X196705Y293398D01*
X196703Y293408D01*
Y293423D01*
X196697Y293440D01*
X196690Y293478D01*
X196677Y293520D01*
X196662Y293563D01*
X196642Y293605D01*
X196617Y293640D01*
Y293643D01*
X196613Y293645D01*
X196605Y293653D01*
X196598Y293663D01*
X196572Y293683D01*
X196540Y293710D01*
X196497Y293735D01*
X196448Y293755D01*
X196390Y293773D01*
X196358Y293775D01*
X196325Y293778D01*
D02*
G37*
G36*
X194833D02*
X194817D01*
X194805Y293775D01*
X194792D01*
X194775Y293773D01*
X194738Y293765D01*
X194695Y293750D01*
X194648Y293730D01*
X194603Y293705D01*
X194580Y293688D01*
X194557Y293668D01*
X194553Y293663D01*
X194540Y293648D01*
X194523Y293625D01*
X194502Y293593D01*
X194480Y293550D01*
X194460Y293500D01*
X194445Y293445D01*
X194438Y293380D01*
X195215D01*
Y293383D01*
Y293388D01*
X195212Y293398D01*
X195210Y293408D01*
Y293423D01*
X195205Y293440D01*
X195197Y293478D01*
X195185Y293520D01*
X195170Y293563D01*
X195150Y293605D01*
X195125Y293640D01*
Y293643D01*
X195120Y293645D01*
X195113Y293653D01*
X195105Y293663D01*
X195080Y293683D01*
X195047Y293710D01*
X195005Y293735D01*
X194955Y293755D01*
X194897Y293773D01*
X194865Y293775D01*
X194833Y293778D01*
D02*
G37*
G36*
X200760D02*
X200745D01*
X200735Y293775D01*
X200705Y293770D01*
X200668Y293763D01*
X200625Y293745D01*
X200580Y293723D01*
X200557Y293708D01*
X200535Y293690D01*
X200513Y293670D01*
X200493Y293648D01*
Y293645D01*
X200487Y293643D01*
X200483Y293635D01*
X200475Y293625D01*
X200467Y293610D01*
X200458Y293595D01*
X200448Y293575D01*
X200437Y293553D01*
X200428Y293528D01*
X200417Y293500D01*
X200408Y293468D01*
X200400Y293435D01*
X200393Y293398D01*
X200388Y293358D01*
X200385Y293315D01*
X200382Y293270D01*
Y293268D01*
Y293258D01*
Y293245D01*
X200385Y293225D01*
Y293203D01*
X200388Y293178D01*
X200393Y293148D01*
X200395Y293118D01*
X200410Y293053D01*
X200428Y292985D01*
X200455Y292923D01*
X200470Y292895D01*
X200490Y292870D01*
X200493Y292868D01*
X200495Y292865D01*
X200510Y292850D01*
X200533Y292830D01*
X200565Y292808D01*
X200605Y292785D01*
X200653Y292765D01*
X200705Y292750D01*
X200735Y292748D01*
X200765Y292745D01*
X200780D01*
X200793Y292748D01*
X200805Y292750D01*
X200822Y292753D01*
X200860Y292760D01*
X200903Y292775D01*
X200947Y292798D01*
X200973Y292813D01*
X200995Y292830D01*
X201017Y292848D01*
X201038Y292870D01*
X201040Y292873D01*
X201043Y292875D01*
X201047Y292883D01*
X201055Y292895D01*
X201062Y292908D01*
X201073Y292923D01*
X201082Y292943D01*
X201093Y292965D01*
X201102Y292993D01*
X201113Y293020D01*
X201122Y293053D01*
X201130Y293088D01*
X201137Y293128D01*
X201143Y293170D01*
X201148Y293215D01*
Y293263D01*
Y293265D01*
Y293275D01*
Y293288D01*
X201145Y293305D01*
Y293325D01*
X201143Y293350D01*
X201137Y293378D01*
X201132Y293408D01*
X201120Y293468D01*
X201100Y293533D01*
X201070Y293593D01*
X201052Y293623D01*
X201032Y293648D01*
Y293650D01*
X201027Y293653D01*
X201012Y293668D01*
X200988Y293688D01*
X200957Y293713D01*
X200918Y293738D01*
X200870Y293758D01*
X200817Y293773D01*
X200790Y293775D01*
X200760Y293778D01*
D02*
G37*
G36*
X191208D02*
X191192D01*
X191182Y293775D01*
X191153Y293770D01*
X191115Y293763D01*
X191072Y293745D01*
X191027Y293723D01*
X191005Y293708D01*
X190982Y293690D01*
X190960Y293670D01*
X190940Y293648D01*
Y293645D01*
X190935Y293643D01*
X190930Y293635D01*
X190922Y293625D01*
X190915Y293610D01*
X190905Y293595D01*
X190895Y293575D01*
X190885Y293553D01*
X190875Y293528D01*
X190865Y293500D01*
X190855Y293468D01*
X190848Y293435D01*
X190840Y293398D01*
X190835Y293358D01*
X190832Y293315D01*
X190830Y293270D01*
Y293268D01*
Y293258D01*
Y293245D01*
X190832Y293225D01*
Y293203D01*
X190835Y293178D01*
X190840Y293148D01*
X190842Y293118D01*
X190858Y293053D01*
X190875Y292985D01*
X190902Y292923D01*
X190918Y292895D01*
X190937Y292870D01*
X190940Y292868D01*
X190943Y292865D01*
X190957Y292850D01*
X190980Y292830D01*
X191013Y292808D01*
X191052Y292785D01*
X191100Y292765D01*
X191153Y292750D01*
X191182Y292748D01*
X191212Y292745D01*
X191227D01*
X191240Y292748D01*
X191253Y292750D01*
X191270Y292753D01*
X191307Y292760D01*
X191350Y292775D01*
X191395Y292798D01*
X191420Y292813D01*
X191443Y292830D01*
X191465Y292848D01*
X191485Y292870D01*
X191488Y292873D01*
X191490Y292875D01*
X191495Y292883D01*
X191502Y292895D01*
X191510Y292908D01*
X191520Y292923D01*
X191530Y292943D01*
X191540Y292965D01*
X191550Y292993D01*
X191560Y293020D01*
X191570Y293053D01*
X191577Y293088D01*
X191585Y293128D01*
X191590Y293170D01*
X191595Y293215D01*
Y293263D01*
Y293265D01*
Y293275D01*
Y293288D01*
X191593Y293305D01*
Y293325D01*
X191590Y293350D01*
X191585Y293378D01*
X191580Y293408D01*
X191568Y293468D01*
X191548Y293533D01*
X191517Y293593D01*
X191500Y293623D01*
X191480Y293648D01*
Y293650D01*
X191475Y293653D01*
X191460Y293668D01*
X191435Y293688D01*
X191405Y293713D01*
X191365Y293738D01*
X191317Y293758D01*
X191265Y293773D01*
X191237Y293775D01*
X191208Y293778D01*
D02*
G37*
%LPD*%
D14*
X622100Y310800D02*
Y310900D01*
X624400Y313200D01*
D56*
X272300Y246600D02*
D03*
X643270Y259864D02*
D03*
X569400Y241400D02*
D03*
X475500Y182100D02*
D03*
X687600Y204864D02*
D03*
X220100Y178200D02*
D03*
X674191Y244864D02*
D03*
X700300Y166200D02*
D03*
X687636Y234864D02*
D03*
Y239864D02*
D03*
X687500Y245000D02*
D03*
X285400Y177800D02*
D03*
X542300Y239900D02*
D03*
X539300Y222700D02*
D03*
X657900Y313500D02*
D03*
X624400Y313200D02*
D03*
X591200Y312800D02*
D03*
X553900Y310800D02*
D03*
X674191Y224864D02*
D03*
Y234864D02*
D03*
X504400Y239000D02*
D03*
X487200Y238600D02*
D03*
X663500Y220200D02*
D03*
X674400Y214600D02*
D03*
X658800Y212700D02*
D03*
X674191Y274864D02*
D03*
X664923Y279864D02*
D03*
X671500Y294900D02*
D03*
X452200Y289300D02*
D03*
X425700Y229300D02*
D03*
X378900Y226800D02*
D03*
X227900Y234600D02*
D03*
X193600Y255600D02*
D03*
X638000Y171000D02*
D03*
X634000D02*
D03*
X470700Y196100D02*
D03*
X163000Y286500D02*
D03*
X309921Y176800D02*
D03*
X290236Y185719D02*
D03*
X514200Y235500D02*
D03*
X510516Y288300D02*
D03*
Y247700D02*
D03*
X523236Y240900D02*
D03*
X329606Y176800D02*
D03*
X319764Y187081D02*
D03*
X303131Y176600D02*
D03*
X280394Y184000D02*
D03*
X492200Y241700D02*
D03*
X254400Y252300D02*
D03*
X267500Y227300D02*
D03*
X692000Y275400D02*
D03*
X674191Y264864D02*
D03*
X664923Y259864D02*
D03*
Y249864D02*
D03*
Y229864D02*
D03*
Y199864D02*
D03*
X652537Y274864D02*
D03*
X643270Y269864D02*
D03*
X652537Y264864D02*
D03*
Y254864D02*
D03*
X643270Y249864D02*
D03*
X652537Y244864D02*
D03*
X643270Y229864D02*
D03*
X652537Y204864D02*
D03*
X687864Y259864D02*
D03*
X699864Y244864D02*
D03*
X700136Y259864D02*
D03*
D57*
X665300Y234800D02*
X674191D01*
X163700Y267079D02*
X169400Y261379D01*
X272300Y246600D02*
Y246700D01*
X273700Y248100D01*
X654300Y170600D02*
X695900D01*
X650300Y174600D02*
X654300Y170600D01*
X484500Y174600D02*
X650300D01*
X695900Y170600D02*
X700300Y166200D01*
X651604Y177704D02*
X654400Y180500D01*
X455412Y178412D02*
X651604Y177704D01*
X444200Y167200D02*
X455412Y178412D01*
X422800Y167200D02*
X444200D01*
X417000Y173000D02*
X422800Y167200D01*
X474400Y164500D02*
X484500Y174600D01*
X298700Y164500D02*
X474400D01*
X285400Y177800D02*
X298700Y164500D01*
X512916Y245300D02*
X638706D01*
X510516Y247700D02*
X512916Y245300D01*
X638706D02*
X643270Y249864D01*
X703500Y222400D02*
Y246700D01*
X701300Y248900D02*
X703500Y246700D01*
X684500Y248900D02*
X701300D01*
X677900Y242300D02*
X684500Y248900D01*
X677900Y233600D02*
Y242300D01*
X695700Y214600D02*
X703500Y222400D01*
X705400Y200800D02*
Y247800D01*
X702000Y251200D02*
X705400Y247800D01*
X680527Y251200D02*
X702000D01*
X674191Y244864D02*
X680527Y251200D01*
X685100Y180500D02*
X705400Y200800D01*
X698164Y244864D02*
X699864D01*
X695100Y241800D02*
X698164Y244864D01*
X695100Y236655D02*
Y241800D01*
X676328Y217883D02*
X695100Y236655D01*
X672683Y217883D02*
X676328D01*
X669600Y214800D02*
X672683Y217883D01*
X669600Y209600D02*
Y214800D01*
X671483Y219183D02*
X676283D01*
X665300Y213000D02*
X671483Y219183D01*
X663700Y213000D02*
X665300D01*
X670583Y220483D02*
X676083D01*
X665806Y215706D02*
X670583Y220483D01*
X653106Y215706D02*
X665806D01*
X669800Y221800D02*
X675500D01*
X665100Y217100D02*
X669800Y221800D01*
X649100Y217100D02*
X665100D01*
X659200Y208500D02*
X663700Y213000D01*
X650900Y208500D02*
X659200D01*
X646100Y203700D02*
X650900Y208500D01*
X650283Y212883D02*
X653106Y215706D01*
X640251Y212883D02*
X650283D01*
X646800Y214800D02*
X649100Y217100D01*
X632000Y214800D02*
X646800D01*
X649400Y220200D02*
X663500D01*
X645600Y216400D02*
X649400Y220200D01*
X545600Y216400D02*
X645600D01*
X630194Y212994D02*
X632000Y214800D01*
X384894Y212994D02*
X630194D01*
X539300Y222700D02*
X545600Y216400D01*
X492200Y241700D02*
X503383Y252883D01*
Y252883D02*
X645217Y252883D01*
X650573Y242900D02*
X652537Y244864D01*
X569800Y242900D02*
X650573Y242900D01*
X417500Y203700D02*
X646100D01*
X401700Y187900D02*
X417500Y203700D01*
X357000Y187900D02*
X401700D01*
X408300Y186600D02*
X646600D01*
X392700Y171000D02*
X408300Y186600D01*
X315721Y171000D02*
X392700D01*
X382300Y190400D02*
X398600Y206700D01*
X323082Y190400D02*
X382300D01*
X319764Y187081D02*
X323082Y190400D01*
X287900Y200700D02*
X335700D01*
X280394Y193194D02*
X287900Y200700D01*
X280394Y184000D02*
Y193194D01*
X663300Y203300D02*
X669600Y209600D01*
X646600Y186600D02*
X663300Y203300D01*
X637973Y190300D02*
X644679Y197006D01*
X476500Y190300D02*
X637973D01*
X470700Y196100D02*
X476500Y190300D01*
X470700Y196100D02*
X471606Y197006D01*
X645500Y225800D02*
X646436Y224864D01*
X525394Y225800D02*
X645500D01*
X524200Y224606D02*
X525394Y225800D01*
X472000Y226800D02*
X671100D01*
X557200Y277900D02*
X656800D01*
X554800Y275500D02*
X557200Y277900D01*
X393000Y275500D02*
X554800D01*
X673800Y298400D02*
X675900Y296300D01*
Y291500D02*
Y296300D01*
Y291500D02*
X692000Y275400D01*
X405940Y298400D02*
X673800D01*
X364240Y256700D02*
X405940Y298400D01*
X679858Y267870D02*
X687864Y259864D01*
X673270Y267870D02*
X679858D01*
X672946D02*
X673270D01*
X671185Y266109D02*
X672946Y267870D01*
X671185Y265785D02*
Y266109D01*
X671172Y265772D02*
X671185Y265785D01*
X671172Y259311D02*
Y265772D01*
X646358Y256858D02*
X647500Y258000D01*
X642025Y256858D02*
X646358D01*
X643270Y259864D02*
Y259970D01*
X640383Y258500D02*
X642025Y256858D01*
X480700Y258500D02*
X640383D01*
X639345Y256200D02*
X640681Y254864D01*
X493800Y256200D02*
X639345D01*
X491050Y253450D02*
X493800Y256200D01*
X454600Y232400D02*
X480700Y258500D01*
X639300Y261200D02*
X648100Y270000D01*
X479700Y261200D02*
X639300D01*
X454700Y236200D02*
X479700Y261200D01*
X636706Y263300D02*
X643270Y269864D01*
X466600Y263300D02*
X636706D01*
X443500Y240200D02*
X466600Y263300D01*
X645508Y206700D02*
X649291Y210483D01*
X398600Y206700D02*
X645508D01*
X452200Y289300D02*
X454300Y291400D01*
X455300D01*
X649816Y291400D02*
X661352Y279864D01*
X455300Y291400D02*
X649816Y291400D01*
X546850Y244450D02*
X647550D01*
X283500Y191700D02*
X289100Y197300D01*
X283500Y182300D02*
Y191700D01*
X289100Y197300D02*
X364049Y197300D01*
X475500Y182100D02*
X665900D01*
X687600Y203800D01*
Y204864D01*
X274200Y173000D02*
X283500Y182300D01*
X225300Y173000D02*
X274200D01*
X220100Y178200D02*
X225300Y173000D01*
X647500Y258000D02*
X652537Y263037D01*
X477000Y229864D02*
X643270D01*
X475583D02*
X477000D01*
X642000Y254864D02*
X652537D01*
X487200Y249600D02*
X489600Y252000D01*
X556600Y270000D02*
X560800Y274200D01*
X527336Y236800D02*
X646300D01*
X514200Y235500D02*
X648700D01*
X523236Y240900D02*
X527336Y236800D01*
X646300D02*
X651300Y241800D01*
X542300Y239900D02*
X546850Y244450D01*
X426264Y229864D02*
X475583D01*
X425700Y229300D02*
X426264Y229864D01*
X489600Y252000D02*
X491050Y253450D01*
X640681Y254864D02*
X642000D01*
X654400Y180500D02*
X685100D01*
X318400Y192700D02*
X342400D01*
X313600Y187900D02*
X318400Y192700D01*
X682245Y226645D02*
Y229473D01*
X676083Y220483D02*
X682245Y226645D01*
Y229473D02*
X687636Y234864D01*
Y239864D02*
X690700Y236800D01*
Y233600D02*
Y236800D01*
X676283Y219183D02*
X690700Y233600D01*
X680900Y238400D02*
X687500Y245000D01*
X637268Y209900D02*
X640251Y212883D01*
X386100Y209900D02*
X637268D01*
X368900Y192700D02*
X386100Y209900D01*
X342400Y192700D02*
X368900D01*
X313600Y184319D02*
Y187900D01*
Y184319D02*
X316800Y181119D01*
X325288D01*
X329606Y176800D01*
X647550Y244450D02*
X652700Y249600D01*
X505800Y232000D02*
X641100D01*
X680900Y227200D02*
Y238400D01*
X671100Y226800D02*
X677900Y233600D01*
X646436Y224864D02*
X674191D01*
Y234800D02*
Y234864D01*
X675500Y221800D02*
X680900Y227200D01*
X391355Y224606D02*
X524200D01*
X504200Y238800D02*
X504400Y239000D01*
X487200Y238600D02*
Y249600D01*
X674400Y214600D02*
X695700D01*
X655800Y212700D02*
X658800D01*
X653583Y210483D02*
X655800Y212700D01*
X407200Y294200D02*
X670800D01*
X668800Y280255D02*
X674191Y274864D01*
X668800Y280255D02*
Y289700D01*
X661352Y279864D02*
X664923D01*
X670800Y294200D02*
X671500Y294900D01*
X378900Y226800D02*
X379419Y226281D01*
X471481D01*
X472000Y226800D01*
X227900Y234600D02*
X228100D01*
X242900Y219800D01*
X193600Y255600D02*
X368200D01*
X368400Y255400D01*
X173500Y235000D02*
X207800D01*
X504200Y233600D02*
X505800Y232000D01*
X641100D02*
X642300Y233200D01*
X644679Y197006D02*
X652537Y204864D01*
X364049Y197300D02*
X391355Y224606D01*
X366400Y194500D02*
X384894Y212994D01*
X242900Y219800D02*
X344400D01*
X364800Y240200D01*
X229100Y213700D02*
X345700D01*
X207800Y235000D02*
X229100Y213700D01*
X345700D02*
X368200Y236200D01*
X169400Y239100D02*
Y261379D01*
Y239100D02*
X173500Y235000D01*
X309921Y176800D02*
X315721Y171000D01*
X299018Y194500D02*
X366400D01*
X290236Y185719D02*
X299018Y194500D01*
X650309Y185250D02*
X664923Y199864D01*
X439250Y185250D02*
X650309D01*
X427000Y173000D02*
X439250Y185250D01*
X648700Y235500D02*
X652200Y239000D01*
X661100D01*
X665300Y234800D01*
X667161Y255300D02*
X671172Y259311D01*
X661800Y255300D02*
X667161D01*
X657900Y259200D02*
X661800Y255300D01*
X657900Y259200D02*
Y265600D01*
X653500Y270000D02*
X657900Y265600D01*
X648100Y270000D02*
X653500D01*
X368200Y236200D02*
X454700D01*
X368400Y255400D02*
X407200Y294200D01*
X674191Y260491D02*
Y264864D01*
X666600Y252900D02*
X674191Y260491D01*
X661900Y252900D02*
X666600D01*
X658600Y249600D02*
X661900Y252900D01*
X652700Y249600D02*
X658600D01*
X504200Y233600D02*
Y238800D01*
X642300Y233200D02*
X649300D01*
X652636Y229864D01*
X664923D01*
X661900Y262887D02*
X664923Y259864D01*
X661900Y262887D02*
Y275900D01*
X649500Y288300D02*
X661900Y275900D01*
X510516Y288300D02*
X649500D01*
X656859Y241800D02*
X664923Y249864D01*
X651300Y241800D02*
X656859D01*
X649291Y210483D02*
X653583D01*
X342400Y173300D02*
X357000Y187900D01*
X320000Y173300D02*
X342400D01*
X313481Y179819D02*
X320000Y173300D01*
X306350Y179819D02*
X313481D01*
X303131Y176600D02*
X306350Y179819D01*
X652537Y263037D02*
Y264864D01*
X367400Y232400D02*
X454600D01*
X335700Y200700D02*
X367400Y232400D01*
X643270Y259970D02*
X651200Y267900D01*
X653900D01*
X656300Y265500D01*
Y253700D02*
Y265500D01*
X654400Y251800D02*
X656300Y253700D01*
X646300Y251800D02*
X654400D01*
X645217Y252883D02*
X646300Y251800D01*
X364800Y240200D02*
X443500D01*
X665600Y292900D02*
X668800Y289700D01*
X408365Y292900D02*
X665600D01*
X367765Y252300D02*
X408365Y292900D01*
X254400Y252300D02*
X367765D01*
X267500Y227300D02*
X283000Y242800D01*
X369500D01*
X396700Y270000D01*
X556600D01*
X560800Y274200D02*
X651873D01*
X652537Y274864D01*
X690818Y269183D02*
X700136Y259864D01*
X671855Y269183D02*
X690818D01*
X669872Y267200D02*
X671855Y269183D01*
X669872Y260372D02*
Y267200D01*
X666345Y256845D02*
X669872Y260372D01*
X661900Y256845D02*
X666345D01*
X660500Y258245D02*
X661900Y256845D01*
X660500Y258245D02*
Y274200D01*
X656800Y277900D02*
X660500Y274200D01*
X365600Y248100D02*
X393000Y275500D01*
X273700Y248100D02*
X365600D01*
X230400Y256700D02*
X364240D01*
X225400Y261700D02*
X230400Y256700D01*
X225400Y261700D02*
Y310400D01*
X230000Y315000D01*
D58*
X210600Y362900D02*
X667837D01*
X160600Y312900D02*
X210600Y362900D01*
X160600Y288900D02*
Y312900D01*
Y288900D02*
X163000Y286500D01*
X691000Y316500D02*
X696700Y310800D01*
X667837Y362900D02*
X691000Y339737D01*
Y316500D02*
Y339737D01*
D59*
X638000Y164000D02*
Y171000D01*
X634000Y163500D02*
Y171000D01*
X638000D01*
D60*
X655200Y310800D02*
X696700D01*
X622100D02*
X655200D01*
X589200D02*
X622100D01*
X655200D02*
X657900Y313500D01*
X553900Y310800D02*
X589200D01*
X591200Y312800D01*
X696700Y310800D02*
X697500Y310000D01*
X703867Y100305D02*
Y108179D01*
X695993D02*
X703867D01*
X695993Y100305D02*
Y108179D01*
Y100305D02*
X703867D01*
D62*
X417000Y173000D02*
D03*
X427000D02*
D03*
X697500Y310000D02*
D03*
Y320000D02*
D03*
X230000Y315000D02*
D03*
D65*
X703867Y108179D02*
D03*
X695993D02*
D03*
X703867Y100305D02*
D03*
X695993D02*
D03*
D68*
X164000Y267000D02*
D03*
M02*
