G04*
G04 #@! TF.GenerationSoftware,Altium Limited,Altium Designer,18.0.12 (696)*
G04*
G04 Layer_Color=65535*
%FSLAX25Y25*%
%MOIN*%
G70*
G01*
G75*
%ADD10C,0.00600*%
%ADD11C,0.00984*%
%ADD12C,0.01000*%
%ADD13C,0.00787*%
%ADD14C,0.01500*%
%ADD15C,0.00800*%
G36*
X379769Y193985D02*
X381174D01*
Y193392D01*
X379769D01*
Y192000D01*
X379183D01*
Y193392D01*
X377791D01*
Y193985D01*
X379183D01*
Y195377D01*
X379769D01*
Y193985D01*
D02*
G37*
G36*
X326769Y206300D02*
X328174D01*
Y205707D01*
X326769D01*
Y204315D01*
X326183D01*
Y205707D01*
X324791D01*
Y206300D01*
X326183D01*
Y207692D01*
X326769D01*
Y206300D01*
D02*
G37*
G36*
X273769D02*
X275174D01*
Y205707D01*
X273769D01*
Y204315D01*
X273183D01*
Y205707D01*
X271791D01*
Y206300D01*
X273183D01*
Y207692D01*
X273769D01*
Y206300D01*
D02*
G37*
D10*
X579600Y319665D02*
X579147Y320759D01*
X578052Y321213D01*
X680400Y318813D02*
X680217Y319731D01*
X679697Y320510D01*
X678918Y321030D01*
X678000Y321213D01*
X646500Y319765D02*
X646076Y320789D01*
X645052Y321213D01*
X646500Y303400D02*
X646939Y302339D01*
X648000Y301900D01*
X649900Y300000D02*
X649645Y300950D01*
X648950Y301645D01*
X648000Y301900D01*
X613200Y319065D02*
X612912Y320139D01*
X612126Y320925D01*
X611052Y321213D01*
X613200Y305700D02*
X613362Y304680D01*
X613830Y303760D01*
X614560Y303030D01*
X615480Y302561D01*
X616500Y302400D01*
X645300Y299800D02*
X645102Y300795D01*
X644538Y301639D01*
X643695Y302202D01*
X642700Y302400D01*
X579600Y304100D02*
X579766Y303049D01*
X580249Y302101D01*
X581002Y301349D01*
X581949Y300866D01*
X583000Y300700D01*
X614700Y298400D02*
X614525Y299280D01*
X614026Y300026D01*
X613280Y300525D01*
X612400Y300700D01*
X621600Y193100D02*
X621500Y193000D01*
X573900Y188713D02*
X574043Y187813D01*
X574456Y187001D01*
X575101Y186356D01*
X575913Y185943D01*
X576813Y185800D01*
X611100Y254400D02*
X611000Y254300D01*
X650400Y249400D02*
X650304Y250376D01*
X650019Y251313D01*
X649557Y252178D01*
X648936Y252936D01*
X648178Y253557D01*
X647313Y254019D01*
X646376Y254304D01*
X645400Y254400D01*
X563700Y252900D02*
X563810Y251921D01*
X564136Y250991D01*
X564660Y250157D01*
X565357Y249460D01*
X566191Y248936D01*
X567121Y248610D01*
X568100Y248500D01*
X365598Y347370D02*
X365054Y348119D01*
X364174Y347833D01*
Y346907D01*
X365054Y346621D01*
X365598Y347370D01*
X345158Y168189D02*
X344613Y168938D01*
X343733Y168652D01*
Y167726D01*
X344613Y167440D01*
X345158Y168189D01*
X154976Y232630D02*
X154432Y233379D01*
X153552Y233093D01*
Y232167D01*
X154432Y231881D01*
X154976Y232630D01*
X456480Y213811D02*
X455936Y214560D01*
X455056Y214274D01*
Y213348D01*
X455936Y213062D01*
X456480Y213811D01*
X535220Y167189D02*
X534676Y167938D01*
X533796Y167652D01*
Y166726D01*
X534676Y166440D01*
X535220Y167189D01*
X245598Y250370D02*
X245054Y251119D01*
X244174Y250833D01*
Y249907D01*
X245054Y249621D01*
X245598Y250370D01*
X198976Y171630D02*
X198432Y172379D01*
X197552Y172093D01*
Y171167D01*
X198432Y170881D01*
X198976Y171630D01*
X579600Y315300D02*
Y319665D01*
X680400Y283300D02*
Y318813D01*
X646500Y303400D02*
Y319765D01*
X649900Y298500D02*
Y300000D01*
X613200Y305700D02*
Y319065D01*
X616500Y302400D02*
X642700D01*
X645300Y283200D02*
Y299800D01*
X579600Y304100D02*
Y315300D01*
X583000Y300700D02*
X612400D01*
X621600Y193100D02*
X648000D01*
X576813Y185800D02*
X623800D01*
X611100Y254400D02*
X645400D01*
X650400Y249200D02*
Y249400D01*
X568100Y248500D02*
X615600D01*
X654700Y186550D02*
X664700D01*
X654700Y180000D02*
Y193100D01*
X664700Y180000D02*
Y193100D01*
X630200Y181700D02*
X640100D01*
Y175400D02*
Y187800D01*
X630200Y175400D02*
Y187800D01*
X622400Y241950D02*
X635800D01*
Y235400D02*
Y248500D01*
X654400Y291700D02*
X667800D01*
X638500Y276400D02*
X652300D01*
Y269300D02*
Y283200D01*
X638500Y269300D02*
Y283200D01*
X671300Y276500D02*
X684300D01*
X622400Y235400D02*
Y248500D01*
X657200Y242800D02*
X670600D01*
Y236400D02*
Y249200D01*
X657200Y236400D02*
Y249200D01*
X684300Y269700D02*
Y283300D01*
X671300Y269700D02*
Y283300D01*
X667800Y284900D02*
Y298500D01*
X654400Y284900D02*
Y298500D01*
X622000Y291600D02*
X636400D01*
X622000Y284300D02*
Y298400D01*
X636400Y284300D02*
Y298400D01*
X614700Y284300D02*
Y298400D01*
X643600D01*
Y284300D02*
Y298400D01*
X614700Y284300D02*
X643600D01*
X647500Y284900D02*
Y298500D01*
Y284900D02*
X674200D01*
Y298500D01*
X647500D02*
X674200D01*
X648000Y180000D02*
Y193100D01*
Y180000D02*
X671600D01*
Y193100D01*
X648000D02*
X671600D01*
X623800Y175400D02*
Y187800D01*
X647000D01*
Y175400D02*
Y187800D01*
X623800Y175400D02*
X647000D01*
X650400Y249200D02*
X677700D01*
Y236400D02*
Y249200D01*
X650400Y236400D02*
X677700D01*
X650400D02*
Y249200D01*
X615600Y248500D02*
X642900D01*
Y235400D02*
Y248500D01*
X615600Y235400D02*
X642900D01*
X615600D02*
Y248500D01*
X664900Y269700D02*
Y283300D01*
X691200D01*
Y269700D02*
Y283300D01*
X664900Y269700D02*
X691200D01*
X630900Y269300D02*
Y283200D01*
X659300D01*
Y269300D02*
Y283200D01*
X630900Y269300D02*
X659300D01*
X516756Y296500D02*
Y299500D01*
X511244Y300756D02*
Y303906D01*
X515181D01*
X511244Y292094D02*
Y295244D01*
Y292094D02*
X515181D01*
X428500Y312244D02*
X431500D01*
X432756Y317756D02*
X435906D01*
Y313819D02*
Y317756D01*
X424094D02*
X427244D01*
X424094Y313819D02*
Y317756D01*
X548052Y304854D02*
Y314854D01*
X578052D01*
Y304854D02*
Y314854D01*
X548052Y304854D02*
X578052D01*
X548052Y349146D02*
Y359146D01*
X578052D01*
Y349146D02*
Y359146D01*
X548052Y349146D02*
X578052D01*
X581052Y304854D02*
Y314854D01*
X611052D01*
Y304854D02*
Y314854D01*
X581052Y304854D02*
X611052D01*
X581052Y349146D02*
Y359146D01*
X611052D01*
Y349146D02*
Y359146D01*
X581052Y349146D02*
X611052D01*
X615052Y304854D02*
Y314854D01*
X645052D01*
Y304854D02*
Y314854D01*
X615052Y304854D02*
X645052D01*
X615052Y349146D02*
Y359146D01*
X645052D01*
Y349146D02*
Y359146D01*
X615052Y349146D02*
X645052D01*
X648000Y304854D02*
Y314854D01*
X678000D01*
Y304854D02*
Y314854D01*
X648000Y304854D02*
X678000D01*
X648000Y349146D02*
Y359146D01*
X678000D01*
Y349146D02*
Y359146D01*
X648000Y349146D02*
X678000D01*
X511519Y235264D02*
Y240500D01*
X479550Y235264D02*
Y240500D01*
Y235264D02*
X511519D01*
X376125Y365500D02*
X546125D01*
Y240500D02*
Y365500D01*
X376125Y240500D02*
Y365500D01*
Y240500D02*
X546125D01*
X381125Y348000D02*
X401125D01*
Y258000D02*
Y348000D01*
X381125Y258000D02*
X401125D01*
X381125D02*
Y348000D01*
X531125Y358000D02*
X541125D01*
Y248000D02*
Y358000D01*
X531125Y248000D02*
X541125D01*
X531125D02*
Y358000D01*
X548000Y236654D02*
Y246654D01*
X578000D01*
Y236654D02*
Y246654D01*
X548000Y236654D02*
X578000D01*
X548000Y280946D02*
Y290946D01*
X578000D01*
Y280946D02*
Y290946D01*
X548000Y280946D02*
X578000D01*
X581000Y236654D02*
Y246654D01*
X611000D01*
Y236654D02*
Y246654D01*
X581000Y236654D02*
X611000D01*
X581000Y280946D02*
Y290946D01*
X611000D01*
Y280946D02*
Y290946D01*
X581000Y280946D02*
X611000D01*
X558000Y172354D02*
Y182354D01*
X588000D01*
Y172354D02*
Y182354D01*
X558000Y172354D02*
X588000D01*
X558000Y216646D02*
Y226646D01*
X588000D01*
Y216646D02*
Y226646D01*
X558000Y216646D02*
X588000D01*
X591000Y172354D02*
Y182354D01*
X621000D01*
Y172354D02*
Y182354D01*
X591000Y172354D02*
X621000D01*
X591000Y216646D02*
Y226646D01*
X621000D01*
Y216646D02*
Y226646D01*
X591000Y216646D02*
X621000D01*
X557555Y326000D02*
Y333000D01*
X570555Y326000D02*
Y333000D01*
X557555D02*
X570555D01*
X557555Y326000D02*
X570555D01*
X571555Y327000D02*
X578555D01*
X571555Y340000D02*
X578555D01*
X571555Y327000D02*
Y340000D01*
X578555Y327000D02*
Y340000D01*
X590846Y326000D02*
Y333000D01*
X603846Y326000D02*
Y333000D01*
X590846D02*
X603846D01*
X590846Y326000D02*
X603846D01*
X604846Y327000D02*
X611846D01*
X604846Y340000D02*
X611846D01*
X604846Y327000D02*
Y340000D01*
X611846Y327000D02*
Y340000D01*
X624846Y326000D02*
Y333000D01*
X637846Y326000D02*
Y333000D01*
X624846D02*
X637846D01*
X624846Y326000D02*
X637846D01*
X638846Y327000D02*
X645846D01*
X638846Y340000D02*
X645846D01*
X638846Y327000D02*
Y340000D01*
X645846Y327000D02*
Y340000D01*
X520500Y339500D02*
Y346500D01*
X507500Y339500D02*
Y346500D01*
Y339500D02*
X520500D01*
X507500Y346500D02*
X520500D01*
X507500Y329500D02*
Y336500D01*
X520500Y329500D02*
Y336500D01*
X507500D02*
X520500D01*
X507500Y329500D02*
X520500D01*
Y319500D02*
Y326500D01*
X507500Y319500D02*
Y326500D01*
Y319500D02*
X520500D01*
X507500Y326500D02*
X520500D01*
X557154Y257300D02*
Y264300D01*
X570154Y257300D02*
Y264300D01*
X557154D02*
X570154D01*
X557154Y257300D02*
X570154D01*
X571154Y258300D02*
X578154D01*
X571154Y271300D02*
X578154D01*
X571154Y258300D02*
Y271300D01*
X578154Y258300D02*
Y271300D01*
X657500Y325500D02*
Y332500D01*
X670500Y325500D02*
Y332500D01*
X657500D02*
X670500D01*
X657500Y325500D02*
X670500D01*
X590500Y257800D02*
Y264800D01*
X603500Y257800D02*
Y264800D01*
X590500D02*
X603500D01*
X590500Y257800D02*
X603500D01*
X671500Y326500D02*
X678500D01*
X671500Y339500D02*
X678500D01*
X671500Y326500D02*
Y339500D01*
X678500Y326500D02*
Y339500D01*
X604500Y258800D02*
X611500D01*
X604500Y271800D02*
X611500D01*
X604500Y258800D02*
Y271800D01*
X611500Y258800D02*
Y271800D01*
X567500Y192500D02*
Y199500D01*
X580500Y192500D02*
Y199500D01*
X567500D02*
X580500D01*
X567500Y192500D02*
X580500D01*
X581500Y193500D02*
X588500D01*
X581500Y206500D02*
X588500D01*
X581500Y193500D02*
Y206500D01*
X588500Y193500D02*
Y206500D01*
X600500Y192000D02*
Y199000D01*
X613500Y192000D02*
Y199000D01*
X600500D02*
X613500D01*
X600500Y192000D02*
X613500D01*
X614500Y193000D02*
X621500D01*
X614500Y206000D02*
X621500D01*
X614500Y193000D02*
Y206000D01*
X621500Y193000D02*
Y206000D01*
X436500Y291500D02*
Y298500D01*
X423500Y291500D02*
Y298500D01*
Y291500D02*
X436500D01*
X423500Y298500D02*
X436500D01*
X423500Y299500D02*
Y306500D01*
X436500Y299500D02*
Y306500D01*
X423500D02*
X436500D01*
X423500Y299500D02*
X436500D01*
X507500Y249500D02*
Y256500D01*
X520500Y249500D02*
Y256500D01*
X507500D02*
X520500D01*
X507500Y249500D02*
X520500D01*
X507500Y259500D02*
Y266500D01*
X520500Y259500D02*
Y266500D01*
X507500D02*
X520500D01*
X507500Y259500D02*
X520500D01*
X507500Y269500D02*
Y276500D01*
X520500Y269500D02*
Y276500D01*
X507500D02*
X520500D01*
X507500Y269500D02*
X520500D01*
X507500Y279500D02*
Y286500D01*
X520500Y279500D02*
Y286500D01*
X507500D02*
X520500D01*
X507500Y279500D02*
X520500D01*
Y309500D02*
Y316500D01*
X507500Y309500D02*
Y316500D01*
Y309500D02*
X520500D01*
X507500Y316500D02*
X520500D01*
X362843Y346386D02*
Y348354D01*
X343157D02*
X362843D01*
Y267646D02*
Y269614D01*
X343157Y267646D02*
X362843D01*
X343157D02*
Y348354D01*
X343386Y170157D02*
X345354D01*
Y189843D01*
X264646Y170157D02*
X266614D01*
X264646D02*
Y189843D01*
X345354D01*
X156157Y231646D02*
Y233614D01*
Y231646D02*
X175843D01*
X156157Y310386D02*
Y312354D01*
X175843D01*
Y231646D02*
Y312354D01*
X454709Y211843D02*
X456677D01*
X454709Y192157D02*
Y211843D01*
X533449D02*
X535417D01*
Y192157D02*
Y211843D01*
X454709Y192157D02*
X535417D01*
X533449Y169157D02*
X535417D01*
Y188843D01*
X454709Y169157D02*
X456677D01*
X454709D02*
Y188843D01*
X535417D01*
X242843Y249386D02*
Y251354D01*
X223157D02*
X242843D01*
Y170646D02*
Y172614D01*
X223157Y170646D02*
X242843D01*
X223157D02*
Y251354D01*
X200157Y170646D02*
Y172614D01*
Y170646D02*
X219843D01*
X200157Y249386D02*
Y251354D01*
X219843D01*
Y170646D02*
Y251354D01*
X549500Y339846D02*
X556500D01*
X549500Y326846D02*
X556500D01*
Y339846D01*
X549500Y326846D02*
Y339846D01*
X557555Y334000D02*
Y341000D01*
X570555Y334000D02*
Y341000D01*
X557555D02*
X570555D01*
X557555Y334000D02*
X570555D01*
X582500Y340000D02*
X589500D01*
X582500Y327000D02*
X589500D01*
Y340000D01*
X582500Y327000D02*
Y340000D01*
X590846Y334000D02*
Y341000D01*
X603846Y334000D02*
Y341000D01*
X590846D02*
X603846D01*
X590846Y334000D02*
X603846D01*
X616500Y339846D02*
X623500D01*
X616500Y326846D02*
X623500D01*
Y339846D01*
X616500Y326846D02*
Y339846D01*
X624846Y334000D02*
Y341000D01*
X637846Y334000D02*
Y341000D01*
X624846D02*
X637846D01*
X624846Y334000D02*
X637846D01*
X649500Y339500D02*
X656500D01*
X649500Y326500D02*
X656500D01*
Y339500D01*
X649500Y326500D02*
Y339500D01*
X657500Y333500D02*
Y340500D01*
X670500Y333500D02*
Y340500D01*
X657500D02*
X670500D01*
X657500Y333500D02*
X670500D01*
X549500Y270300D02*
X556500D01*
X549500Y257300D02*
X556500D01*
Y270300D01*
X549500Y257300D02*
Y270300D01*
X557154Y265300D02*
Y272300D01*
X570154Y265300D02*
Y272300D01*
X557154D02*
X570154D01*
X557154Y265300D02*
X570154D01*
X582500Y270300D02*
X589500D01*
X582500Y257300D02*
X589500D01*
Y270300D01*
X582500Y257300D02*
Y270300D01*
X590500Y265800D02*
Y272800D01*
X603500Y265800D02*
Y272800D01*
X590500D02*
X603500D01*
X590500Y265800D02*
X603500D01*
X559500Y206000D02*
X566500D01*
X559500Y193000D02*
X566500D01*
Y206000D01*
X559500Y193000D02*
Y206000D01*
X567500Y200500D02*
Y207500D01*
X580500Y200500D02*
Y207500D01*
X567500D02*
X580500D01*
X567500Y200500D02*
X580500D01*
X592500Y206000D02*
X599500D01*
X592500Y193000D02*
X599500D01*
Y206000D01*
X592500Y193000D02*
Y206000D01*
X600500Y200000D02*
Y207000D01*
X613500Y200000D02*
Y207000D01*
X600500D02*
X613500D01*
X600500Y200000D02*
X613500D01*
D11*
X519216Y290913D02*
X518478Y291340D01*
Y290487D01*
X519216Y290913D01*
X423406Y310276D02*
X422667Y310702D01*
Y309849D01*
X423406Y310276D01*
D12*
X548052Y321213D02*
Y334354D01*
X556552Y342787D02*
X578052D01*
X548159Y334394D02*
X556552Y342787D01*
X578052Y321213D02*
Y342787D01*
X548052Y321213D02*
X578052D01*
X581052D02*
Y334354D01*
X589552Y342787D02*
X611052D01*
X581159Y334394D02*
X589552Y342787D01*
X611052Y321213D02*
Y342787D01*
X581052Y321213D02*
X611052D01*
X615052D02*
Y334354D01*
X623552Y342787D02*
X645052D01*
X615159Y334394D02*
X623552Y342787D01*
X645052Y321213D02*
Y342787D01*
X615052Y321213D02*
X645052D01*
X648000D02*
Y334354D01*
X656500Y342787D02*
X678000D01*
X648106Y334394D02*
X656500Y342787D01*
X678000Y321213D02*
Y342787D01*
X648000Y321213D02*
X678000D01*
X548000Y253013D02*
Y266154D01*
X556500Y274587D02*
X578000D01*
X548106Y266194D02*
X556500Y274587D01*
X578000Y253013D02*
Y274587D01*
X548000Y253013D02*
X578000D01*
X581000D02*
Y266154D01*
X589500Y274587D02*
X611000D01*
X581106Y266194D02*
X589500Y274587D01*
X611000Y253013D02*
Y274587D01*
X581000Y253013D02*
X611000D01*
X558000Y188713D02*
Y201854D01*
X566500Y210287D02*
X588000D01*
X558106Y201894D02*
X566500Y210287D01*
X588000Y188713D02*
Y210287D01*
X558000Y188713D02*
X588000D01*
X591000D02*
Y201854D01*
X599500Y210287D02*
X621000D01*
X591106Y201894D02*
X599500Y210287D01*
X621000Y188713D02*
Y210287D01*
X591000Y188713D02*
X621000D01*
X443500Y159500D02*
Y186500D01*
X400500Y159500D02*
X443500D01*
X400500Y186500D02*
X443500D01*
X400500Y159500D02*
Y186500D01*
X684000Y336500D02*
X711000D01*
Y293500D02*
Y336500D01*
X684000Y293500D02*
Y336500D01*
Y293500D02*
X711000D01*
X201000Y336500D02*
Y363500D01*
X244000D01*
X201000Y336500D02*
X244000D01*
Y363500D01*
X216500Y288500D02*
X243500D01*
X216500D02*
Y331500D01*
X243500Y288500D02*
Y331500D01*
X216500D02*
X243500D01*
X118500Y336500D02*
Y363500D01*
X161500D01*
X118500Y336500D02*
X161500D01*
Y363500D01*
X216500Y263500D02*
X243500D01*
X216500D02*
Y286500D01*
X243500D01*
Y263500D02*
Y286500D01*
X423039Y287500D02*
Y317500D01*
X407961Y287500D02*
X423039D01*
X407961D02*
Y317500D01*
X423039D01*
X415500Y300000D02*
Y305000D01*
X367200Y349900D02*
X368866D01*
X368033D01*
Y354898D01*
X367200Y354065D01*
X247700Y251800D02*
X249366D01*
X248533D01*
Y256798D01*
X247700Y255965D01*
X454100Y216200D02*
X455766D01*
X454933D01*
Y221198D01*
X454100Y220365D01*
X536400Y161800D02*
X538066D01*
X537233D01*
Y166798D01*
X536400Y165965D01*
X344700Y161600D02*
X346366D01*
X345533D01*
Y166598D01*
X344700Y165765D01*
X148000Y228600D02*
Y226934D01*
Y227767D01*
X152998D01*
X152165Y228600D01*
X190800Y167600D02*
Y165934D01*
Y166767D01*
X195798D01*
X194965Y167600D01*
X378625Y350500D02*
X380291D01*
X379458D01*
Y355498D01*
X378625Y354665D01*
X401125Y250500D02*
X402791D01*
X401958D01*
Y255498D01*
X401125Y254665D01*
X405290D02*
X406123Y255498D01*
X407790D01*
X408623Y254665D01*
Y253832D01*
X407790Y252999D01*
X408623Y252166D01*
Y251333D01*
X407790Y250500D01*
X406123D01*
X405290Y251333D01*
Y252166D01*
X406123Y252999D01*
X405290Y253832D01*
Y254665D01*
X406123Y252999D02*
X407790D01*
X378625Y250500D02*
X380291D01*
X379458D01*
Y255498D01*
X378625Y254665D01*
X382790Y255498D02*
X386123D01*
Y254665D01*
X382790Y251333D01*
Y250500D01*
X404457Y350500D02*
X401125D01*
X404457Y353832D01*
Y354665D01*
X403624Y355498D01*
X401958D01*
X401125Y354665D01*
X521125Y243000D02*
X522791D01*
X521958D01*
Y247998D01*
X521125Y247165D01*
X525290Y243833D02*
X526123Y243000D01*
X527789D01*
X528623Y243833D01*
Y247165D01*
X527789Y247998D01*
X526123D01*
X525290Y247165D01*
Y246332D01*
X526123Y245499D01*
X528623D01*
X524457Y358000D02*
X521125D01*
X524457Y361332D01*
Y362165D01*
X523624Y362998D01*
X521958D01*
X521125Y362165D01*
X526123Y358833D02*
X526956Y358000D01*
X528623D01*
X529456Y358833D01*
Y362165D01*
X528623Y362998D01*
X526956D01*
X526123Y362165D01*
Y361332D01*
X526956Y360499D01*
X529456D01*
X397400Y169800D02*
X399066D01*
X398233D01*
Y174798D01*
X397400Y173965D01*
X690300Y289800D02*
Y291466D01*
Y290633D01*
X685302D01*
X686135Y289800D01*
X249000Y363500D02*
X247334D01*
X248167D01*
Y358502D01*
X249000Y359335D01*
X209500Y329100D02*
Y327434D01*
Y328267D01*
X214498D01*
X213665Y329100D01*
X166100Y362900D02*
X164434D01*
X165267D01*
Y357902D01*
X166100Y358735D01*
X209400Y284400D02*
Y282734D01*
Y283567D01*
X214398D01*
X213565Y284400D01*
X418999Y235998D02*
X417999Y236998D01*
X416000D01*
X415000Y235998D01*
Y232000D01*
X416000Y231000D01*
X417999D01*
X418999Y232000D01*
X420998Y231000D02*
X422997D01*
X421998D01*
Y236998D01*
X420998Y235998D01*
X429995Y231000D02*
X425996D01*
X429995Y234999D01*
Y235998D01*
X428996Y236998D01*
X426996D01*
X425996Y235998D01*
X490000Y315998D02*
Y310000D01*
X493999D01*
X495998D02*
X497997D01*
X496998D01*
Y315998D01*
X495998Y314998D01*
X503996Y310000D02*
Y315998D01*
X500996Y312999D01*
X504995D01*
X293999Y257998D02*
X292999Y258998D01*
X291000D01*
X290000Y257998D01*
Y254000D01*
X291000Y253000D01*
X292999D01*
X293999Y254000D01*
X295998Y253000D02*
X297997D01*
X296998D01*
Y258998D01*
X295998Y257998D01*
X300996D02*
X301996Y258998D01*
X303995D01*
X304995Y257998D01*
Y254000D01*
X303995Y253000D01*
X301996D01*
X300996Y254000D01*
Y257998D01*
X317999D02*
X316999Y258998D01*
X315000D01*
X314000Y257998D01*
Y254000D01*
X315000Y253000D01*
X316999D01*
X317999Y254000D01*
X319998Y253000D02*
X321997D01*
X320998D01*
Y258998D01*
X319998Y257998D01*
X324996Y253000D02*
X326996D01*
X325996D01*
Y258998D01*
X324996Y257998D01*
X412202Y324599D02*
Y320600D01*
X415201D01*
Y322599D01*
Y320600D01*
X418200D01*
Y326598D02*
Y328597D01*
Y327598D01*
X412202D01*
X413202Y326598D01*
X209999Y275998D02*
X207999D01*
X208999D01*
Y271000D01*
X207999Y270000D01*
X207000D01*
X206000Y271000D01*
X211998Y270000D02*
X213997D01*
X212998D01*
Y275998D01*
X211998Y274998D01*
X122999Y333998D02*
X120999D01*
X121999D01*
Y329000D01*
X120999Y328000D01*
X120000D01*
X119000Y329000D01*
X124998Y332998D02*
X125998Y333998D01*
X127997D01*
X128997Y332998D01*
Y331999D01*
X127997Y330999D01*
X126997D01*
X127997D01*
X128997Y329999D01*
Y329000D01*
X127997Y328000D01*
X125998D01*
X124998Y329000D01*
X203999Y312998D02*
X201999D01*
X202999D01*
Y308000D01*
X201999Y307000D01*
X201000D01*
X200000Y308000D01*
X205998Y307000D02*
X207997D01*
X206998D01*
Y312998D01*
X205998Y311998D01*
X213996Y307000D02*
Y312998D01*
X210996Y309999D01*
X214995D01*
X187999Y339998D02*
X185999D01*
X186999D01*
Y335000D01*
X185999Y334000D01*
X185000D01*
X184000Y335000D01*
X189998Y334000D02*
X191997D01*
X190998D01*
Y339998D01*
X189998Y338998D01*
X198995Y339998D02*
X194996D01*
Y336999D01*
X196996Y337999D01*
X197995D01*
X198995Y336999D01*
Y335000D01*
X197995Y334000D01*
X195996D01*
X194996Y335000D01*
X699999Y290998D02*
X697999D01*
X698999D01*
Y286000D01*
X697999Y285000D01*
X697000D01*
X696000Y286000D01*
X705997Y285000D02*
X701998D01*
X705997Y288999D01*
Y289998D01*
X704997Y290998D01*
X702998D01*
X701998Y289998D01*
X707996D02*
X708996Y290998D01*
X710995D01*
X711995Y289998D01*
Y286000D01*
X710995Y285000D01*
X708996D01*
X707996Y286000D01*
Y289998D01*
X419999Y193998D02*
X417999D01*
X418999D01*
Y189000D01*
X417999Y188000D01*
X417000D01*
X416000Y189000D01*
X425997Y188000D02*
X421998D01*
X425997Y191999D01*
Y192998D01*
X424997Y193998D01*
X422998D01*
X421998Y192998D01*
X431995Y188000D02*
X427996D01*
X431995Y191999D01*
Y192998D01*
X430995Y193998D01*
X428996D01*
X427996Y192998D01*
X490000Y285998D02*
Y280000D01*
X493999D01*
X495998D02*
X497997D01*
X496998D01*
Y285998D01*
X495998Y284998D01*
X504995Y285998D02*
X500996D01*
Y282999D01*
X502996Y283999D01*
X503996D01*
X504995Y282999D01*
Y281000D01*
X503996Y280000D01*
X501996D01*
X500996Y281000D01*
X490000Y275998D02*
Y270000D01*
X493999D01*
X495998D02*
X497997D01*
X496998D01*
Y275998D01*
X495998Y274998D01*
X504995Y275998D02*
X502996Y274998D01*
X500996Y272999D01*
Y271000D01*
X501996Y270000D01*
X503996D01*
X504995Y271000D01*
Y271999D01*
X503996Y272999D01*
X500996D01*
X490000Y265998D02*
Y260000D01*
X493999D01*
X495998D02*
X497997D01*
X496998D01*
Y265998D01*
X495998Y264998D01*
X500996Y265998D02*
X504995D01*
Y264998D01*
X500996Y261000D01*
Y260000D01*
X490000Y255998D02*
Y250000D01*
X493999D01*
X495998D02*
X497997D01*
X496998D01*
Y255998D01*
X495998Y254998D01*
X500996D02*
X501996Y255998D01*
X503996D01*
X504995Y254998D01*
Y253999D01*
X503996Y252999D01*
X504995Y251999D01*
Y251000D01*
X503996Y250000D01*
X501996D01*
X500996Y251000D01*
Y251999D01*
X501996Y252999D01*
X500996Y253999D01*
Y254998D01*
X501996Y252999D02*
X503996D01*
X439000Y305998D02*
Y300000D01*
X442999D01*
X444998D02*
X446997D01*
X445998D01*
Y305998D01*
X444998Y304998D01*
X449996Y301000D02*
X450996Y300000D01*
X452995D01*
X453995Y301000D01*
Y304998D01*
X452995Y305998D01*
X450996D01*
X449996Y304998D01*
Y303999D01*
X450996Y302999D01*
X453995D01*
X439000Y297998D02*
Y292000D01*
X442999D01*
X448997D02*
X444998D01*
X448997Y295999D01*
Y296998D01*
X447997Y297998D01*
X445998D01*
X444998Y296998D01*
X450996D02*
X451996Y297998D01*
X453995D01*
X454995Y296998D01*
Y293000D01*
X453995Y292000D01*
X451996D01*
X450996Y293000D01*
Y296998D01*
X490000Y320000D02*
Y325998D01*
X492999D01*
X493999Y324998D01*
Y322999D01*
X492999Y321999D01*
X490000D01*
X491999D02*
X493999Y320000D01*
X495998D02*
X497997D01*
X496998D01*
Y325998D01*
X495998Y324998D01*
X504995Y325998D02*
X502996Y324998D01*
X500996Y322999D01*
Y321000D01*
X501996Y320000D01*
X503996D01*
X504995Y321000D01*
Y321999D01*
X503996Y322999D01*
X500996D01*
X490000Y330000D02*
Y335998D01*
X492999D01*
X493999Y334998D01*
Y332999D01*
X492999Y331999D01*
X490000D01*
X491999D02*
X493999Y330000D01*
X495998D02*
X497997D01*
X496998D01*
Y335998D01*
X495998Y334998D01*
X500996Y335998D02*
X504995D01*
Y334998D01*
X500996Y331000D01*
Y330000D01*
X490000Y340000D02*
Y345998D01*
X492999D01*
X493999Y344998D01*
Y342999D01*
X492999Y341999D01*
X490000D01*
X491999D02*
X493999Y340000D01*
X495998D02*
X497997D01*
X496998D01*
Y345998D01*
X495998Y344998D01*
X500996D02*
X501996Y345998D01*
X503996D01*
X504995Y344998D01*
Y343999D01*
X503996Y342999D01*
X504995Y341999D01*
Y341000D01*
X503996Y340000D01*
X501996D01*
X500996Y341000D01*
Y341999D01*
X501996Y342999D01*
X500996Y343999D01*
Y344998D01*
X501996Y342999D02*
X503996D01*
X567100Y298198D02*
Y293200D01*
X568100Y292200D01*
X570099D01*
X571099Y293200D01*
Y298198D01*
X577097D02*
X575097Y297198D01*
X573098Y295199D01*
Y293200D01*
X574098Y292200D01*
X576097D01*
X577097Y293200D01*
Y294199D01*
X576097Y295199D01*
X573098D01*
X439000Y317998D02*
X442999D01*
Y316998D01*
X439000Y313000D01*
Y312000D01*
X442999D01*
X444998Y317998D02*
Y312000D01*
X447997D01*
X448997Y313000D01*
Y316998D01*
X447997Y317998D01*
X444998D01*
X454995Y312000D02*
X450996D01*
X454995Y315999D01*
Y316998D01*
X453995Y317998D01*
X451996D01*
X450996Y316998D01*
X490000Y300998D02*
X493999D01*
Y299998D01*
X490000Y296000D01*
Y295000D01*
X493999D01*
X495998Y300998D02*
Y295000D01*
X498997D01*
X499997Y296000D01*
Y299998D01*
X498997Y300998D01*
X495998D01*
X501996Y299998D02*
X502996Y300998D01*
X504995D01*
X505995Y299998D01*
Y298999D01*
X504995Y297999D01*
X503996D01*
X504995D01*
X505995Y296999D01*
Y296000D01*
X504995Y295000D01*
X502996D01*
X501996Y296000D01*
X382900Y363398D02*
Y358400D01*
X383900Y357400D01*
X385899D01*
X386899Y358400D01*
Y363398D01*
X388898D02*
X392897D01*
Y362398D01*
X388898Y358400D01*
Y357400D01*
X540999Y219998D02*
X538999D01*
X539999D01*
Y215000D01*
X538999Y214000D01*
X538000D01*
X537000Y215000D01*
X542998Y219998D02*
X546997D01*
Y218998D01*
X542998Y215000D01*
Y214000D01*
X548499Y170398D02*
X546499D01*
X547499D01*
Y165400D01*
X546499Y164400D01*
X545500D01*
X544500Y165400D01*
X554497Y170398D02*
X552497Y169398D01*
X550498Y167399D01*
Y165400D01*
X551498Y164400D01*
X553497D01*
X554497Y165400D01*
Y166399D01*
X553497Y167399D01*
X550498D01*
X567500Y365298D02*
Y361133D01*
X568333Y360300D01*
X569999D01*
X570832Y361133D01*
Y365298D01*
X572498Y360300D02*
X574164D01*
X573331D01*
Y365298D01*
X572498Y364465D01*
X576664Y360300D02*
X578330D01*
X577497D01*
Y365298D01*
X576664Y364465D01*
X669800Y365398D02*
Y361233D01*
X670633Y360400D01*
X672299D01*
X673132Y361233D01*
Y365398D01*
X674798Y364565D02*
X675631Y365398D01*
X677298D01*
X678131Y364565D01*
Y363732D01*
X677298Y362899D01*
X678131Y362066D01*
Y361233D01*
X677298Y360400D01*
X675631D01*
X674798Y361233D01*
Y362066D01*
X675631Y362899D01*
X674798Y363732D01*
Y364565D01*
X675631Y362899D02*
X677298D01*
X636600Y365298D02*
Y361133D01*
X637433Y360300D01*
X639099D01*
X639932Y361133D01*
Y365298D01*
X641598Y361133D02*
X642431Y360300D01*
X644098D01*
X644931Y361133D01*
Y364465D01*
X644098Y365298D01*
X642431D01*
X641598Y364465D01*
Y363632D01*
X642431Y362799D01*
X644931D01*
X599400Y365298D02*
Y361133D01*
X600233Y360300D01*
X601899D01*
X602732Y361133D01*
Y365298D01*
X604398Y360300D02*
X606065D01*
X605231D01*
Y365298D01*
X604398Y364465D01*
X608564D02*
X609397Y365298D01*
X611063D01*
X611896Y364465D01*
Y361133D01*
X611063Y360300D01*
X609397D01*
X608564Y361133D01*
Y364465D01*
X600700Y297898D02*
Y292900D01*
X601700Y291900D01*
X603699D01*
X604699Y292900D01*
Y297898D01*
X610697D02*
X606698D01*
Y294899D01*
X608697Y295899D01*
X609697D01*
X610697Y294899D01*
Y292900D01*
X609697Y291900D01*
X607698D01*
X606698Y292900D01*
X578000Y170798D02*
Y165800D01*
X579000Y164800D01*
X580999D01*
X581999Y165800D01*
Y170798D01*
X586997Y164800D02*
Y170798D01*
X583998Y167799D01*
X587997D01*
X610900Y170998D02*
Y166000D01*
X611900Y165000D01*
X613899D01*
X614899Y166000D01*
Y170998D01*
X616898Y169998D02*
X617898Y170998D01*
X619897D01*
X620897Y169998D01*
Y168999D01*
X619897Y167999D01*
X618897D01*
X619897D01*
X620897Y166999D01*
Y166000D01*
X619897Y165000D01*
X617898D01*
X616898Y166000D01*
X250799Y167098D02*
X248799D01*
X249799D01*
Y162100D01*
X248799Y161100D01*
X247800D01*
X246800Y162100D01*
X256797Y167098D02*
X252798D01*
Y164099D01*
X254797Y165099D01*
X255797D01*
X256797Y164099D01*
Y162100D01*
X255797Y161100D01*
X253798D01*
X252798Y162100D01*
X191999Y255998D02*
X189999D01*
X190999D01*
Y251000D01*
X189999Y250000D01*
X189000D01*
X188000Y251000D01*
X196997Y250000D02*
Y255998D01*
X193998Y252999D01*
X197997D01*
X327099Y362998D02*
X325099D01*
X326099D01*
Y358000D01*
X325099Y357000D01*
X324100D01*
X323100Y358000D01*
X329098Y357000D02*
X331097D01*
X330098D01*
Y362998D01*
X329098Y361998D01*
X334096D02*
X335096Y362998D01*
X337095D01*
X338095Y361998D01*
Y358000D01*
X337095Y357000D01*
X335096D01*
X334096Y358000D01*
Y361998D01*
X360399Y170098D02*
X358399D01*
X359399D01*
Y165100D01*
X358399Y164100D01*
X357400D01*
X356400Y165100D01*
X362398D02*
X363398Y164100D01*
X365397D01*
X366397Y165100D01*
Y169098D01*
X365397Y170098D01*
X363398D01*
X362398Y169098D01*
Y168099D01*
X363398Y167099D01*
X366397D01*
X146999Y317998D02*
X144999D01*
X145999D01*
Y313000D01*
X144999Y312000D01*
X144000D01*
X143000Y313000D01*
X148998Y316998D02*
X149998Y317998D01*
X151997D01*
X152997Y316998D01*
Y315999D01*
X151997Y314999D01*
X152997Y313999D01*
Y313000D01*
X151997Y312000D01*
X149998D01*
X148998Y313000D01*
Y313999D01*
X149998Y314999D01*
X148998Y315999D01*
Y316998D01*
X149998Y314999D02*
X151997D01*
D13*
X371498Y187016D02*
X380799D01*
X361016Y197498D02*
X371498Y187016D01*
X402502D02*
X412984Y197498D01*
X393201Y187016D02*
X402502D01*
X361016Y197498D02*
Y238984D01*
X380799D01*
X393201D02*
X412984D01*
Y197498D02*
Y238984D01*
X318498Y199331D02*
X327799D01*
X308016Y209813D02*
X318498Y199331D01*
X349502D02*
X359984Y209813D01*
X340201Y199331D02*
X349502D01*
X308016Y209813D02*
Y251299D01*
X327799D01*
X340201D02*
X359984D01*
Y209813D02*
Y251299D01*
X265498Y199331D02*
X274799D01*
X255016Y209813D02*
X265498Y199331D01*
X296502D02*
X306984Y209813D01*
X287201Y199331D02*
X296502D01*
X255016Y209813D02*
Y251299D01*
X274799D01*
X287201D02*
X306984D01*
Y209813D02*
Y251299D01*
D14*
X650039Y225930D02*
Y231262D01*
X652705Y233927D01*
X655371Y231262D01*
Y225930D01*
Y229929D01*
X650039D01*
X658037Y225930D02*
Y233927D01*
X660703Y231262D01*
X663368Y233927D01*
Y225930D01*
X666034D02*
Y233927D01*
X668700Y231262D01*
X671366Y233927D01*
Y225930D01*
X674032Y233927D02*
Y225930D01*
X678030D01*
X679363Y227263D01*
Y232595D01*
X678030Y233927D01*
X674032D01*
X682029D02*
Y225930D01*
Y228596D01*
X687361Y233927D01*
X683362Y229929D01*
X687361Y225930D01*
X628713Y212733D02*
Y218065D01*
X631379Y220731D01*
X634045Y218065D01*
Y212733D01*
Y216732D01*
X628713D01*
X636710Y210067D02*
Y218065D01*
X640709D01*
X642042Y216732D01*
Y214066D01*
X640709Y212733D01*
X636710D01*
X644708Y210067D02*
Y218065D01*
X648706D01*
X650039Y216732D01*
Y214066D01*
X648706Y212733D01*
X644708D01*
X652705D02*
X655371D01*
X654038D01*
Y220731D01*
X652705D01*
X659370Y212733D02*
X662036D01*
X660703D01*
Y218065D01*
X659370D01*
X671366D02*
X667367D01*
X666034Y216732D01*
Y214066D01*
X667367Y212733D01*
X671366D01*
X675364Y218065D02*
X678030D01*
X679363Y216732D01*
Y212733D01*
X675364D01*
X674032Y214066D01*
X675364Y215399D01*
X679363D01*
X683362Y219398D02*
Y218065D01*
X682029D01*
X684695D01*
X683362D01*
Y214066D01*
X684695Y212733D01*
X688694D02*
X691359D01*
X690026D01*
Y218065D01*
X688694D01*
X696691Y212733D02*
X699357D01*
X700690Y214066D01*
Y216732D01*
X699357Y218065D01*
X696691D01*
X695358Y216732D01*
Y214066D01*
X696691Y212733D01*
X703356D02*
Y218065D01*
X707354D01*
X708687Y216732D01*
Y212733D01*
X638043Y204868D02*
Y196871D01*
X642042D01*
X643375Y198203D01*
Y199536D01*
X642042Y200869D01*
X638043D01*
X642042D01*
X643375Y202202D01*
Y203535D01*
X642042Y204868D01*
X638043D01*
X647374Y196871D02*
X650039D01*
X651372Y198203D01*
Y200869D01*
X650039Y202202D01*
X647374D01*
X646041Y200869D01*
Y198203D01*
X647374Y196871D01*
X655371Y202202D02*
X658037D01*
X659370Y200869D01*
Y196871D01*
X655371D01*
X654038Y198203D01*
X655371Y199536D01*
X659370D01*
X662036Y202202D02*
Y196871D01*
Y199536D01*
X663368Y200869D01*
X664701Y202202D01*
X666034D01*
X675364Y204868D02*
Y196871D01*
X671366D01*
X670033Y198203D01*
Y200869D01*
X671366Y202202D01*
X675364D01*
X686028Y204868D02*
Y199536D01*
X688694Y196871D01*
X691359Y199536D01*
Y204868D01*
X699357Y196871D02*
X694025D01*
X699357Y202202D01*
Y203535D01*
X698024Y204868D01*
X695358D01*
X694025Y203535D01*
D15*
X624000Y286000D02*
Y289999D01*
X625999D01*
X626666Y289332D01*
Y287999D01*
X625999Y287333D01*
X624000D01*
X625333D02*
X626666Y286000D01*
X630664D02*
X627999D01*
X630664Y288666D01*
Y289332D01*
X629998Y289999D01*
X628665D01*
X627999Y289332D01*
X633997Y286000D02*
Y289999D01*
X631997Y287999D01*
X634663D01*
X637900Y296800D02*
X641899D01*
Y294801D01*
X641232Y294134D01*
X639899D01*
X639233Y294801D01*
Y296800D01*
Y295467D02*
X637900Y294134D01*
Y290136D02*
Y292801D01*
X640566Y290136D01*
X641232D01*
X641899Y290802D01*
Y292135D01*
X641232Y292801D01*
Y288803D02*
X641899Y288136D01*
Y286803D01*
X641232Y286137D01*
X640566D01*
X639899Y286803D01*
Y287470D01*
Y286803D01*
X639233Y286137D01*
X638566D01*
X637900Y286803D01*
Y288136D01*
X638566Y288803D01*
X640000Y271000D02*
Y274999D01*
X641999D01*
X642666Y274332D01*
Y272999D01*
X641999Y272333D01*
X640000D01*
X641333D02*
X642666Y271000D01*
X646664D02*
X643999D01*
X646664Y273666D01*
Y274332D01*
X645998Y274999D01*
X644665D01*
X643999Y274332D01*
X650663Y271000D02*
X647997D01*
X650663Y273666D01*
Y274332D01*
X649997Y274999D01*
X648664D01*
X647997Y274332D01*
X654000Y280000D02*
X657999D01*
Y278001D01*
X657332Y277334D01*
X655999D01*
X655333Y278001D01*
Y280000D01*
Y278667D02*
X654000Y277334D01*
Y273336D02*
Y276001D01*
X656666Y273336D01*
X657332D01*
X657999Y274002D01*
Y275335D01*
X657332Y276001D01*
X654000Y272003D02*
Y270670D01*
Y271336D01*
X657999D01*
X657332Y272003D01*
X656000Y286000D02*
Y289999D01*
X657999D01*
X658666Y289332D01*
Y287999D01*
X657999Y287333D01*
X656000D01*
X657333D02*
X658666Y286000D01*
X662665D02*
X659999D01*
X662665Y288666D01*
Y289332D01*
X661998Y289999D01*
X660665D01*
X659999Y289332D01*
X663997D02*
X664664Y289999D01*
X665997D01*
X666663Y289332D01*
Y286666D01*
X665997Y286000D01*
X664664D01*
X663997Y286666D01*
Y289332D01*
X669000Y296000D02*
X672999D01*
Y294001D01*
X672332Y293334D01*
X670999D01*
X670333Y294001D01*
Y296000D01*
Y294667D02*
X669000Y293334D01*
Y292001D02*
Y290668D01*
Y291335D01*
X672999D01*
X672332Y292001D01*
X669666Y288669D02*
X669000Y288003D01*
Y286670D01*
X669666Y286003D01*
X672332D01*
X672999Y286670D01*
Y288003D01*
X672332Y288669D01*
X671666D01*
X670999Y288003D01*
Y286003D01*
X673000Y271000D02*
Y274999D01*
X674999D01*
X675666Y274332D01*
Y272999D01*
X674999Y272333D01*
X673000D01*
X674333D02*
X675666Y271000D01*
X676999D02*
X678332D01*
X677665D01*
Y274999D01*
X676999Y274332D01*
X680331Y271000D02*
X681664D01*
X680997D01*
Y274999D01*
X680331Y274332D01*
X619432Y292934D02*
X620099Y293601D01*
Y294934D01*
X619432Y295600D01*
X616766D01*
X616100Y294934D01*
Y293601D01*
X616766Y292934D01*
X616100Y288935D02*
Y291601D01*
X618766Y288935D01*
X619432D01*
X620099Y289602D01*
Y290935D01*
X619432Y291601D01*
X616100Y287603D02*
Y286270D01*
Y286936D01*
X620099D01*
X619432Y287603D01*
X626666Y296332D02*
X625999Y296999D01*
X624666D01*
X624000Y296332D01*
Y293666D01*
X624666Y293000D01*
X625999D01*
X626666Y293666D01*
X630664Y293000D02*
X627999D01*
X630664Y295666D01*
Y296332D01*
X629998Y296999D01*
X628665D01*
X627999Y296332D01*
X631997D02*
X632664Y296999D01*
X633997D01*
X634663Y296332D01*
Y293666D01*
X633997Y293000D01*
X632664D01*
X631997Y293666D01*
Y296332D01*
X636332Y278334D02*
X636999Y279001D01*
Y280334D01*
X636332Y281000D01*
X633666D01*
X633000Y280334D01*
Y279001D01*
X633666Y278334D01*
X633000Y277001D02*
Y275668D01*
Y276335D01*
X636999D01*
X636332Y277001D01*
X633666Y273669D02*
X633000Y273003D01*
Y271670D01*
X633666Y271003D01*
X636332D01*
X636999Y271670D01*
Y273003D01*
X636332Y273669D01*
X635666D01*
X634999Y273003D01*
Y271003D01*
X642666Y281332D02*
X641999Y281999D01*
X640666D01*
X640000Y281332D01*
Y278666D01*
X640666Y278000D01*
X641999D01*
X642666Y278666D01*
X643999Y278000D02*
X645332D01*
X644665D01*
Y281999D01*
X643999Y281332D01*
X647331D02*
X647997Y281999D01*
X649330D01*
X649997Y281332D01*
Y280666D01*
X649330Y279999D01*
X649997Y279333D01*
Y278666D01*
X649330Y278000D01*
X647997D01*
X647331Y278666D01*
Y279333D01*
X647997Y279999D01*
X647331Y280666D01*
Y281332D01*
X647997Y279999D02*
X649330D01*
X652332Y293334D02*
X652999Y294001D01*
Y295334D01*
X652332Y296000D01*
X649666D01*
X649000Y295334D01*
Y294001D01*
X649666Y293334D01*
X649000Y292001D02*
Y290668D01*
Y291335D01*
X652999D01*
X652332Y292001D01*
X652999Y288669D02*
Y286003D01*
X652332D01*
X649666Y288669D01*
X649000D01*
X658666Y296332D02*
X657999Y296999D01*
X656666D01*
X656000Y296332D01*
Y293666D01*
X656666Y293000D01*
X657999D01*
X658666Y293666D01*
X659999Y293000D02*
X661332D01*
X660665D01*
Y296999D01*
X659999Y296332D01*
X665997Y296999D02*
X664664Y296332D01*
X663331Y294999D01*
Y293666D01*
X663997Y293000D01*
X665330D01*
X665997Y293666D01*
Y294333D01*
X665330Y294999D01*
X663331D01*
X669332Y278334D02*
X669999Y279001D01*
Y280334D01*
X669332Y281000D01*
X666666D01*
X666000Y280334D01*
Y279001D01*
X666666Y278334D01*
X666000Y277001D02*
Y275668D01*
Y276335D01*
X669999D01*
X669332Y277001D01*
X669999Y271003D02*
Y273669D01*
X667999D01*
X668666Y272336D01*
Y271670D01*
X667999Y271003D01*
X666666D01*
X666000Y271670D01*
Y273003D01*
X666666Y273669D01*
X675666Y281332D02*
X674999Y281999D01*
X673666D01*
X673000Y281332D01*
Y278666D01*
X673666Y278000D01*
X674999D01*
X675666Y278666D01*
X676999Y278000D02*
X678332D01*
X677665D01*
Y281999D01*
X676999Y281332D01*
X682330Y278000D02*
Y281999D01*
X680331Y279999D01*
X682997D01*
X659066Y191132D02*
X658399Y191799D01*
X657066D01*
X656400Y191132D01*
Y188467D01*
X657066Y187800D01*
X658399D01*
X659066Y188467D01*
X663064Y187800D02*
X660399D01*
X663064Y190466D01*
Y191132D01*
X662398Y191799D01*
X661065D01*
X660399Y191132D01*
X649968Y186834D02*
X649301Y187501D01*
Y188833D01*
X649968Y189500D01*
X652634D01*
X653300Y188833D01*
Y187501D01*
X652634Y186834D01*
X649968Y185501D02*
X649301Y184835D01*
Y183502D01*
X649968Y182835D01*
X650634D01*
X651301Y183502D01*
Y184168D01*
Y183502D01*
X651967Y182835D01*
X652634D01*
X653300Y183502D01*
Y184835D01*
X652634Y185501D01*
X634366Y186032D02*
X633699Y186699D01*
X632366D01*
X631700Y186032D01*
Y183367D01*
X632366Y182700D01*
X633699D01*
X634366Y183367D01*
X637698Y182700D02*
Y186699D01*
X635699Y184699D01*
X638365D01*
X628032Y182034D02*
X628699Y182701D01*
Y184034D01*
X628032Y184700D01*
X625366D01*
X624700Y184034D01*
Y182701D01*
X625366Y182034D01*
X628699Y178035D02*
Y180701D01*
X626699D01*
X627366Y179368D01*
Y178702D01*
X626699Y178035D01*
X625366D01*
X624700Y178702D01*
Y180035D01*
X625366Y180701D01*
X662666Y247132D02*
X661999Y247799D01*
X660666D01*
X660000Y247132D01*
Y244466D01*
X660666Y243800D01*
X661999D01*
X662666Y244466D01*
X666665Y247799D02*
X665332Y247132D01*
X663999Y245799D01*
Y244466D01*
X664665Y243800D01*
X665998D01*
X666665Y244466D01*
Y245133D01*
X665998Y245799D01*
X663999D01*
X655232Y242234D02*
X655899Y242901D01*
Y244234D01*
X655232Y244900D01*
X652566D01*
X651900Y244234D01*
Y242901D01*
X652566Y242234D01*
X655899Y240901D02*
Y238235D01*
X655232D01*
X652566Y240901D01*
X651900D01*
X628566Y246732D02*
X627899Y247399D01*
X626566D01*
X625900Y246732D01*
Y244066D01*
X626566Y243400D01*
X627899D01*
X628566Y244066D01*
X629899Y246732D02*
X630565Y247399D01*
X631898D01*
X632564Y246732D01*
Y246066D01*
X631898Y245399D01*
X632564Y244733D01*
Y244066D01*
X631898Y243400D01*
X630565D01*
X629899Y244066D01*
Y244733D01*
X630565Y245399D01*
X629899Y246066D01*
Y246732D01*
X630565Y245399D02*
X631898D01*
X620332Y242134D02*
X620999Y242801D01*
Y244134D01*
X620332Y244800D01*
X617666D01*
X617000Y244134D01*
Y242801D01*
X617666Y242134D01*
Y240801D02*
X617000Y240135D01*
Y238802D01*
X617666Y238136D01*
X620332D01*
X620999Y238802D01*
Y240135D01*
X620332Y240801D01*
X619666D01*
X618999Y240135D01*
Y238136D01*
X666300Y188800D02*
X670299D01*
Y186801D01*
X669632Y186134D01*
X668299D01*
X667633Y186801D01*
Y188800D01*
Y187467D02*
X666300Y186134D01*
Y184801D02*
Y183468D01*
Y184135D01*
X670299D01*
X669632Y184801D01*
X656500Y181200D02*
Y185199D01*
X658499D01*
X659166Y184532D01*
Y183199D01*
X658499Y182533D01*
X656500D01*
X657833D02*
X659166Y181200D01*
X663165D02*
X660499D01*
X663165Y183866D01*
Y184532D01*
X662498Y185199D01*
X661165D01*
X660499Y184532D01*
X641700Y184700D02*
X645699D01*
Y182701D01*
X645032Y182034D01*
X643699D01*
X643033Y182701D01*
Y184700D01*
Y183367D02*
X641700Y182034D01*
X645699Y178035D02*
Y180701D01*
X643699D01*
X644366Y179368D01*
Y178702D01*
X643699Y178035D01*
X642366D01*
X641700Y178702D01*
Y180035D01*
X642366Y180701D01*
X631700Y176500D02*
Y180499D01*
X633699D01*
X634366Y179832D01*
Y178499D01*
X633699Y177833D01*
X631700D01*
X633033D02*
X634366Y176500D01*
X638365Y180499D02*
X637032Y179832D01*
X635699Y178499D01*
Y177166D01*
X636365Y176500D01*
X637698D01*
X638365Y177166D01*
Y177833D01*
X637698Y178499D01*
X635699D01*
X671900Y244800D02*
X675899D01*
Y242801D01*
X675232Y242134D01*
X673899D01*
X673233Y242801D01*
Y244800D01*
Y243467D02*
X671900Y242134D01*
X675232Y240801D02*
X675899Y240135D01*
Y238802D01*
X675232Y238136D01*
X674566D01*
X673899Y238802D01*
X673233Y238136D01*
X672566D01*
X671900Y238802D01*
Y240135D01*
X672566Y240801D01*
X673233D01*
X673899Y240135D01*
X674566Y240801D01*
X675232D01*
X673899Y240135D02*
Y238802D01*
X659000Y237800D02*
Y241799D01*
X660999D01*
X661666Y241132D01*
Y239799D01*
X660999Y239133D01*
X659000D01*
X660333D02*
X661666Y237800D01*
X662999D02*
X664332D01*
X663665D01*
Y241799D01*
X662999Y241132D01*
X666331D02*
X666997Y241799D01*
X668330D01*
X668997Y241132D01*
Y238466D01*
X668330Y237800D01*
X666997D01*
X666331Y238466D01*
Y241132D01*
X637600Y247000D02*
X641599D01*
Y245001D01*
X640932Y244334D01*
X639599D01*
X638933Y245001D01*
Y247000D01*
Y245667D02*
X637600Y244334D01*
Y243001D02*
Y241668D01*
Y242335D01*
X641599D01*
X640932Y243001D01*
X637600Y237003D02*
Y239669D01*
X640266Y237003D01*
X640932D01*
X641599Y237670D01*
Y239003D01*
X640932Y239669D01*
X624300Y236600D02*
Y240599D01*
X626299D01*
X626966Y239932D01*
Y238599D01*
X626299Y237933D01*
X624300D01*
X625633D02*
X626966Y236600D01*
X628299D02*
X629632D01*
X628965D01*
Y240599D01*
X628299Y239932D01*
X631631D02*
X632297Y240599D01*
X633630D01*
X634297Y239932D01*
Y239266D01*
X633630Y238599D01*
X632964D01*
X633630D01*
X634297Y237933D01*
Y237266D01*
X633630Y236600D01*
X632297D01*
X631631Y237266D01*
X686000Y279000D02*
X689999D01*
Y277001D01*
X689332Y276334D01*
X687999D01*
X687333Y277001D01*
Y279000D01*
Y277667D02*
X686000Y276334D01*
X686666Y275001D02*
X686000Y274335D01*
Y273002D01*
X686666Y272336D01*
X689332D01*
X689999Y273002D01*
Y274335D01*
X689332Y275001D01*
X688666D01*
X687999Y274335D01*
Y272336D01*
M02*
