G04*
G04 #@! TF.GenerationSoftware,Altium Limited,Altium Designer,18.0.12 (696)*
G04*
G04 Layer_Color=8421504*
%FSLAX25Y25*%
%MOIN*%
G70*
G01*
G75*
%ADD16R,0.03937X0.02362*%
%ADD17R,0.02362X0.03937*%
%ADD18R,0.04000X0.07500*%
%ADD19R,0.07500X0.04000*%
%ADD20R,0.08750X0.04000*%
%ADD21R,0.04528X0.05512*%
%ADD22R,0.05512X0.04528*%
%ADD23R,0.04449X0.05591*%
%ADD24R,0.13386X0.05512*%
%ADD25R,0.22047X0.09055*%
%ADD26R,0.05512X0.13386*%
%ADD27R,0.09055X0.22047*%
%ADD28R,0.11811X0.09449*%
%ADD29R,0.05512X0.04724*%
%ADD30R,0.04724X0.05512*%
%ADD31R,0.10039X0.23425*%
D16*
X509276Y298000D02*
D03*
X518724Y301740D02*
D03*
Y294260D02*
D03*
D17*
X430000Y319724D02*
D03*
X433740Y310276D02*
D03*
X426260D02*
D03*
D18*
X553052Y347146D02*
D03*
X573052D02*
D03*
X563052Y361146D02*
D03*
Y302854D02*
D03*
X553052Y316854D02*
D03*
X573052D02*
D03*
X586052Y347146D02*
D03*
X606052D02*
D03*
X596052Y361146D02*
D03*
Y302854D02*
D03*
X586052Y316854D02*
D03*
X606052D02*
D03*
X620052Y347146D02*
D03*
X640052D02*
D03*
X630052Y361146D02*
D03*
Y302854D02*
D03*
X620052Y316854D02*
D03*
X640052D02*
D03*
X653000Y347146D02*
D03*
X673000D02*
D03*
X663000Y361146D02*
D03*
Y302854D02*
D03*
X653000Y316854D02*
D03*
X673000D02*
D03*
X553000Y278946D02*
D03*
X573000D02*
D03*
X563000Y292946D02*
D03*
Y234654D02*
D03*
X553000Y248654D02*
D03*
X573000D02*
D03*
X586000Y278946D02*
D03*
X606000D02*
D03*
X596000Y292946D02*
D03*
Y234654D02*
D03*
X586000Y248654D02*
D03*
X606000D02*
D03*
X563000Y214646D02*
D03*
X583000D02*
D03*
X573000Y228646D02*
D03*
Y170354D02*
D03*
X563000Y184354D02*
D03*
X583000D02*
D03*
X596000Y214646D02*
D03*
X616000D02*
D03*
X606000Y228646D02*
D03*
Y170354D02*
D03*
X596000Y184354D02*
D03*
X616000D02*
D03*
D19*
X529125Y253000D02*
D03*
X543125Y263000D02*
D03*
X529125Y273000D02*
D03*
X543125Y283000D02*
D03*
X529125Y293000D02*
D03*
X543125Y303000D02*
D03*
X529125Y313000D02*
D03*
X543125Y323000D02*
D03*
X529125Y333000D02*
D03*
X543125Y343000D02*
D03*
X529125Y353000D02*
D03*
D20*
X380000Y263000D02*
D03*
Y343000D02*
D03*
X402250D02*
D03*
X380000Y333000D02*
D03*
X402250D02*
D03*
X380000Y323000D02*
D03*
X402250D02*
D03*
X380000Y313000D02*
D03*
X402250D02*
D03*
X380000Y303000D02*
D03*
X402250D02*
D03*
X380000Y293000D02*
D03*
X402250D02*
D03*
X380000Y283000D02*
D03*
X402250D02*
D03*
X380000Y273000D02*
D03*
X402250D02*
D03*
Y263000D02*
D03*
D21*
X560610Y329500D02*
D03*
X567500D02*
D03*
X593902D02*
D03*
X600791D02*
D03*
X627902D02*
D03*
X634791D02*
D03*
X517445Y343000D02*
D03*
X510555D02*
D03*
Y333000D02*
D03*
X517445D02*
D03*
Y323000D02*
D03*
X510555D02*
D03*
X560209Y260800D02*
D03*
X567098D02*
D03*
X660555Y329000D02*
D03*
X667445D02*
D03*
X593555Y261300D02*
D03*
X600445D02*
D03*
X570555Y196000D02*
D03*
X577445D02*
D03*
X603555Y195500D02*
D03*
X610445D02*
D03*
D22*
X575055Y330055D02*
D03*
Y336945D02*
D03*
X608346Y330055D02*
D03*
Y336945D02*
D03*
X642346Y330055D02*
D03*
Y336945D02*
D03*
X574654Y261355D02*
D03*
Y268245D02*
D03*
X675000Y329555D02*
D03*
Y336445D02*
D03*
X608000Y261855D02*
D03*
Y268745D02*
D03*
X585000Y196555D02*
D03*
Y203445D02*
D03*
X618000Y196055D02*
D03*
Y202945D02*
D03*
D23*
X433484Y295000D02*
D03*
X426516D02*
D03*
Y303000D02*
D03*
X433484D02*
D03*
X510516Y253000D02*
D03*
X517484D02*
D03*
X510516Y263000D02*
D03*
X517484D02*
D03*
X510516Y273000D02*
D03*
X517484D02*
D03*
X510516Y283000D02*
D03*
X517484D02*
D03*
Y313000D02*
D03*
X510516D02*
D03*
D24*
X365402Y273551D02*
D03*
Y283394D02*
D03*
Y293236D02*
D03*
Y303079D02*
D03*
Y312921D02*
D03*
Y322764D02*
D03*
Y332606D02*
D03*
Y342449D02*
D03*
X153598Y306449D02*
D03*
Y296606D02*
D03*
Y286764D02*
D03*
Y276921D02*
D03*
Y267079D02*
D03*
Y257236D02*
D03*
Y247394D02*
D03*
Y237551D02*
D03*
X245402Y176551D02*
D03*
Y186394D02*
D03*
Y196236D02*
D03*
Y206079D02*
D03*
Y215921D02*
D03*
Y225764D02*
D03*
Y235606D02*
D03*
Y245449D02*
D03*
X197598D02*
D03*
Y235606D02*
D03*
Y225764D02*
D03*
Y215921D02*
D03*
Y206079D02*
D03*
Y196236D02*
D03*
Y186394D02*
D03*
Y176551D02*
D03*
D25*
X353000Y261937D02*
D03*
Y354063D02*
D03*
X166000Y318063D02*
D03*
Y225937D02*
D03*
X233000Y164937D02*
D03*
Y257063D02*
D03*
X210000D02*
D03*
Y164937D02*
D03*
D26*
X270551Y167598D02*
D03*
X280394D02*
D03*
X290236D02*
D03*
X300079D02*
D03*
X309921D02*
D03*
X319764D02*
D03*
X329606D02*
D03*
X339449D02*
D03*
X529512Y214402D02*
D03*
X519669D02*
D03*
X509827D02*
D03*
X499984D02*
D03*
X490142D02*
D03*
X480299D02*
D03*
X470457D02*
D03*
X460614D02*
D03*
Y166598D02*
D03*
X470457D02*
D03*
X480299D02*
D03*
X490142D02*
D03*
X499984D02*
D03*
X509827D02*
D03*
X519669D02*
D03*
X529512D02*
D03*
D27*
X258937Y180000D02*
D03*
X351063D02*
D03*
X541126Y202000D02*
D03*
X449000D02*
D03*
Y179000D02*
D03*
X541126D02*
D03*
D28*
X415500Y312067D02*
D03*
Y292933D02*
D03*
D29*
X553000Y336693D02*
D03*
Y330000D02*
D03*
X586000Y336846D02*
D03*
Y330154D02*
D03*
X620000Y336693D02*
D03*
Y330000D02*
D03*
X653000Y336346D02*
D03*
Y329654D02*
D03*
X553000Y267146D02*
D03*
Y260454D02*
D03*
X586000Y267146D02*
D03*
Y260454D02*
D03*
X563000Y202846D02*
D03*
Y196154D02*
D03*
X596000Y202846D02*
D03*
Y196154D02*
D03*
D30*
X560709Y337500D02*
D03*
X567402D02*
D03*
X594000D02*
D03*
X600693D02*
D03*
X628000D02*
D03*
X634693D02*
D03*
X660654Y337000D02*
D03*
X667346D02*
D03*
X560307Y268800D02*
D03*
X567000D02*
D03*
X593654Y269300D02*
D03*
X600346D02*
D03*
X570654Y204000D02*
D03*
X577346D02*
D03*
X603654Y203500D02*
D03*
X610346D02*
D03*
D31*
X387000Y193315D02*
D03*
Y232685D02*
D03*
X334000Y205630D02*
D03*
Y245000D02*
D03*
X281000Y205630D02*
D03*
Y245000D02*
D03*
M02*
