G04*
G04 #@! TF.GenerationSoftware,Altium Limited,Altium Designer,18.0.12 (696)*
G04*
G04 Layer_Color=32768*
%FSLAX25Y25*%
%MOIN*%
G70*
G01*
G75*
%ADD12C,0.01000*%
%ADD85C,0.00050*%
D12*
X260700Y321395D02*
Y327393D01*
X263699D01*
X264699Y326394D01*
Y324394D01*
X263699Y323395D01*
X260700D01*
X262699D02*
X264699Y321395D01*
X269697Y327393D02*
X267698D01*
X266698Y326394D01*
Y322395D01*
X267698Y321395D01*
X269697D01*
X270697Y322395D01*
Y326394D01*
X269697Y327393D01*
X272696D02*
Y322395D01*
X273696Y321395D01*
X275695D01*
X276695Y322395D01*
Y327393D01*
X278694D02*
X282693D01*
X280694D01*
Y321395D01*
X288691Y327393D02*
X284692D01*
Y321395D01*
X288691D01*
X284692Y324394D02*
X286692D01*
X299687Y327393D02*
X297688D01*
X296688Y326394D01*
Y322395D01*
X297688Y321395D01*
X299687D01*
X300687Y322395D01*
Y326394D01*
X299687Y327393D01*
X302686D02*
Y322395D01*
X303686Y321395D01*
X305685D01*
X306685Y322395D01*
Y327393D01*
X308684D02*
X312683D01*
X310684D01*
Y321395D01*
X260700Y317796D02*
Y311798D01*
X263699D01*
X264699Y312797D01*
Y313797D01*
X263699Y314797D01*
X260700D01*
X263699D01*
X264699Y315796D01*
Y316796D01*
X263699Y317796D01*
X260700D01*
X269697D02*
X267698D01*
X266698Y316796D01*
Y312797D01*
X267698Y311798D01*
X269697D01*
X270697Y312797D01*
Y316796D01*
X269697Y317796D01*
X272696Y311798D02*
Y315796D01*
X274695Y317796D01*
X276695Y315796D01*
Y311798D01*
Y314797D01*
X272696D01*
X278694Y311798D02*
Y317796D01*
X281693D01*
X282693Y316796D01*
Y314797D01*
X281693Y313797D01*
X278694D01*
X280694D02*
X282693Y311798D01*
X284692Y317796D02*
Y311798D01*
X287691D01*
X288691Y312797D01*
Y316796D01*
X287691Y317796D01*
X284692D01*
X264699Y307198D02*
X263699Y308198D01*
X261700D01*
X260700Y307198D01*
Y303200D01*
X261700Y302200D01*
X263699D01*
X264699Y303200D01*
X266698Y308198D02*
Y303200D01*
X267698Y302200D01*
X269697D01*
X270697Y303200D01*
Y308198D01*
X272696D02*
X276695D01*
X274695D01*
Y302200D01*
X281693Y308198D02*
X279694D01*
X278694Y307198D01*
Y303200D01*
X279694Y302200D01*
X281693D01*
X282693Y303200D01*
Y307198D01*
X281693Y308198D01*
X284692D02*
Y303200D01*
X285692Y302200D01*
X287691D01*
X288691Y303200D01*
Y308198D01*
X290690D02*
X294689D01*
X292690D01*
Y302200D01*
D85*
X704780Y63849D02*
X704698Y64837D01*
X704455Y65797D01*
X704057Y66705D01*
X703515Y67534D01*
X702844Y68263D01*
X702062Y68872D01*
X701190Y69344D01*
X700253Y69665D01*
X699276Y69828D01*
X698285D01*
X697307Y69665D01*
X696370Y69344D01*
X695499Y68872D01*
X694717Y68263D01*
X694045Y67534D01*
X693503Y66705D01*
X693105Y65797D01*
X692862Y64837D01*
X692780Y63849D01*
X692862Y62861D01*
X693105Y61901D01*
X693503Y60993D01*
X694045Y60164D01*
X694717Y59435D01*
X695499Y58826D01*
X696370Y58354D01*
X697307Y58033D01*
X698285Y57869D01*
X699276D01*
X700253Y58033D01*
X701190Y58354D01*
X702062Y58826D01*
X702844Y59435D01*
X703515Y60164D01*
X704057Y60993D01*
X704455Y61901D01*
X704698Y62861D01*
X704780Y63849D01*
X709343Y51164D02*
X710362Y51298D01*
X711312Y51691D01*
X712127Y52317D01*
X712753Y53132D01*
X713146Y54082D01*
X713280Y55101D01*
X684280D02*
X684414Y54082D01*
X684808Y53132D01*
X685433Y52317D01*
X686249Y51691D01*
X687198Y51298D01*
X688217Y51164D01*
X145669Y224410D02*
X145653Y223390D01*
X145865Y222392D01*
X146293Y221467D01*
X146916Y220659D01*
X147704Y220011D01*
X148616Y219555D01*
X149606Y219312D01*
X117730Y303150D02*
X117920Y302088D01*
X118378Y301112D01*
X119073Y300287D01*
X119958Y299671D01*
X120973Y299304D01*
X122047Y299213D01*
X187950Y162643D02*
X188084Y161624D01*
X188478Y160675D01*
X189103Y159859D01*
X189919Y159233D01*
X190868Y158840D01*
X191887Y158706D01*
X187230Y352364D02*
X187148Y353351D01*
X186905Y354312D01*
X186507Y355220D01*
X185965Y356049D01*
X185294Y356778D01*
X184512Y357387D01*
X183640Y357859D01*
X182703Y358180D01*
X181726Y358343D01*
X180735D01*
X179757Y358180D01*
X178820Y357859D01*
X177948Y357387D01*
X177166Y356778D01*
X176495Y356049D01*
X175953Y355220D01*
X175555Y354312D01*
X175312Y353351D01*
X175230Y352364D01*
X175312Y351376D01*
X175555Y350416D01*
X175953Y349508D01*
X176495Y348679D01*
X177166Y347950D01*
X177948Y347341D01*
X178820Y346869D01*
X179757Y346548D01*
X180735Y346384D01*
X181726D01*
X182703Y346548D01*
X183640Y346869D01*
X184512Y347341D01*
X185294Y347950D01*
X185965Y348679D01*
X186507Y349508D01*
X186905Y350416D01*
X187148Y351376D01*
X187230Y352364D01*
X704780D02*
X704698Y353351D01*
X704455Y354312D01*
X704057Y355220D01*
X703515Y356049D01*
X702844Y356778D01*
X702062Y357387D01*
X701190Y357859D01*
X700253Y358180D01*
X699276Y358343D01*
X698285D01*
X697307Y358180D01*
X696370Y357859D01*
X695499Y357387D01*
X694717Y356778D01*
X694045Y356049D01*
X693503Y355220D01*
X693105Y354312D01*
X692862Y353351D01*
X692780Y352364D01*
X692862Y351376D01*
X693105Y350416D01*
X693503Y349508D01*
X694045Y348679D01*
X694717Y347950D01*
X695499Y347341D01*
X696370Y346869D01*
X697307Y346548D01*
X698285Y346384D01*
X699276D01*
X700253Y346548D01*
X701190Y346869D01*
X702062Y347341D01*
X702844Y347950D01*
X703515Y348679D01*
X704057Y349508D01*
X704455Y350416D01*
X704698Y351376D01*
X704780Y352364D01*
X713280Y362187D02*
X713146Y363206D01*
X712753Y364155D01*
X712127Y364971D01*
X711312Y365597D01*
X710362Y365990D01*
X709343Y366124D01*
X121667D02*
X120648Y365990D01*
X119699Y365597D01*
X118883Y364971D01*
X118258Y364155D01*
X117864Y363206D01*
X117730Y362187D01*
X191887Y158706D02*
X684280D01*
Y55101D02*
Y158706D01*
X713280Y55101D02*
Y362187D01*
X688217Y51164D02*
X709343D01*
X122047Y299213D02*
X145669D01*
Y224409D02*
Y299213D01*
X187950Y162643D02*
Y219312D01*
X149606D02*
X187950D01*
X121667Y366124D02*
X709343D01*
X117730Y303150D02*
Y362187D01*
X246741Y354168D02*
X341229D01*
X246741Y259677D02*
Y354168D01*
Y259680D02*
X341229D01*
Y354168D01*
M02*
