G04*
G04 #@! TF.GenerationSoftware,Altium Limited,Altium Designer,18.0.12 (696)*
G04*
G04 Layer_Color=128*
%FSLAX25Y25*%
%MOIN*%
G70*
G01*
G75*
%ADD16R,0.03937X0.02362*%
%ADD17R,0.02362X0.03937*%
%ADD21R,0.04528X0.05512*%
%ADD23R,0.04449X0.05591*%
%ADD29R,0.05512X0.04724*%
%ADD30R,0.04724X0.05512*%
%ADD69O,0.01772X0.05512*%
%ADD70O,0.05512X0.01772*%
%ADD71R,0.05591X0.04449*%
%ADD72R,0.04331X0.03150*%
%ADD73R,0.10630X0.04724*%
D16*
X512276Y186000D02*
D03*
X521724Y182260D02*
D03*
Y189740D02*
D03*
D17*
X215000Y192724D02*
D03*
X211260Y183276D02*
D03*
X218740D02*
D03*
D21*
X230555Y338000D02*
D03*
X237445D02*
D03*
X214555D02*
D03*
X221445D02*
D03*
X158445Y297000D02*
D03*
X151555D02*
D03*
X157890Y238000D02*
D03*
X151000D02*
D03*
X158445Y267000D02*
D03*
X151555D02*
D03*
D23*
X190816Y307100D02*
D03*
X197784D02*
D03*
X520484Y206000D02*
D03*
X513516D02*
D03*
X520484Y214000D02*
D03*
X513516D02*
D03*
X251484Y189000D02*
D03*
X244516D02*
D03*
X251484Y180000D02*
D03*
X244516D02*
D03*
X267484Y195000D02*
D03*
X260516D02*
D03*
X251484Y198000D02*
D03*
X244516D02*
D03*
X267484Y204000D02*
D03*
X260516D02*
D03*
X251484Y207000D02*
D03*
X244516D02*
D03*
X267484Y213000D02*
D03*
X260516D02*
D03*
X251484Y216000D02*
D03*
X244516D02*
D03*
X267484Y222000D02*
D03*
X260516D02*
D03*
X251484Y225000D02*
D03*
X244516D02*
D03*
D29*
X231000Y191346D02*
D03*
Y184654D02*
D03*
D30*
X513654Y198000D02*
D03*
X520346D02*
D03*
D69*
X505236Y178287D02*
D03*
X502677D02*
D03*
X500118D02*
D03*
X497559D02*
D03*
X495000D02*
D03*
X492441D02*
D03*
X489882D02*
D03*
X487323D02*
D03*
X484764D02*
D03*
X505236Y201713D02*
D03*
X502677D02*
D03*
X500118D02*
D03*
X497559D02*
D03*
X495000D02*
D03*
X492441D02*
D03*
X489882D02*
D03*
X487323D02*
D03*
X484764D02*
D03*
D70*
X209287Y200764D02*
D03*
Y203323D02*
D03*
Y205882D02*
D03*
Y208441D02*
D03*
Y211000D02*
D03*
Y213559D02*
D03*
Y216118D02*
D03*
Y218677D02*
D03*
Y221236D02*
D03*
X232713Y200764D02*
D03*
Y203323D02*
D03*
Y205882D02*
D03*
Y208441D02*
D03*
Y211000D02*
D03*
Y213559D02*
D03*
Y216118D02*
D03*
Y218677D02*
D03*
Y221236D02*
D03*
D71*
X507000Y218484D02*
D03*
Y211516D02*
D03*
X502000Y233484D02*
D03*
Y226516D02*
D03*
X498000Y218484D02*
D03*
Y211516D02*
D03*
X493000Y233484D02*
D03*
Y226516D02*
D03*
X489000Y218484D02*
D03*
Y211516D02*
D03*
X484000Y233484D02*
D03*
Y226516D02*
D03*
X480000Y218484D02*
D03*
Y211516D02*
D03*
X476000Y233484D02*
D03*
Y226516D02*
D03*
D72*
X704657Y279864D02*
D03*
X683003D02*
D03*
X704657Y274864D02*
D03*
X683003D02*
D03*
X704657Y269864D02*
D03*
X683003D02*
D03*
X704657Y264864D02*
D03*
X683003D02*
D03*
X704657Y259864D02*
D03*
X683003D02*
D03*
X704657Y254864D02*
D03*
X683003D02*
D03*
X704657Y249864D02*
D03*
X683003D02*
D03*
X704657Y244864D02*
D03*
X683003D02*
D03*
X704657Y239864D02*
D03*
X683003D02*
D03*
X704657Y234864D02*
D03*
X683003D02*
D03*
Y229864D02*
D03*
X704657D02*
D03*
X683003Y224864D02*
D03*
X704657D02*
D03*
X683003Y219864D02*
D03*
X704657D02*
D03*
Y214864D02*
D03*
X683003D02*
D03*
X704657Y209864D02*
D03*
X683003D02*
D03*
X704657Y204864D02*
D03*
X683003D02*
D03*
X704657Y199864D02*
D03*
X683003D02*
D03*
X704657Y194864D02*
D03*
X683003D02*
D03*
X704657Y189864D02*
D03*
X683003D02*
D03*
X704657Y184864D02*
D03*
X683003D02*
D03*
X669557Y279864D02*
D03*
X647903D02*
D03*
X669557Y274864D02*
D03*
X647903D02*
D03*
X669557Y269864D02*
D03*
X647903D02*
D03*
X669557Y264864D02*
D03*
X647903D02*
D03*
X669557Y259864D02*
D03*
X647903D02*
D03*
X669557Y254864D02*
D03*
X647903D02*
D03*
X669557Y249864D02*
D03*
X647903D02*
D03*
X669557Y244864D02*
D03*
X647903D02*
D03*
X669557Y239864D02*
D03*
X647903D02*
D03*
X669557Y234864D02*
D03*
X647903D02*
D03*
Y229864D02*
D03*
X669557D02*
D03*
X647903Y224864D02*
D03*
X669557D02*
D03*
X647903Y219864D02*
D03*
X669557D02*
D03*
Y214864D02*
D03*
X647903D02*
D03*
X669557Y209864D02*
D03*
X647903D02*
D03*
X669557Y204864D02*
D03*
X647903D02*
D03*
X669557Y199864D02*
D03*
X647903D02*
D03*
X669557Y194864D02*
D03*
X647903D02*
D03*
X669557Y189864D02*
D03*
X647903D02*
D03*
X669557Y184864D02*
D03*
X647903D02*
D03*
D73*
X684185Y289687D02*
D03*
Y175041D02*
D03*
X703476D02*
D03*
Y289687D02*
D03*
X649085D02*
D03*
Y175041D02*
D03*
X668376D02*
D03*
Y289687D02*
D03*
M02*
